<?xml version="1.0" standalone="no"?>
<!DOCTYPE svg PUBLIC "-//W3C//DTD SVG 20010904//EN"
 "http://www.w3.org/TR/2001/REC-SVG-20010904/DTD/svg10.dtd">
<svg version="1.0" xmlns="http://www.w3.org/2000/svg"
 width="540.000000pt" height="960.000000pt" viewBox="0 0 540.000000 960.000000"
 preserveAspectRatio="xMidYMid meet">
<metadata>
Created by potrace 1.16, written by Peter Selinger 2001-2019
</metadata>
<g transform="translate(0.000000,960.000000) scale(0.100000,-0.100000)"
fill="#000000" stroke="none">
<path d="M0 9510 l0 -90 2700 0 2700 0 0 90 0 90 -2700 0 -2700 0 0 -90z"/>
<path d="M4519 9363 c-1 -4 -3 -21 -4 -38 -2 -16 -3 -36 -4 -42 -1 -9 -8 -10
-25 -3 -34 13 -79 -2 -93 -31 -14 -26 -17 -117 -5 -136 15 -24 63 -41 92 -33
16 5 38 6 50 3 20 -5 21 -3 18 137 -2 104 -6 145 -15 148 -7 2 -14 0 -14 -5z"/>
<path d="M510 9215 l0 -135 55 0 c31 0 69 7 86 16 75 38 78 189 6 237 -18 11
-47 17 -87 17 l-60 0 0 -135z m126 97 c31 -16 48 -65 40 -115 -9 -57 -39 -87
-87 -87 l-38 0 -3 103 c-2 56 -2 105 0 110 5 10 62 3 88 -11z"/>
<path d="M805 9281 c-26 -11 -50 -39 -41 -48 3 -3 22 2 41 13 40 21 68 12 73
-25 3 -18 -1 -21 -35 -21 -54 0 -83 -23 -83 -65 0 -44 43 -71 85 -55 15 6 38
7 52 4 l25 -7 -5 88 c-3 55 -10 92 -18 101 -18 18 -69 26 -94 15z"/>
<path d="M1040 9280 c-14 -4 -35 -5 -47 -3 -23 5 -23 4 -23 -96 0 -95 1 -101
21 -101 19 0 20 5 18 77 -2 64 1 78 16 90 11 7 26 13 35 13 31 0 40 -23 40
-102 0 -63 3 -78 15 -78 12 0 15 17 15 89 0 59 -4 92 -12 99 -20 15 -51 20
-78 12z"/>
<path d="M1235 9283 c-28 -7 -42 -20 -48 -44 -7 -27 33 -69 66 -69 13 0 32 -8
41 -19 16 -17 16 -20 1 -35 -22 -22 -52 -20 -72 4 -10 11 -23 20 -30 20 -22 0
-14 -29 13 -47 62 -40 149 -4 128 54 -7 22 -21 32 -59 45 -51 16 -70 42 -43
59 22 14 47 10 65 -11 22 -25 33 -25 33 -1 0 33 -49 56 -95 44z"/>
<path d="M2453 9279 c-38 -14 -56 -53 -51 -110 8 -75 50 -107 116 -85 13 4 22
3 22 -3 0 -45 -46 -69 -90 -46 -35 18 -50 3 -18 -19 34 -24 85 -20 113 9 24
23 25 30 25 141 0 112 -1 116 -20 111 -12 -3 -33 -2 -48 2 -15 5 -37 5 -49 0z"/>
<path d="M2765 9276 c-49 -21 -69 -89 -45 -151 18 -49 109 -67 141 -29 17 21
6 26 -27 14 -38 -15 -68 -6 -82 25 -7 14 -12 28 -12 30 0 3 32 5 71 5 l72 0
-7 41 c-4 23 -12 47 -19 53 -20 21 -60 26 -92 12z"/>
<path d="M4129 9279 c-54 -20 -72 -131 -28 -174 25 -24 36 -28 80 -26 28 1 68
26 57 36 -3 4 -22 1 -41 -6 -30 -11 -39 -10 -61 5 -14 9 -26 25 -26 36 0 18 7
20 63 20 35 0 66 2 69 6 9 8 -9 75 -24 90 -19 18 -59 24 -89 13z"/>
<path d="M4653 9280 c-56 -23 -75 -130 -31 -177 27 -29 97 -32 124 -6 20 20 4
29 -25 14 -29 -16 -49 -13 -71 9 -38 38 -27 50 44 50 36 0 67 4 70 8 7 13 -12
78 -27 90 -19 16 -60 22 -84 12z"/>
<path d="M1597 9262 c-10 -10 -17 -22 -17 -25 0 -13 27 -7 40 8 16 19 54 19
70 0 20 -24 4 -45 -35 -45 -25 0 -44 -8 -60 -25 -32 -31 -32 -58 0 -83 20 -16
32 -18 62 -12 21 5 46 8 57 7 17 -2 19 5 17 83 -2 98 -11 110 -76 110 -28 0
-47 -6 -58 -18z"/>
<path d="M1980 9197 c0 -99 11 -120 61 -119 19 1 49 2 67 2 l33 0 -3 97 c-3
84 -6 98 -20 101 -16 3 -18 -6 -18 -77 0 -78 -1 -82 -26 -93 -46 -21 -59 -2
-62 91 -2 63 -6 81 -17 81 -12 0 -15 -17 -15 -83z"/>
<path d="M3260 9197 c0 -118 9 -127 120 -115 l35 4 0 94 c0 81 -2 95 -17 98
-15 3 -18 -8 -20 -79 -3 -80 -4 -83 -31 -92 -46 -15 -57 4 -57 94 0 64 -3 79
-15 79 -12 0 -15 -16 -15 -83z"/>
<path d="M1353 8855 c-33 -14 -48 -41 -37 -68 3 -9 29 -25 57 -36 31 -11 53
-26 55 -36 8 -36 -59 -49 -80 -15 -15 23 -38 27 -38 6 0 -39 71 -66 116 -44
60 29 45 88 -26 109 -52 16 -66 32 -45 53 22 21 41 20 65 -4 11 -11 25 -20 30
-20 16 0 12 26 -7 42 -28 24 -55 28 -90 13z"/>
<path d="M1872 8855 c-51 -22 -68 -95 -37 -156 19 -35 53 -51 95 -42 44 8 70
46 70 102 0 80 -59 125 -128 96z m78 -35 c40 -40 16 -140 -33 -140 -28 0 -41
9 -56 37 -17 34 -13 74 11 100 26 28 52 29 78 3z"/>
<path d="M2562 8859 c-13 -5 -35 -6 -48 -3 l-24 6 0 -101 c0 -83 3 -101 15
-101 12 0 15 15 15 74 0 66 3 77 22 90 53 37 78 8 78 -90 0 -59 3 -74 15 -74
12 0 15 15 15 75 0 69 2 76 26 92 43 28 58 9 64 -83 4 -67 8 -79 24 -82 17 -4
18 3 15 82 -3 63 -8 90 -21 102 -19 19 -72 21 -92 5 -10 -8 -23 -7 -47 3 -23
9 -42 11 -57 5z"/>
<path d="M2944 8854 c-74 -37 -71 -162 5 -194 36 -15 101 2 101 27 0 11 -5 13
-17 8 -46 -20 -70 -17 -91 10 -12 15 -19 31 -16 36 3 5 34 9 70 9 l64 0 0 33
c0 31 -29 77 -50 77 -4 0 -14 2 -22 5 -7 2 -27 -2 -44 -11z"/>
<path d="M3149 8859 c-14 -5 -31 -21 -38 -35 -9 -22 -8 -28 14 -49 13 -14 32
-25 42 -25 10 0 29 -7 41 -16 18 -12 20 -19 12 -35 -15 -26 -66 -26 -80 1 -12
23 -40 27 -40 7 0 -22 35 -47 72 -53 27 -5 40 -1 63 18 43 38 30 71 -38 96
-37 14 -53 26 -55 40 -5 33 42 41 73 12 27 -25 51 -19 35 10 -7 13 -67 45 -74
39 -1 0 -13 -5 -27 -10z"/>
<path d="M3344 8856 c-42 -19 -50 -51 -19 -82 13 -13 32 -24 42 -24 10 0 29
-7 41 -16 18 -12 20 -19 12 -35 -14 -25 -54 -25 -80 1 -23 23 -40 26 -40 7 0
-19 30 -44 60 -52 57 -14 115 38 91 82 -6 12 -30 26 -57 33 -49 14 -63 32 -44
55 17 21 44 19 65 -5 23 -26 35 -25 35 1 0 13 -11 25 -35 35 -40 17 -32 16
-71 0z"/>
<path d="M3963 8863 c-88 -17 -83 -188 6 -208 31 -7 91 17 91 35 0 13 -27 13
-35 0 -10 -17 -54 -11 -75 10 -37 37 -26 49 48 52 74 3 82 13 54 71 -10 22
-55 53 -65 46 -1 -1 -12 -4 -24 -6z"/>
<path d="M425 8835 c-20 -20 -25 -34 -25 -78 0 -44 4 -58 26 -78 31 -29 95
-33 121 -7 21 22 11 33 -15 19 -31 -16 -60 -13 -82 9 -37 37 -26 49 48 52 l67
3 -2 35 c-3 67 -88 96 -138 45z"/>
<path d="M1130 8840 c-38 -38 -39 -125 -1 -163 24 -25 95 -27 119 -4 21 22 10
30 -21 16 -35 -16 -71 -5 -85 26 -7 14 -12 28 -12 30 0 3 32 5 70 5 l70 0 0
29 c0 15 -9 40 -21 55 -26 33 -88 37 -119 6z"/>
<path d="M1612 8716 c2 -97 7 -141 15 -143 8 -3 13 12 15 44 2 37 6 47 18 44
54 -14 60 -12 91 18 29 30 31 36 27 86 -7 79 -25 95 -105 93 l-64 -2 3 -140z"/>
<path d="M3708 8855 c-2 -3 10 -49 29 -102 37 -105 35 -139 -7 -150 -11 -3
-20 -12 -20 -19 0 -21 34 -17 55 6 25 28 105 259 92 267 -15 9 -32 -20 -47
-82 -7 -30 -18 -54 -23 -52 -5 1 -19 31 -31 67 -21 59 -35 78 -48 65z"/>
<path d="M4456 8841 c-30 -33 -39 -97 -20 -137 22 -46 76 -64 122 -40 18 9 32
21 32 26 0 13 -27 13 -35 0 -10 -17 -61 -11 -78 8 -35 38 -22 52 46 52 35 0
66 2 69 6 10 10 -11 78 -28 91 -27 20 -88 16 -108 -6z"/>
<path d="M4940 8770 c0 -84 1 -91 25 -106 17 -11 33 -14 57 -8 18 4 42 8 53 8
18 1 20 9 23 99 3 92 2 97 -18 97 -18 0 -20 -6 -20 -80 0 -77 -1 -81 -26 -92
-46 -21 -59 -2 -62 91 -2 63 -6 81 -17 81 -12 0 -15 -18 -15 -90z"/>
<path d="M0 6892 c0 -1425 2 -1637 15 -1662 11 -22 12 -30 2 -33 -7 -4 -6 -6
4 -6 9 -1 20 -8 23 -17 10 -26 7 -27 -19 -10 l-26 17 3 -353 c1 -194 4 -341 6
-326 4 30 31 47 33 20 1 -9 2 -30 3 -45 1 -16 9 -33 18 -38 10 -5 14 -17 11
-34 -3 -13 -9 -22 -14 -20 -4 3 -6 12 -2 20 3 8 0 15 -5 15 -6 0 -12 -6 -15
-12 -2 -7 -3 -6 -2 3 1 9 -6 27 -16 40 -18 24 -19 22 -19 -121 0 -80 4 -152
10 -160 5 -9 5 -17 -1 -20 -16 -10 2 -68 29 -97 15 -16 25 -33 24 -39 -3 -17
25 -37 43 -30 8 3 14 15 12 28 -1 17 3 23 16 22 10 -1 17 6 18 17 2 23 3 27
13 58 6 18 10 21 17 10 5 -8 9 -23 9 -35 0 -11 11 -35 25 -54 14 -19 25 -43
25 -54 0 -18 -2 -18 -26 5 -24 22 -26 22 -23 4 2 -11 14 -24 27 -30 12 -5 22
-15 22 -20 0 -6 15 -28 34 -48 37 -41 48 -68 35 -88 -8 -13 -18 -4 -65 60 -10
13 -12 12 -18 -7 -5 -15 -12 -19 -24 -15 -26 10 -42 30 -42 50 1 16 3 15 20
-5 10 -12 21 -18 24 -13 9 14 -4 40 -25 51 -15 9 -20 6 -25 -16 -4 -15 -2 -41
5 -59 14 -41 14 -45 -4 -45 -9 0 -12 6 -9 15 4 8 1 15 -5 15 -6 0 -10 19 -9
48 1 48 -8 82 -22 82 -15 0 -21 -33 -8 -42 9 -5 9 -8 1 -8 -6 0 -14 -8 -17
-18 -6 -18 -46 -28 -46 -11 0 5 7 9 15 9 11 0 15 8 12 25 -4 31 -13 40 -20 20
-4 -8 -1 -15 5 -15 6 0 9 -2 6 -5 -3 -3 -12 -3 -21 1 -11 4 -14 14 -10 38 4
24 1 35 -10 39 -13 5 -16 -7 -16 -83 0 -50 5 -92 10 -95 12 -8 12 -45 0 -45
-5 0 -10 -136 -10 -326 -1 -215 2 -323 9 -319 5 3 10 -1 10 -10 0 -9 -4 -13
-10 -10 -16 10 -13 -537 2 -554 11 -11 10 -14 0 -18 -10 -4 -12 -119 -12 -558
l1 -553 22 -7 22 -8 -23 -4 -22 -4 0 -265 c0 -193 3 -270 13 -285 10 -17 9
-23 -1 -26 -17 -6 -17 -154 1 -172 6 -8 7 -11 1 -8 -17 10 -14 -53 4 -100 13
-33 22 -43 40 -43 13 0 20 -4 17 -10 -3 -5 -21 -9 -38 -7 l-32 2 -3 -76 c-2
-59 1 -79 13 -89 20 -16 20 -79 0 -86 -12 -5 -15 -28 -15 -120 l0 -114 2700 0
2700 0 0 1509 0 1509 -36 6 c-24 5 -34 12 -31 20 3 8 -8 23 -23 35 -35 25 -40
26 -40 6 0 -8 -4 -15 -10 -15 -5 0 -10 -8 -10 -17 0 -15 -2 -15 -9 -4 -5 8
-16 11 -24 8 -18 -7 -33 8 -42 44 -3 13 -15 30 -25 37 -16 10 -20 8 -25 -8 -4
-11 -13 -27 -22 -35 -12 -12 -12 -19 -3 -30 7 -8 16 -13 19 -10 4 2 8 -2 8
-10 0 -20 -4 -19 -33 10 -14 14 -26 25 -28 25 -8 0 2 -41 14 -55 12 -15 12
-19 -2 -29 -11 -8 -14 -21 -11 -39 6 -33 -10 -36 -25 -4 -13 27 -16 8 -3 -25
5 -13 8 -26 7 -29 0 -4 8 -17 19 -29 14 -16 16 -22 5 -18 -8 2 -21 18 -29 34
-14 29 -41 61 -41 49 0 -3 7 -20 16 -36 24 -46 11 -58 -16 -14 -13 21 -26 33
-28 26 -2 -6 2 -18 9 -27 10 -12 9 -17 -6 -28 -16 -11 -16 -13 -2 -19 12 -5
15 -14 11 -35 -3 -17 -1 -32 5 -36 11 -7 4 -36 -10 -36 -5 0 -9 9 -9 19 0 11
-15 31 -32 46 -18 14 -45 37 -60 51 -15 14 -31 23 -37 19 -7 -4 -11 3 -11 17
0 16 -3 19 -9 10 -7 -11 -9 -11 -14 0 -6 17 -122 24 -132 9 -3 -6 1 -28 8 -49
12 -34 12 -39 1 -35 -8 3 -14 9 -14 15 0 5 -16 16 -35 24 -19 8 -35 19 -35 24
0 6 -5 10 -11 10 -5 0 -7 -4 -4 -10 3 -5 2 -10 -4 -10 -5 0 -13 5 -16 10 -4 6
-11 8 -16 5 -5 -4 -9 -1 -9 5 0 7 -7 10 -15 7 -8 -4 -17 -2 -20 3 -4 6 -13 10
-22 10 -14 0 -14 -3 2 -20 10 -11 15 -23 12 -27 -4 -3 -7 -3 -7 2 0 4 -7 2
-15 -5 -9 -8 -13 -21 -9 -36 5 -19 3 -23 -9 -18 -8 3 -18 1 -22 -5 -3 -7 2
-11 14 -11 23 0 41 -22 23 -28 -7 -2 -12 -8 -12 -14 0 -6 7 -8 15 -4 8 3 15 0
16 -7 0 -7 2 -29 5 -50 4 -32 0 -42 -27 -67 -18 -16 -37 -26 -42 -23 -6 4 -8
-3 -4 -16 4 -17 2 -21 -8 -17 -9 3 -12 0 -8 -10 3 -8 -1 -14 -9 -14 -15 0 -38
-40 -38 -66 0 -21 -27 -28 -44 -12 -64 57 -76 53 -49 -20 4 -8 -9 -12 -45 -12
-46 0 -50 -2 -55 -27 -3 -18 0 -32 11 -40 15 -11 12 -12 -17 -8 -32 6 -33 5
-26 -22 3 -15 12 -34 18 -42 7 -8 10 -23 9 -35 -2 -13 7 -31 23 -46 14 -13 25
-29 25 -36 0 -6 6 -17 14 -23 8 -7 12 -21 9 -31 -5 -18 38 -90 59 -98 4 -2 8
-17 8 -34 0 -17 9 -45 19 -62 11 -17 24 -49 30 -72 6 -23 22 -53 36 -68 14
-15 25 -29 25 -30 0 -2 13 -18 29 -35 17 -18 28 -38 25 -45 -3 -7 6 -21 20
-30 15 -9 26 -22 26 -29 0 -7 14 -26 30 -42 17 -16 30 -36 30 -44 0 -9 9 -22
20 -29 11 -7 20 -18 20 -26 0 -14 49 -80 90 -121 11 -12 20 -26 20 -33 0 -7 5
-12 10 -12 6 0 10 -5 10 -11 0 -19 40 -99 50 -99 6 0 10 -9 10 -21 0 -11 6
-33 14 -47 14 -27 29 -61 60 -134 8 -21 20 -38 25 -38 6 0 8 -6 5 -14 -3 -8
-1 -17 5 -21 6 -3 11 -15 11 -26 0 -10 9 -24 19 -31 14 -9 17 -16 10 -24 -7
-9 -4 -16 11 -24 17 -9 19 -14 9 -26 -17 -20 6 -44 42 -44 15 0 31 -5 35 -11
4 -8 -4 -9 -27 -4 -21 4 -29 3 -21 -3 7 -5 12 -15 10 -23 -2 -7 13 -21 32 -31
23 -12 29 -18 16 -18 -18 0 -18 -1 -2 -19 12 -13 14 -21 6 -26 -8 -5 -5 -14
10 -27 13 -13 18 -24 12 -30 -14 -14 -2 -57 20 -72 14 -10 16 -15 6 -19 -10
-4 -8 -10 6 -21 11 -9 15 -16 9 -16 -11 0 -12 -128 0 -147 4 -6 2 -13 -4 -15
-9 -3 -8 -11 3 -29 33 -55 37 -54 -260 -54 l-272 0 -19 38 c-19 37 -19 39 -1
54 14 12 16 21 9 40 -6 17 -4 35 6 58 7 19 16 35 18 35 9 0 0 -39 -12 -54 -7
-8 -10 -20 -6 -25 10 -17 45 27 45 56 l1 28 14 -25 c11 -21 11 -26 -1 -33 -19
-11 -18 -27 2 -27 11 0 14 -6 9 -21 -6 -18 -4 -20 17 -14 12 4 31 16 41 27 17
20 17 20 17 0 0 -11 7 -23 16 -26 24 -9 26 -8 19 14 -9 27 11 61 32 53 14 -5
13 -8 -5 -14 -21 -8 -21 -9 -4 -39 9 -16 21 -30 25 -30 5 0 5 6 0 12 -15 25
-12 44 3 23 8 -11 25 -21 37 -22 18 -1 22 4 23 28 1 18 -3 28 -10 26 -6 -2
-10 -11 -8 -20 1 -8 -2 -18 -7 -22 -11 -6 -23 31 -25 75 -1 27 -46 62 -46 37
-1 -7 -8 0 -16 16 -8 15 -22 27 -30 27 -11 0 -14 5 -9 17 11 29 11 35 -2 40
-12 4 -18 -14 -14 -42 1 -5 -9 1 -21 16 -22 24 -27 25 -130 24 -87 -1 -111 -5
-127 -19 -11 -10 -32 -19 -47 -21 -15 -1 -31 -10 -36 -19 -13 -23 -31 -20 -23
4 5 16 2 20 -17 20 -21 0 -24 5 -25 37 -1 30 5 43 29 64 20 19 25 29 16 32
-10 4 -10 7 1 15 8 6 20 8 28 5 7 -3 13 0 13 6 0 6 6 11 13 11 6 0 18 13 25
30 10 21 20 30 35 29 12 0 16 -3 10 -6 -28 -11 -10 -23 32 -21 25 0 45 4 45 7
0 4 15 12 33 20 36 14 24 27 -13 13 -14 -5 -32 -4 -47 2 -27 13 -31 26 -4 19
23 -6 36 24 20 44 -17 20 4 63 31 63 12 0 18 5 15 10 -3 6 -1 10 4 10 17 0 13
27 -4 34 -21 8 -43 -3 -50 -25 -4 -10 -11 -19 -16 -19 -5 0 -9 -11 -9 -25 0
-18 -4 -23 -15 -19 -24 10 -18 33 18 69 41 41 70 51 90 30 9 -8 18 -15 21 -15
11 0 6 24 -9 40 -14 15 -13 18 10 28 15 7 27 8 30 2 4 -6 -1 -10 -9 -10 -9 0
-16 -4 -16 -10 0 -5 5 -10 10 -10 6 0 10 -8 10 -19 0 -10 7 -25 17 -32 15 -13
16 -11 10 26 -5 29 -2 44 10 57 15 17 15 18 -8 19 -46 2 -52 4 -56 15 -6 17
24 25 53 13 21 -7 29 -6 40 8 13 17 13 17 14 1 0 -12 8 -18 22 -18 l21 0 -22
23 c-14 16 -19 30 -15 42 6 15 3 17 -19 11 -22 -5 -27 -3 -27 13 0 22 -19 31
-66 31 -28 0 -36 5 -44 26 -10 26 -39 31 -47 7 -3 -7 3 -9 16 -6 15 4 21 1 21
-11 0 -9 -7 -16 -15 -16 -8 0 -15 -5 -15 -11 0 -6 7 -9 15 -5 9 3 15 0 15 -8
0 -15 -27 -29 -40 -21 -4 2 -5 17 -2 32 l5 28 -32 -33 c-37 -36 -66 -45 -33
-9 12 13 19 27 15 30 -3 4 2 7 11 7 14 0 17 5 12 24 -5 19 -1 26 15 31 16 5
18 9 9 15 -7 4 -10 12 -6 18 3 6 2 14 -4 17 -6 4 -8 15 -5 25 5 15 2 17 -15
13 -15 -4 -19 -2 -14 10 4 11 -1 16 -17 19 -12 2 -27 11 -32 20 -9 13 -6 21
13 36 l25 20 -32 31 c-34 32 -55 40 -51 18 2 -7 -9 -13 -25 -15 -19 -2 -31
-11 -37 -28 -7 -18 -17 -24 -40 -24 -22 0 -29 4 -24 13 3 6 -5 0 -20 -16 -29
-30 -56 -36 -56 -12 0 8 -7 15 -15 15 -8 0 -15 -7 -15 -16 0 -8 -5 -12 -10 -9
-8 5 -8 11 -1 19 12 14 5 26 -16 26 -25 0 -14 -47 17 -73 17 -14 30 -28 30
-32 0 -5 -41 2 -70 12 -8 3 -23 7 -33 8 -16 1 -16 0 -2 -21 20 -31 19 -35 -9
-28 -29 7 -45 -12 -17 -21 22 -7 36 -45 16 -45 -7 0 -16 6 -18 13 -4 9 -8 9
-15 -2 -8 -11 -12 -10 -20 5 -9 15 -15 17 -29 8 -10 -6 -19 -21 -21 -33 -2
-11 -10 -21 -18 -21 -17 0 -18 -12 -3 -27 9 -9 2 -11 -25 -9 -37 3 -48 -7 -19
-18 12 -5 13 -10 5 -18 -14 -14 -42 6 -42 31 -1 14 -2 14 -11 -2 -12 -20 -35
-23 -42 -4 -2 6 -7 9 -11 6 -3 -3 0 -19 8 -35 20 -38 10 -45 -18 -13 -19 22
-25 24 -40 13 -14 -10 -15 -16 -7 -33 7 -13 8 -22 1 -26 -5 -3 -10 -1 -10 6 0
6 -8 9 -20 6 -12 -3 -18 -1 -14 5 4 6 1 9 -7 6 -17 -6 -23 -31 -14 -65 4 -16
11 -23 20 -20 15 7 49 -38 40 -53 -3 -6 -13 -10 -21 -10 -18 0 -18 -5 3 -52 9
-21 22 -38 29 -38 18 0 90 -118 94 -155 6 -56 -9 -60 -33 -10 -9 19 -23 35
-31 35 -8 0 -16 7 -20 15 -4 11 -17 14 -51 11 -39 -4 -45 -2 -45 14 0 22 -16
35 -25 20 -3 -5 1 -22 9 -37 8 -16 20 -50 26 -77 6 -27 21 -63 34 -80 34 -44
41 -75 21 -82 -9 -4 -15 -14 -12 -23 2 -9 -2 -22 -8 -28 -10 -9 -14 -7 -18 8
-6 22 -27 26 -27 4 0 -27 -19 -16 -27 15 -9 33 -29 41 -26 9 2 -11 -3 -19 -12
-19 -8 0 -15 -5 -15 -11 0 -5 4 -8 8 -5 4 2 14 1 22 -4 12 -7 12 -10 -3 -16
-22 -8 -22 -24 -1 -24 12 0 14 -3 6 -13 -7 -7 -9 -31 -6 -53 5 -33 3 -37 -8
-24 -7 8 -22 15 -33 15 -15 0 -20 -7 -20 -27 1 -15 -2 -26 -5 -26 -18 1 -32
-3 -27 -8 15 -15 -15 -44 -46 -44 -18 0 -329 -3 -692 -6 -637 -6 -1028 1 -957
16 18 4 36 10 39 13 3 4 6 33 7 66 0 39 5 62 13 65 18 7 16 26 -2 26 -8 0 -16
8 -16 18 -1 9 -2 22 -4 27 -1 6 -3 20 -3 33 -1 13 -7 20 -12 17 -14 -8 -9 98
4 107 6 4 1 8 -11 8 -13 0 -23 5 -23 10 0 6 7 10 16 10 14 0 14 2 0 22 -20 28
-21 78 -2 78 17 0 29 27 16 35 -6 4 -14 4 -19 0 -20 -11 -20 14 -1 53 24 49
24 52 5 52 -23 0 -13 89 11 107 17 12 17 13 0 13 -10 0 -16 6 -13 13 2 6 10
12 18 12 24 0 27 48 4 67 -20 18 -20 18 3 24 18 5 21 11 16 28 -4 11 -6 47 -5
78 1 34 -3 58 -9 58 -19 0 -10 21 14 30 19 7 23 14 19 31 -5 18 -3 20 15 15
28 -9 40 13 17 31 -18 13 -18 13 -1 13 11 0 25 8 32 17 11 14 15 15 22 5 6 -9
18 -11 35 -7 18 5 32 2 42 -9 18 -17 12 -36 -11 -36 -8 0 -14 -7 -14 -15 0
-22 15 -18 46 10 15 14 23 25 18 25 -5 0 -2 5 6 10 8 6 32 8 53 4 35 -5 53 8
25 19 -8 4 -7 6 3 6 9 1 23 -6 30 -15 12 -14 14 -14 20 3 3 10 15 18 25 19 47
3 54 5 54 19 0 9 -9 35 -20 57 -11 23 -20 49 -20 57 0 9 -7 35 -15 59 -18 51
-11 92 16 92 10 0 19 5 19 10 0 6 7 10 15 10 9 0 18 7 22 16 3 8 12 13 19 10
8 -3 14 -2 14 2 0 4 15 16 32 27 18 11 44 28 58 37 14 10 32 21 40 25 8 4 29
20 45 36 l30 29 -48 -32 c-26 -17 -89 -47 -140 -65 -51 -18 -116 -42 -145 -54
-49 -20 -208 -51 -259 -51 -14 0 -23 6 -23 15 0 8 8 15 18 15 9 0 48 11 85 25
68 23 100 49 92 72 -2 6 3 17 10 23 20 16 8 32 -17 24 -14 -4 -18 -2 -14 5 4
6 15 11 24 11 21 1 82 82 82 110 0 11 5 20 10 20 6 0 10 -5 10 -11 0 -5 4 -8
8 -5 4 2 14 1 22 -4 17 -10 65 13 74 35 4 13 13 15 37 10 26 -6 30 -4 27 11
-2 10 2 19 9 19 7 0 18 6 25 12 6 7 23 13 36 13 15 0 21 4 16 12 -5 8 0 9 17
4 35 -11 139 -13 174 -3 29 9 58 14 80 16 6 1 22 12 37 26 35 32 56 34 36 3
-8 -13 -17 -30 -20 -39 -5 -14 -3 -15 18 -5 13 6 24 15 24 19 0 4 10 3 21 -4
16 -8 27 -8 44 1 16 9 35 9 76 0 85 -17 84 -17 87 12 4 30 -31 68 -91 99 -33
17 -38 24 -33 44 3 13 3 31 0 39 -6 15 -8 15 -20 -1 -13 -17 -14 -17 -20 4 -3
11 -13 24 -22 27 -10 3 -24 9 -32 14 -38 22 -61 32 -75 32 -8 0 -15 5 -15 10
0 6 14 10 30 10 17 0 30 4 30 9 0 5 13 12 29 16 39 8 51 59 37 158 -6 38 -3
55 10 75 11 17 13 27 6 30 -7 2 -9 15 -5 32 3 20 0 34 -11 45 -20 21 -21 45 0
45 10 0 13 6 9 19 -4 13 0 20 16 24 17 4 20 12 18 39 -2 18 0 39 5 46 4 6 4
17 0 24 -5 7 -2 9 8 5 18 -6 48 22 48 45 0 9 -7 18 -15 22 -8 3 -15 13 -15 21
0 9 -5 13 -11 10 -6 -4 -8 -13 -5 -20 6 -17 -29 -86 -50 -98 -14 -8 -14 -11
-3 -18 10 -6 11 -9 2 -9 -7 0 -13 -9 -13 -19 0 -23 -30 -37 -42 -19 -4 7 -8 9
-8 5 0 -4 -9 -3 -21 4 -20 10 -21 21 -5 60 5 11 1 18 -13 22 -15 4 -18 10 -14
28 3 13 10 30 16 37 6 8 6 12 -1 12 -6 0 -13 8 -16 17 -3 10 -4 6 -2 -9 3 -30
-4 -34 -34 -18 -11 6 -16 17 -13 29 4 15 -1 20 -19 23 -15 2 -22 9 -22 21 1
10 -9 29 -21 42 -24 23 -27 59 -10 127 7 29 -9 69 -27 65 -6 -1 -18 10 -27 25
-12 21 -13 32 -5 45 13 22 29 15 28 -11 -1 -18 0 -18 13 -1 13 18 13 18 28 -1
8 -10 12 -25 10 -31 -2 -7 2 -13 9 -13 9 0 12 7 9 20 -5 21 12 29 19 9 2 -6
15 -13 29 -14 14 -2 38 -14 53 -29 16 -14 37 -28 47 -31 11 -4 19 -11 19 -16
0 -5 9 -9 20 -9 21 0 51 -45 60 -90 3 -14 10 -23 15 -20 6 3 9 8 8 12 -5 15
28 8 33 -7 4 -8 10 -12 15 -9 15 9 -13 42 -33 36 -12 -3 -18 1 -18 12 0 9 4
16 8 16 16 0 7 45 -11 52 -9 4 -21 18 -26 31 -13 33 -60 87 -77 87 -8 0 -14 4
-14 9 0 5 -15 14 -32 21 -18 7 -48 27 -66 44 -18 17 -35 30 -38 29 -13 -8 -34
-1 -34 12 0 8 -4 15 -9 15 -5 0 -16 3 -25 6 -11 4 -16 1 -16 -10 0 -14 -5 -13
-31 6 -23 17 -32 19 -38 10 -4 -7 -29 -13 -56 -14 -37 0 -49 -5 -52 -18 -3
-10 -19 -24 -36 -31 -18 -7 -40 -19 -49 -27 -10 -8 -18 -11 -18 -6 0 5 -8 -6
-16 -24 -9 -17 -23 -32 -31 -32 -8 0 -17 -9 -20 -20 -3 -11 -11 -20 -17 -20
-7 0 -18 -16 -26 -35 -8 -19 -18 -35 -22 -35 -5 0 -4 -9 2 -20 8 -15 8 -18 -3
-14 -11 4 -13 -1 -10 -20 3 -15 1 -26 -6 -26 -5 0 -8 -7 -5 -15 4 -8 -1 -26
-10 -40 -19 -29 -20 -39 -4 -29 6 4 3 -5 -8 -19 -12 -17 -29 -26 -46 -27 -37
0 -45 -18 -12 -26 14 -4 22 -9 17 -13 -5 -3 -12 -13 -15 -21 -9 -24 -55 -24
-61 0 -3 10 0 21 6 23 6 2 11 13 12 25 1 15 -4 22 -17 22 -11 0 -16 -4 -13
-10 7 -12 -12 -50 -26 -50 -6 0 -7 6 -3 12 13 21 11 48 -3 48 -29 0 -11 28 22
34 21 4 35 13 35 21 0 8 4 15 9 15 23 0 54 76 55 135 1 33 5 65 9 72 10 15 12
83 3 111 -10 30 -30 29 -22 -2 7 -29 -7 -42 -23 -22 -16 19 -4 66 15 59 8 -3
0 21 -20 59 -18 34 -39 63 -47 63 -8 0 -20 6 -27 13 -7 6 -19 12 -27 12 -7 0
-20 3 -29 6 -10 4 -16 1 -16 -9 0 -17 -21 -27 -56 -27 -13 0 -24 -4 -24 -10 0
-5 -9 -10 -20 -10 -11 0 -20 4 -20 9 0 5 -10 13 -22 17 -19 6 -20 7 -4 16 14
8 15 13 5 24 -10 12 -8 13 13 5 20 -8 28 -5 43 15 20 27 45 32 45 9 0 -11 8
-15 25 -12 28 3 46 17 23 17 -9 0 -19 7 -22 16 -5 12 -2 15 12 12 10 -3 23 1
30 9 7 7 9 13 5 13 -4 0 9 11 28 24 35 24 79 26 79 4 0 -5 5 -6 11 -3 6 4 -1
16 -17 30 -15 13 -31 22 -36 19 -17 -11 -27 7 -15 26 14 24 33 26 41 4 4 -10
15 -14 33 -12 35 4 43 28 9 28 -16 0 -26 6 -26 15 0 8 8 15 17 15 13 0 14 3 6
11 -6 6 -9 18 -6 25 3 8 -1 14 -10 14 -18 0 -29 -24 -21 -45 4 -10 0 -15 -10
-15 -9 0 -25 -5 -36 -12 -29 -18 -37 -1 -10 22 18 16 20 22 10 34 -10 13 -6
18 22 29 22 10 37 11 46 4 20 -16 26 0 8 19 -10 9 -15 23 -12 31 4 8 1 11 -5
8 -6 -4 -16 0 -22 8 -17 21 -60 30 -53 11 3 -8 2 -12 -3 -9 -5 3 -16 -4 -24
-16 -11 -15 -21 -19 -36 -14 -22 7 -29 39 -10 51 10 6 8 30 -8 71 -6 16 -5 16
11 4 9 -8 15 -20 12 -28 -6 -15 10 -18 19 -3 4 6 11 8 16 5 5 -4 9 -2 9 2 0 5
-9 14 -20 21 -21 13 -27 32 -10 32 6 0 10 -6 10 -14 0 -9 10 -13 25 -12 16 0
23 6 20 14 -2 6 2 12 9 12 19 0 27 25 13 39 -9 9 -8 14 3 21 11 7 11 10 2 10
-7 0 -10 5 -7 10 3 6 -3 10 -14 10 -12 0 -21 5 -21 10 0 6 5 10 11 10 5 0 7 5
3 11 -5 8 -10 6 -16 -5 -5 -9 -13 -16 -18 -16 -15 0 -12 28 2 33 10 3 8 9 -4
24 -10 11 -18 26 -18 35 0 8 -9 25 -20 38 -24 28 -25 31 -5 24 19 -7 19 -3 1
31 -9 16 -16 22 -18 13 -4 -11 -8 -11 -21 1 -10 7 -17 9 -17 3 0 -5 7 -15 15
-22 8 -7 15 -18 14 -24 0 -7 -2 -6 -6 2 -2 6 -11 12 -18 12 -8 0 -17 10 -21
22 l-6 21 -13 -24 -13 -24 -7 25 c-5 21 -12 25 -40 25 -19 0 -35 -5 -35 -11 0
-5 -7 -19 -15 -30 -15 -18 -15 -18 -9 7 6 26 5 27 -47 23 -58 -4 -71 -10 -49
-24 9 -6 10 -10 3 -10 -6 0 -18 9 -26 20 -12 17 -18 18 -50 8 -36 -11 -49 -32
-24 -41 6 -2 0 -4 -14 -4 -20 0 -28 6 -35 30 -5 17 -15 32 -22 35 -9 3 -10 -3
-2 -23 14 -36 14 -35 -20 -35 -16 0 -29 4 -27 9 3 12 -42 51 -59 51 -8 0 -11
-6 -8 -15 5 -11 -1 -15 -21 -15 -14 0 -24 -4 -21 -9 4 -5 3 -17 0 -26 -7 -17
-27 -17 -66 0 -26 11 -22 -10 5 -23 19 -10 16 -11 -23 -7 -25 3 -39 2 -32 -1
23 -11 12 -23 -17 -18 -16 4 -32 1 -35 -5 -4 -6 -2 -11 4 -11 7 0 10 -6 7 -14
-3 -7 0 -19 6 -25 8 -8 5 -11 -11 -11 -23 0 -30 -14 -12 -25 24 -15 -3 -36
-52 -40 -26 -2 -33 -12 -20 -28 14 -16 6 -28 -14 -20 -9 3 -14 -1 -14 -12 0
-15 -2 -15 -16 -4 -14 12 -14 14 0 25 20 14 21 25 1 18 -10 -4 -15 0 -15 15 0
23 -15 28 -24 9 -3 -7 -3 9 1 36 5 47 5 48 -17 41 -22 -7 -23 -6 -16 35 6 37
4 44 -19 62 -14 11 -25 24 -25 30 0 6 7 5 16 -3 15 -12 16 -11 9 11 -4 14 -14
36 -22 50 l-14 25 5 -32 c5 -30 4 -32 -12 -22 -13 8 -17 20 -14 40 2 16 8 29
12 29 18 0 17 53 -1 71 -11 11 -19 24 -19 29 0 21 -20 9 -20 -12 -1 -23 -1
-23 -14 2 -19 35 -9 90 15 90 11 0 19 -5 19 -11 0 -8 4 -8 15 1 10 8 86 13
257 16 266 4 310 0 301 -23 -5 -11 6 -43 24 -72 6 -10 43 40 45 62 2 24 6 27
40 27 29 0 41 -6 54 -26 22 -32 61 -30 56 4 -3 21 0 22 56 22 62 0 134 22 113
34 -6 4 -11 11 -11 16 0 14 33 0 50 -22 15 -18 17 -17 39 22 16 28 29 40 45
40 26 0 56 -28 56 -53 0 -9 7 -17 16 -17 8 0 12 -4 9 -10 -3 -5 -29 -10 -57
-10 -57 0 -91 -21 -80 -48 5 -14 3 -15 -9 -5 -12 10 -20 7 -42 -17 l-28 -29
43 -20 c28 -12 47 -16 53 -10 6 6 16 1 28 -13 11 -14 20 -18 23 -12 3 7 17 -1
36 -18 19 -18 37 -26 48 -23 11 4 20 -1 24 -12 25 -66 82 -123 107 -107 5 3 9
1 9 -5 0 -6 17 -15 38 -21 77 -20 203 -13 247 14 33 21 111 29 280 27 225 -2
379 -14 401 -32 7 -6 22 -5 39 1 20 8 35 6 58 -5 18 -8 54 -19 82 -25 27 -6
54 -15 61 -21 6 -5 40 -12 75 -15 35 -3 69 -10 76 -15 9 -8 89 -17 192 -22 8
0 22 -8 32 -18 11 -11 26 -15 38 -12 17 4 21 1 19 -18 -4 -30 35 -45 75 -30
20 8 27 17 27 38 0 20 3 24 9 14 7 -11 10 -9 16 9 5 16 10 19 18 11 7 -7 17
-1 33 20 31 42 59 61 97 63 17 1 33 8 35 14 5 16 32 15 32 0 0 -19 102 -17
117 2 11 13 12 13 13 -3 0 -14 5 -16 26 -11 18 5 31 0 49 -16 12 -12 31 -21
41 -20 34 4 42 0 47 -20 4 -14 14 -20 34 -20 27 0 63 -28 63 -50 0 -6 6 -10
14 -10 7 0 19 -7 26 -15 7 -8 16 -13 20 -10 4 3 10 -4 13 -14 4 -16 13 -19 50
-17 45 2 46 2 40 -26 -3 -16 -1 -28 5 -28 5 0 9 7 8 16 0 9 10 20 23 25 24 10
24 9 6 -11 -10 -11 -13 -20 -7 -20 7 0 12 -7 12 -15 0 -8 8 -15 18 -15 9 0 39
-16 66 -35 32 -23 53 -32 59 -26 7 7 21 1 39 -14 16 -14 34 -25 39 -25 5 0 9
-4 9 -10 0 -14 -33 -13 -47 1 -12 12 -33 4 -33 -12 0 -6 4 -7 10 -4 6 3 10 -3
10 -14 0 -12 7 -21 16 -21 8 0 12 -4 9 -10 -3 -5 0 -10 7 -10 10 0 10 -2 -1
-9 -18 -12 -5 -31 22 -31 12 0 28 -4 36 -9 11 -7 10 -11 -5 -20 -16 -9 -13
-10 19 -11 35 0 48 -12 27 -25 -6 -3 -10 -14 -10 -23 0 -13 2 -13 15 4 15 19
16 18 40 -9 14 -15 25 -33 24 -40 0 -7 -5 -2 -11 11 -11 22 -48 31 -48 12 0
-6 11 -23 25 -37 24 -26 27 -49 3 -25 -7 7 -17 12 -22 12 -6 0 5 -14 24 -30
33 -28 33 -30 8 -21 -26 10 -27 9 -17 -13 8 -17 8 -29 0 -44 -9 -17 -8 -22 10
-27 26 -9 23 -52 -3 -47 -11 2 -18 -3 -18 -13 0 -8 7 -15 15 -15 8 0 15 -9 15
-20 0 -21 84 -89 110 -90 19 0 70 -56 70 -76 0 -10 12 -14 39 -14 29 0 43 -6
54 -23 15 -20 16 42 16 710 l1 732 -42 4 -43 4 43 1 42 2 0 824 c0 723 -2 825
-15 830 -19 7 -19 45 0 52 24 10 20 109 -5 134 -11 11 -20 33 -20 51 0 17 -9
44 -21 60 -17 24 -24 28 -35 18 -12 -10 -18 -8 -29 7 -8 10 -15 27 -15 38 0
14 5 17 25 14 16 -4 30 2 42 15 18 20 17 20 -25 14 -35 -4 -48 -1 -63 14 -24
24 -24 33 0 17 15 -9 23 -9 34 1 13 10 22 9 48 -5 41 -21 57 -36 52 -50 -2 -6
3 -17 12 -24 13 -11 15 79 15 880 0 809 -1 892 -16 886 -9 -3 -74 -6 -145 -6
-84 0 -128 -4 -124 -10 3 -5 27 -10 53 -10 27 0 42 -4 34 -8 -9 -6 -6 -14 13
-32 31 -29 36 -96 8 -102 -21 -5 -93 47 -93 66 0 7 -9 21 -20 31 -21 19 -21
19 -14 -23 6 -39 5 -42 -12 -36 -11 4 -28 15 -40 26 -11 10 -32 17 -45 16 -22
-3 -24 0 -21 40 l2 42 -92 0 -93 0 -1 -30 c-1 -17 2 -30 5 -30 12 0 33 17 32
26 -1 5 9 10 23 12 17 2 26 -3 31 -17 3 -10 19 -24 35 -30 22 -7 30 -17 30
-33 0 -13 5 -30 10 -38 8 -13 11 -11 16 7 10 36 33 36 67 -1 58 -63 62 -69 49
-74 -15 -5 -15 -33 -1 -65 8 -18 7 -32 -5 -62 -16 -38 -16 -39 9 -65 14 -14
22 -30 18 -34 -7 -8 9 -6 85 10 25 5 30 2 42 -26 11 -27 11 -33 -1 -41 -22
-14 -37 -11 -48 10 -12 22 -39 31 -66 21 -19 -7 -19 -7 3 -19 26 -14 52 -61
52 -94 0 -14 7 -30 15 -37 8 -7 15 -19 15 -26 0 -8 5 -14 10 -14 6 0 15 -10
20 -22 8 -21 9 -20 9 8 1 17 8 38 17 45 15 12 16 6 9 -81 -7 -97 -10 -110 -24
-110 -10 0 -51 74 -51 92 0 22 -35 49 -54 42 -9 -3 -16 -10 -16 -14 0 -4 -10
-11 -22 -14 -23 -6 -23 -7 9 -35 33 -30 33 -41 1 -41 -27 0 -17 -23 10 -25 26
-2 55 -36 42 -49 -5 -5 -17 -6 -27 -2 -15 6 -15 8 -3 16 12 8 9 10 -10 10 -31
0 -55 14 -47 27 10 16 -13 84 -25 77 -5 -4 -14 -1 -18 7 -7 10 -11 10 -24 0
-9 -8 -16 -19 -16 -26 0 -7 -15 -30 -34 -52 -27 -30 -43 -39 -72 -41 -49 -4
-56 -9 -44 -33 6 -10 7 -19 3 -19 -4 0 -2 -5 4 -11 8 -8 17 -8 29 -1 14 8 21
6 30 -6 10 -13 16 -11 52 17 22 18 43 44 46 57 7 28 26 23 26 -6 0 -23 25 -33
40 -14 21 24 40 17 40 -16 0 -19 -10 -40 -30 -60 -34 -35 -39 -36 -55 -14 -10
15 -14 11 -29 -27 -10 -23 -24 -48 -31 -53 -8 -6 -23 -35 -34 -63 -20 -52 -20
-53 -1 -53 14 0 23 -11 31 -40 9 -31 18 -40 40 -45 16 -4 29 -11 29 -17 0 -5
12 -7 28 -3 20 4 33 1 42 -10 11 -13 9 -15 -11 -15 -13 0 -34 -3 -47 -6 -16
-5 -22 -2 -22 10 0 18 -35 22 -59 7 -9 -6 -28 -4 -53 6 -49 19 -70 12 -66 -24
2 -22 -3 -32 -25 -45 -20 -13 -27 -26 -27 -48 0 -16 -4 -30 -10 -30 -5 0 -10
-9 -10 -20 0 -12 -9 -38 -20 -60 -25 -50 -25 -62 3 -92 36 -39 58 -43 82 -13
18 24 25 26 58 20 21 -4 44 -14 52 -21 16 -16 41 -18 50 -5 3 5 1 12 -5 16 -6
4 -8 10 -5 15 3 4 -4 6 -14 3 -14 -4 -24 3 -36 26 -14 29 -19 31 -53 25 -31
-5 -41 -2 -61 20 l-24 25 34 38 c18 21 35 37 38 36 3 -1 5 16 3 37 -2 27 1 40
9 40 7 0 9 -3 6 -7 -4 -3 2 -12 13 -20 15 -11 20 -26 20 -64 l0 -49 39 0 c82
0 138 -123 75 -164 l-25 -17 25 -20 c14 -11 26 -25 26 -31 0 -5 9 -21 19 -34
26 -33 36 -96 19 -123 -15 -25 -36 -27 -44 -6 -4 10 -14 13 -29 9 -18 -4 -25
-1 -31 18 -4 12 -8 28 -9 33 0 13 -63 13 -82 0 -12 -9 -11 -14 6 -37 44 -55
15 -111 -65 -123 -61 -9 -74 -14 -74 -31 0 -19 -34 -18 -50 1 -8 9 -10 29 -7
51 4 20 4 34 1 31 -10 -9 -32 17 -27 31 3 7 29 28 59 48 32 22 51 40 48 49 -4
10 -14 9 -45 -8 -21 -11 -39 -25 -39 -29 0 -5 -4 -7 -9 -3 -5 3 -12 1 -16 -5
-10 -16 -55 -12 -55 5 0 8 9 15 20 15 11 0 20 7 20 15 0 8 7 15 15 15 27 0 64
43 73 86 l9 42 -38 6 c-30 5 -39 11 -39 26 0 10 -5 22 -10 25 -6 4 -4 12 5 21
17 18 19 30 5 39 -5 3 -17 -10 -27 -29 -9 -19 -20 -33 -25 -30 -11 7 -10 51 1
58 4 3 14 26 21 51 7 25 16 45 20 45 13 0 20 30 14 56 -4 14 -13 24 -24 24
-10 0 -33 17 -50 37 -33 37 -65 50 -74 28 -3 -8 4 -10 20 -7 30 5 32 -17 5
-42 -18 -16 -20 -16 -40 10 -21 27 -28 54 -13 54 5 0 14 11 20 25 6 14 19 25
28 25 12 0 15 9 14 43 -4 66 -2 73 25 85 14 7 25 18 24 24 -3 28 2 38 21 38
15 0 20 7 20 28 0 15 -7 36 -15 46 -8 10 -12 23 -9 28 3 5 1 15 -5 22 -16 19
9 27 47 17 37 -11 57 15 46 62 -4 18 -8 46 -9 62 -2 17 -6 42 -10 58 -5 17 -3
27 4 27 6 0 11 11 11 25 0 14 7 28 15 31 11 5 12 11 5 24 -14 26 -12 98 2 102
7 3 9 11 3 24 -4 10 -7 25 -6 33 2 10 -3 9 -21 -3 -25 -18 -63 -22 -53 -6 3 6
1 10 -4 10 -6 0 -11 -4 -11 -10 0 -5 -7 -10 -15 -10 -8 0 -17 -12 -21 -27 -12
-55 -16 -63 -29 -63 -7 0 -16 13 -20 29 -3 16 -12 34 -19 40 -8 7 -14 34 -15
64 0 28 -2 59 -2 67 -4 36 2 60 15 60 19 0 66 -61 66 -84 0 -9 5 -14 10 -11 6
4 8 11 4 16 -3 6 0 23 6 40 10 23 19 29 41 29 34 0 35 4 11 35 -13 17 -23 20
-34 14 -21 -12 -76 11 -108 46 -14 15 -23 29 -21 31 1 3 -2 18 -9 34 -20 47 2
87 53 101 33 9 38 13 25 20 -18 10 -48 2 -48 -12 0 -5 -5 -9 -11 -9 -5 0 -8 4
-5 9 6 9 -40 21 -83 21 -19 0 -22 -3 -12 -9 8 -5 16 -17 17 -26 2 -15 -4 -17
-37 -12 -21 3 -58 15 -82 26 -42 20 -57 21 -470 21 -235 0 -427 -3 -427 -6 0
-3 6 -17 14 -32 7 -15 16 -44 19 -65 3 -20 16 -51 27 -68 23 -32 22 -46 -4
-32 -14 8 -70 78 -92 115 -7 11 -17 25 -23 31 -6 6 -11 21 -11 34 l0 23 -242
1 c-733 4 -1688 4 -1722 1 -32 -4 -36 -7 -24 -16 18 -13 48 -80 48 -105 0 -20
51 -81 68 -81 6 0 14 -5 18 -11 4 -8 0 -9 -15 -4 -12 3 -39 8 -61 9 -41 3
-104 36 -82 44 7 2 19 -2 28 -8 21 -18 28 -6 9 14 -9 9 -32 47 -51 86 l-35 70
-197 1 c-108 0 -405 2 -659 3 l-463 1 0 -1633z m800 1195 c0 -40 23 -87 48
-99 28 -14 43 -48 20 -48 -7 0 -22 -15 -33 -33 l-20 -32 -3 47 c-3 41 -6 46
-25 45 -77 -4 -127 20 -127 59 1 61 30 83 78 58 24 -12 27 -12 34 7 8 21 28
18 28 -4z m353 -28 c33 -136 56 -189 82 -189 21 0 19 34 -5 80 -23 45 -26 60
-8 42 7 -7 19 -31 28 -55 10 -26 23 -43 35 -45 30 -6 45 -22 45 -48 0 -21 5
-24 34 -24 19 0 36 6 38 12 4 10 11 9 29 -3 54 -34 113 -49 189 -46 180 7 365
-101 445 -258 16 -32 46 -81 67 -109 21 -28 38 -58 38 -68 0 -21 1 -21 -38 -7
-25 8 -34 19 -42 50 -6 22 -20 45 -31 52 -11 6 -41 39 -67 72 -50 63 -91 104
-106 105 -21 0 -142 64 -185 96 -40 31 -47 33 -57 20 -7 -10 -27 -16 -54 -16
-27 0 -51 -7 -63 -17 -15 -13 -21 -15 -24 -5 -7 17 -43 15 -43 -3 0 -8 -5 -24
-12 -35 -10 -15 -9 -22 3 -37 17 -19 39 -108 39 -151 -1 -25 -2 -25 -14 8 -33
88 -48 126 -58 145 -6 11 -14 30 -17 44 -5 18 -14 25 -35 26 -26 1 -27 -1 -21
-33 5 -29 4 -34 -9 -29 -10 4 -13 1 -9 -9 3 -8 -1 -14 -11 -14 -9 0 -16 7 -16
16 0 8 -4 12 -10 9 -5 -3 -10 0 -10 8 0 8 -9 22 -20 32 -23 21 -28 44 -5 25 8
-7 15 -9 15 -6 0 4 8 0 18 -10 16 -17 17 -17 20 5 2 14 -5 31 -17 42 -12 11
-21 22 -21 24 0 13 58 -1 77 -18 21 -19 23 -19 29 -2 8 19 -10 35 -42 35 -11
0 -30 9 -42 20 -31 29 -45 26 -37 -10 5 -22 3 -32 -9 -36 -9 -3 -16 -12 -16
-20 0 -8 -3 -14 -6 -14 -11 0 -44 42 -44 55 0 7 -11 29 -25 49 -14 21 -23 42
-19 47 7 11 -21 75 -37 85 -13 7 -3 98 13 132 15 30 31 23 41 -19z m1739 -177
c22 -48 35 -101 43 -184 4 -37 11 -70 16 -73 33 -21 -16 -135 -57 -135 -31 0
-32 -27 -1 -32 19 -3 22 -9 23 -48 1 -25 10 -72 19 -105 12 -38 16 -71 11 -89
-6 -24 -10 -27 -34 -21 -15 4 -30 12 -34 18 -4 7 -29 12 -55 13 -26 1 -61 9
-78 18 -29 15 -31 15 -44 -4 -7 -11 -24 -20 -37 -20 -12 0 -34 -4 -49 -10 -20
-7 -27 -6 -31 4 -3 8 -13 12 -23 9 -11 -3 -38 16 -79 55 -63 61 -71 81 -56
140 8 28 23 28 68 -3 20 -14 43 -25 51 -25 8 0 15 -6 15 -14 0 -11 8 -12 36
-6 47 11 55 20 16 20 -35 0 -49 14 -33 33 7 9 33 12 76 11 122 -5 151 -25 148
-108 -1 -34 3 -56 9 -56 6 0 17 -8 24 -17 18 -26 27 -10 27 49 0 42 -7 64 -32
104 -18 29 -35 71 -38 95 -7 49 -16 59 -55 59 -15 0 -31 8 -37 17 -7 14 -13
15 -33 6 -13 -6 -54 -11 -91 -12 -59 -1 -67 1 -67 18 0 12 15 26 40 39 31 15
36 21 24 26 -13 5 -14 9 -5 20 9 11 9 15 -1 19 -10 4 -10 7 1 15 9 7 10 12 2
16 -6 4 -11 3 -11 -3 0 -6 -7 -8 -15 -5 -22 9 -18 33 7 43 13 5 17 10 10 15
-6 3 -13 2 -17 -4 -10 -17 -25 -11 -25 9 0 11 -6 22 -12 24 -7 3 -3 6 9 6 12
1 24 5 27 10 3 4 38 10 78 13 60 4 82 11 122 36 34 22 53 29 60 22 17 -17 48
-11 53 10 8 29 16 25 35 -18z m1521 -5 c3 -8 1 -20 -4 -28 -14 -23 -11 -52 6
-46 21 9 31 -14 12 -28 -21 -15 -22 -41 -1 -49 20 -8 34 1 34 20 0 19 26 18
42 -1 7 -9 19 -23 27 -31 12 -13 11 -16 -6 -20 -26 -7 -19 -46 10 -59 12 -6
26 -25 31 -42 7 -28 5 -38 -19 -68 -25 -33 -28 -35 -44 -21 -23 21 -28 20 -35
-8 -11 -44 -74 -41 -83 5 -3 16 -11 29 -18 29 -15 0 -49 49 -41 57 3 4 18 7
33 9 51 5 93 16 93 24 0 5 3 15 6 24 5 13 -1 16 -29 16 -26 0 -39 6 -52 26
-15 23 -18 24 -34 10 -9 -8 -22 -12 -28 -8 -20 12 32 185 59 195 23 9 36 7 41
-6z m-3441 -109 c9 -7 18 -24 20 -38 2 -20 9 -26 35 -28 24 -2 32 1 36 15 3
14 6 12 11 -9 9 -30 32 -36 66 -18 26 14 32 1 37 -91 3 -52 1 -84 -7 -94 -6
-7 -13 -33 -15 -57 -9 -110 -29 -140 -92 -137 -23 2 -45 0 -49 -4 -21 -20 -26
-1 -19 75 7 75 11 86 45 128 56 67 65 89 46 108 -14 14 -17 14 -37 -4 -13 -10
-19 -13 -15 -6 10 17 -21 27 -39 12 -11 -9 -18 -4 -34 31 -21 42 -29 129 -13
129 5 0 15 -6 24 -12z m2577 -177 c37 -51 22 -81 -41 -81 -34 0 -38 -3 -38
-24 0 -15 7 -27 18 -31 11 -3 24 -17 30 -31 16 -34 15 -36 -10 -32 -32 5 -86
87 -88 134 -3 60 -2 62 28 78 44 24 78 20 101 -13z m396 -122 c29 -28 31 -36
24 -66 -10 -46 -19 -53 -19 -17 -1 27 -35 82 -45 72 -3 -3 -7 -42 -9 -88 -5
-86 -12 -104 -41 -98 -18 3 -29 17 -39 50 -7 22 -37 12 -34 -11 2 -9 -4 -16
-12 -16 -9 0 -16 11 -18 26 -2 20 2 28 18 32 13 3 18 10 14 21 -4 11 0 16 13
16 27 0 43 20 43 53 0 24 4 28 18 25 12 -3 24 2 31 13 15 25 18 24 56 -12z
m-2259 -208 c3 -14 12 -44 19 -66 7 -22 19 -65 26 -95 7 -30 16 -57 20 -60 3
-3 9 -22 12 -42 4 -29 2 -38 -9 -38 -8 0 -14 9 -14 19 0 23 -16 36 -25 21 -4
-6 0 -19 9 -29 9 -10 16 -26 16 -37 0 -10 5 -26 10 -34 7 -11 10 -7 10 18 0
43 16 33 31 -21 7 -23 25 -81 40 -129 16 -48 29 -92 29 -97 0 -24 -39 -9 -60
22 l-21 32 6 -40 c4 -22 21 -85 39 -140 18 -55 40 -127 49 -160 39 -148 57
-224 57 -239 0 -10 12 -33 26 -52 24 -31 84 -139 84 -150 0 -3 -9 -2 -20 1
-22 7 -23 5 -14 -19 4 -10 18 -16 39 -16 27 0 36 -5 47 -30 17 -40 29 -38 17
2 -11 40 -11 38 1 38 6 0 10 -7 10 -15 0 -28 44 -82 87 -109 24 -14 43 -32 43
-40 0 -7 11 -17 25 -20 13 -3 30 -16 36 -28 10 -18 8 -24 -7 -35 -24 -17 -34
-16 -34 3 0 8 -4 12 -10 9 -5 -3 -10 -16 -10 -27 0 -12 -3 -18 -6 -15 -4 4
-19 0 -33 -8 -14 -7 -39 -17 -56 -21 l-30 -7 32 -13 c24 -10 30 -18 26 -34 -5
-20 -43 -29 -43 -10 0 13 -51 59 -65 60 -5 0 -4 -5 3 -12 14 -14 17 -82 3 -74
-8 6 -16 38 -25 102 -2 17 -8 40 -14 50 -5 10 -12 35 -16 55 l-7 37 56 -20
c58 -22 75 -45 25 -35 -36 8 -43 -2 -29 -42 12 -35 39 -54 63 -45 20 8 21 24
1 24 -9 0 -15 9 -15 25 0 14 5 25 11 25 5 0 7 -5 3 -12 -5 -7 -2 -9 9 -5 10 4
21 -3 31 -19 22 -33 33 -30 34 9 1 27 -7 40 -51 80 -31 28 -59 46 -69 43 -9
-2 -19 4 -23 13 -9 23 -49 81 -56 81 -7 0 3 -52 16 -81 3 -10 2 -20 -3 -23
-14 -9 -23 21 -27 88 -4 56 -6 61 -37 78 -21 11 -27 17 -15 18 34 0 13 82 -25
95 -13 4 -27 8 -32 9 -9 1 -29 46 -20 46 2 0 9 -10 14 -22 7 -18 9 -19 9 -5 1
21 21 23 21 1 0 -8 4 -13 9 -10 12 8 -1 64 -114 476 -24 90 -55 176 -99 275
-15 33 -31 71 -37 85 -6 14 -26 57 -45 95 -19 39 -27 60 -17 47 10 -12 30 -37
45 -55 l28 -32 -9 32 c-5 17 -7 33 -5 35 2 3 -3 39 -11 82 -15 80 -20 158 -9
169 12 12 34 -6 40 -32z m2087 -44 c9 -12 30 -35 46 -52 16 -16 34 -40 40 -52
7 -15 19 -22 33 -20 27 3 38 -32 14 -45 -8 -5 -13 -15 -10 -23 8 -19 24 -19
24 0 0 21 36 55 58 55 40 0 77 -66 88 -158 10 -92 -24 -130 -82 -91 -17 11
-32 15 -39 9 -6 -5 -17 -5 -25 0 -17 10 -10 20 17 25 10 2 20 4 22 4 2 1 -2 8
-9 16 -7 8 -10 24 -7 36 5 18 2 20 -31 17 -34 -3 -37 -1 -40 25 -2 15 -9 27
-18 27 -8 0 -19 10 -24 23 -12 32 -63 82 -97 96 -27 11 -43 40 -60 108 -9 39
67 39 100 0z m-903 -100 c0 -19 -3 -37 -7 -41 -5 -4 -9 -17 -10 -29 -3 -25
-37 -184 -47 -214 -4 -14 -19 -23 -42 -27 -38 -8 -76 13 -113 60 -11 14 -23
25 -26 24 -4 -1 -20 17 -36 40 -22 30 -31 56 -36 102 -5 50 -4 60 8 56 8 -3
14 -13 15 -24 2 -46 4 -50 13 -36 6 11 14 8 35 -13 30 -30 27 -44 -9 -37 -14
2 -25 0 -25 -6 0 -14 24 -22 49 -15 15 4 21 1 21 -11 0 -19 34 -21 51 -3 7 7
24 11 38 9 17 -2 34 5 51 20 l24 23 -44 7 c-72 12 -90 18 -90 29 0 6 16 8 45
3 54 -8 95 1 95 21 0 16 -19 19 -83 16 -30 -2 -36 0 -31 13 4 10 19 16 38 17
17 0 47 11 66 24 46 31 50 31 50 -8z m1092 -370 c-7 -18 -12 -41 -12 -51 0
-28 -80 -213 -100 -231 -18 -16 -19 -15 -34 14 -18 34 -21 77 -6 86 6 3 10 14
10 24 0 10 7 25 16 32 9 7 20 22 25 34 5 11 13 27 18 35 15 25 24 54 22 73 -1
9 2 17 8 17 5 0 13 10 16 21 l7 21 21 -21 c19 -18 20 -24 9 -54z m-3404 -123
c14 -14 22 -33 22 -55 0 -19 9 -47 20 -64 11 -16 20 -36 20 -43 0 -7 9 -31 19
-53 24 -49 38 -125 22 -115 -6 4 -25 35 -42 68 -17 34 -37 68 -45 75 -8 8 -14
20 -14 26 0 7 -9 26 -21 42 l-20 30 6 -33 c4 -20 2 -38 -5 -47 -9 -11 -8 -18
5 -31 19 -19 16 -49 -5 -49 -18 0 -65 88 -50 93 15 5 12 22 -4 22 -9 0 -14 12
-14 37 0 24 -6 39 -17 46 -14 8 -15 11 -4 18 11 6 11 11 1 21 -6 6 -12 20 -12
30 0 10 -4 18 -9 18 -5 0 -7 9 -4 20 5 20 6 20 35 -1 33 -24 45 -20 29 9 -19
36 2 33 33 -5 17 -21 41 -48 54 -59z m2762 -29 c14 -9 12 -41 -5 -98 -14 -46
-13 -79 1 -156 5 -24 3 -32 -5 -27 -6 4 -11 17 -11 30 0 34 -10 38 -32 13 -16
-18 -19 -19 -14 -4 3 10 -2 29 -11 43 -14 22 -14 32 -3 79 7 29 10 71 7 93
l-7 39 35 -3 c19 -1 39 -5 45 -9z m136 -70 c8 -11 14 -11 22 -3 9 9 16 2 28
-27 14 -34 14 -42 1 -79 -8 -23 -18 -52 -21 -66 -3 -14 -15 -31 -26 -38 -31
-19 -45 2 -48 77 -1 35 -6 69 -11 75 -5 6 -12 29 -17 50 l-7 39 34 -7 c19 -3
39 -13 45 -21z m273 -117 c20 -12 53 -39 74 -60 21 -21 56 -50 78 -63 21 -14
45 -34 51 -45 7 -11 21 -20 30 -20 10 0 18 -4 18 -9 0 -5 9 -13 20 -16 11 -4
26 -17 33 -30 13 -26 76 -77 86 -70 4 2 8 39 10 81 1 43 5 82 8 87 6 10 58
-61 66 -91 3 -13 3 -21 0 -18 -4 3 -13 -3 -21 -15 -8 -11 -19 -18 -26 -16 -7
3 -11 -9 -10 -37 1 -41 36 -122 76 -178 23 -34 9 -36 -38 -7 -19 11 -42 18
-52 15 -32 -10 -65 28 -66 77 -2 53 -10 67 -36 60 -13 -4 -20 0 -20 9 0 10
-10 13 -35 10 -29 -4 -34 -1 -29 12 3 9 14 16 24 16 11 0 22 5 25 10 7 12 -14
21 -53 25 -33 2 -62 14 -62 25 0 9 40 25 53 22 13 -4 7 19 -10 37 -18 18 -90
34 -95 20 -2 -3 -14 -10 -28 -14 -25 -8 -25 -7 -7 13 18 20 18 20 -20 18 -21
-1 -51 -10 -66 -21 l-29 -18 22 38 c20 36 21 40 5 51 -9 7 -24 10 -33 7 -16
-6 28 50 53 69 17 12 1 17 -35 9 -23 -4 -30 -10 -22 -15 17 -10 6 -26 -19 -26
-24 0 -24 12 1 35 11 10 20 24 20 32 0 19 17 16 59 -9z m906 -28 c-4 -13 -1
-22 9 -26 9 -3 16 -14 16 -24 0 -23 17 -35 23 -18 2 7 7 10 11 7 3 -3 -4 -25
-15 -49 -17 -34 -19 -48 -10 -62 15 -24 14 -55 -4 -115 -12 -40 -21 -52 -41
-57 -13 -4 -29 -4 -34 -1 -6 4 -10 -5 -10 -18 0 -13 -13 -41 -29 -61 -16 -21
-31 -42 -33 -48 -2 -6 -21 -12 -42 -13 -34 -2 -41 -7 -57 -40 -10 -20 -23 -42
-28 -49 -14 -17 -73 -127 -69 -129 44 -23 66 -40 78 -61 14 -24 13 -29 -2 -57
l-18 -30 45 -19 c53 -23 79 -57 69 -94 -6 -26 -9 -27 -53 -21 -111 15 -246 14
-288 -2 -24 -9 -43 -20 -43 -24 0 -5 -12 -9 -26 -9 -19 0 -25 4 -20 15 6 17
-9 21 -19 5 -3 -6 -17 -7 -30 -4 -12 3 -26 1 -29 -5 -4 -6 -2 -11 5 -11 6 0 0
-9 -14 -20 -42 -33 -63 -24 -29 13 17 20 16 20 -41 14 -38 -4 -63 -12 -71 -22
-7 -9 -20 -15 -30 -13 -11 1 -21 -3 -23 -9 -3 -9 6 -13 26 -13 17 0 31 -4 31
-9 0 -19 -33 -20 -83 -3 -51 17 -54 20 -87 92 -6 14 -22 45 -36 68 -13 24 -22
47 -19 51 2 5 41 23 87 41 45 18 91 41 101 51 11 10 53 30 93 45 41 15 74 31
74 35 0 5 14 8 31 7 24 -2 36 4 51 25 16 22 27 27 62 27 47 0 83 -27 73 -55
-4 -10 -1 -15 10 -15 9 0 14 3 10 6 -12 12 31 46 51 40 16 -5 21 2 32 51 13
58 13 58 22 26 5 -18 12 -33 16 -33 14 0 93 134 87 147 -2 8 -9 12 -13 9 -5
-3 -7 6 -4 19 5 29 -22 36 -32 9 -3 -9 -13 -14 -21 -10 -8 3 -17 1 -20 -4 -4
-6 -11 -10 -16 -10 -6 0 -7 5 -4 10 3 6 -3 10 -14 10 -10 0 -31 14 -45 31 -50
59 -47 115 9 148 25 14 35 27 35 45 0 29 22 54 56 62 23 6 44 51 44 97 0 9 5
17 11 17 8 0 10 -18 5 -59 -6 -53 -5 -61 13 -70 27 -15 26 -16 29 37 4 89 13
112 43 112 11 0 33 7 50 16 16 8 38 12 49 9 10 -3 21 -1 25 5 11 18 27 11 20
-10z m-4481 -1669 c-4 -20 -2 -30 10 -34 10 -4 16 -1 16 9 0 8 5 12 10 9 9 -6
15 -45 7 -45 -2 0 -26 11 -53 25 -27 14 -52 25 -56 25 -16 0 -7 -19 10 -24 31
-10 79 -64 86 -97 3 -17 12 -45 20 -62 25 -56 29 -71 32 -116 4 -53 -11 -44
-24 14 -5 22 -11 47 -13 55 -2 8 -13 19 -24 26 -11 6 -19 16 -18 22 4 18 -15
62 -27 62 -16 0 -12 -56 5 -70 20 -16 46 -70 39 -81 -9 -15 -21 -10 -45 16
-13 13 -32 25 -41 25 -10 0 -18 7 -18 15 0 8 6 15 13 15 7 0 12 12 11 28 -1
37 -11 53 -29 45 -10 -3 -15 1 -15 11 0 12 6 15 25 10 21 -5 25 -3 25 15 0 19
-3 20 -20 11 -16 -9 -20 -8 -21 7 -1 10 -1 21 0 26 0 4 -4 7 -9 7 -6 0 -10 -9
-10 -20 0 -11 -4 -20 -10 -20 -14 0 -23 45 -16 75 7 27 26 34 26 10 0 -8 7
-15 16 -15 12 0 15 7 12 25 -5 24 -3 25 43 25 48 0 48 0 43 -29z m492 11 c6
-4 10 -23 9 -44 -1 -27 2 -35 12 -31 17 7 44 -27 38 -46 -9 -24 19 -95 47
-123 15 -14 28 -34 28 -45 0 -15 -3 -15 -21 7 -19 23 -20 23 -14 4 3 -12 6
-43 7 -68 0 -25 5 -46 10 -46 6 0 8 7 4 15 -7 20 8 19 28 -1 18 -17 21 -44 6
-44 -5 0 -10 4 -10 10 0 5 -6 7 -14 4 -7 -3 -13 -11 -13 -17 1 -34 -5 -46 -25
-49 -15 -2 -22 -9 -20 -20 2 -13 -2 -16 -13 -11 -13 4 -16 0 -15 -18 4 -41 1
-49 -16 -42 -16 6 -16 7 0 -69 4 -15 1 -28 -5 -30 -9 -3 -9 -10 0 -26 6 -12 8
-22 3 -22 -19 0 -33 29 -32 66 0 22 -3 68 -6 104 -5 58 1 83 9 34 3 -25 16
-44 28 -44 12 0 12 45 0 68 -31 61 -47 122 -31 122 13 0 21 32 10 44 -6 9 -5
19 6 34 12 18 12 25 2 42 -7 11 -16 20 -19 20 -4 0 -9 10 -12 23 -2 12 -8 30
-12 40 -6 14 -3 16 11 11 18 -5 17 -4 -1 10 -11 9 -25 14 -31 12 -15 -6 -24
16 -24 57 0 29 1 30 14 12 8 -11 12 -24 10 -30 -2 -5 6 -15 19 -21 21 -9 22
-8 19 25 -6 66 -12 83 -27 77 -8 -3 -15 -1 -15 4 0 12 40 13 56 2z m-141 -99
c3 -16 10 -47 15 -71 12 -51 13 -82 2 -82 -4 0 -6 -15 -4 -34 3 -27 8 -33 21
-29 13 5 13 3 -2 -8 -10 -9 -19 -29 -19 -47 -1 -18 -5 -32 -9 -32 -9 0 -24 41
-20 55 5 19 -10 75 -25 90 -9 8 -11 15 -5 15 6 0 11 5 11 11 0 5 -4 7 -10 4
-5 -3 -10 -2 -10 4 0 5 6 12 13 15 9 5 9 7 0 12 -7 3 -11 15 -9 27 3 12 8 39
11 60 7 44 32 50 40 10z m-57 -182 c2 -14 -5 -31 -17 -42 -19 -18 -28 -39 -16
-39 3 0 15 10 26 21 26 26 36 14 35 -40 -1 -26 3 -37 11 -34 13 5 27 -18 37
-59 4 -17 2 -28 -4 -28 -5 0 -10 11 -10 24 0 13 -7 29 -16 37 -27 22 -6 -42
22 -68 27 -25 31 -38 9 -29 -8 3 -15 1 -15 -4 0 -6 5 -10 10 -10 6 0 10 -5 10
-11 0 -5 -4 -7 -10 -4 -15 9 -12 -27 5 -68 22 -54 20 -76 -5 -44 -11 14 -20
30 -20 36 0 6 -4 11 -9 11 -5 0 -24 16 -42 35 -37 38 -51 44 -43 18 3 -10 -2
-7 -10 7 -8 14 -15 44 -16 68 0 24 -5 53 -11 65 -9 16 -9 22 0 25 16 5 14 22
-3 22 -10 0 -17 17 -21 55 -8 60 0 86 11 39 11 -47 44 -75 44 -39 0 9 6 18 13
21 17 6 18 34 3 53 -8 10 -6 12 9 10 12 -3 21 -14 23 -28z m1767 -1581 c4 -6
11 -8 16 -5 5 4 9 1 9 -4 0 -6 -4 -11 -9 -11 -5 0 -8 -74 -6 -167 2 -147 4
-168 19 -171 9 -2 16 -9 16 -16 0 -16 -38 -56 -53 -56 -15 0 -42 -30 -42 -47
0 -23 -20 -19 -23 5 -3 18 -8 21 -30 17 -15 -3 -21 -2 -14 1 14 7 16 34 2 34
-5 0 -10 5 -10 10 0 6 7 10 15 10 8 0 15 6 15 14 0 19 -32 30 -42 14 -5 -9 -8
-10 -8 -1 0 6 5 15 10 18 12 7 14 46 2 42 -4 -1 -8 1 -10 6 -6 18 0 27 17 27
28 0 37 20 12 27 -26 7 -28 23 -3 23 10 0 19 7 19 15 0 18 -2 18 -27 5 -15 -8
-20 -6 -25 11 -9 26 14 72 32 64 47 -19 48 -18 26 7 -13 13 -23 30 -23 36 0 7
-4 12 -10 12 -5 0 -10 5 -10 10 0 6 9 10 19 10 11 0 21 6 24 13 3 9 8 8 22 -3
17 -14 18 -13 13 8 -6 22 6 31 17 12 3 -5 12 -10 18 -9 9 0 9 2 0 6 -18 7 -16
43 1 43 8 0 18 -5 21 -10z m2575 -92 c32 -31 53 -60 51 -71 -1 -9 12 -47 29
-83 29 -63 30 -67 14 -85 -20 -23 -34 -24 -34 -4 0 7 -8 18 -17 24 -15 8 -16
12 -4 23 11 10 14 10 18 1 5 -14 33 -18 33 -5 0 28 -73 45 -83 20 -3 -9 -14
-3 -31 16 -15 16 -23 33 -18 38 13 13 42 -2 42 -20 0 -12 3 -13 12 -4 9 9 7
16 -6 31 -13 15 -16 28 -11 51 6 26 2 37 -21 61 -23 24 -40 59 -30 59 2 0 27
-24 56 -52z m-4700 -1491 c0 -25 17 -47 35 -47 7 0 12 6 12 14 0 7 -7 13 -15
12 -25 -2 -24 21 0 29 41 13 48 13 42 3 -4 -6 0 -15 7 -20 9 -6 10 -11 3 -14
-16 -7 -5 -54 11 -48 8 3 17 -8 24 -27 14 -42 14 -44 -6 -28 -15 12 -16 12 -9
-6 5 -11 10 -41 11 -67 3 -44 1 -47 -15 -38 -10 6 -32 10 -49 10 -21 0 -31 5
-31 16 0 9 5 12 13 8 17 -11 -11 25 -43 54 l-25 23 28 -6 c21 -4 28 -2 25 7
-3 7 -15 12 -26 10 -15 -2 -22 2 -22 12 0 9 7 16 16 16 18 0 75 -30 86 -45 5
-6 8 -4 8 5 0 8 -15 21 -32 29 -56 24 -75 46 -70 86 5 39 22 48 22 12z m517
-672 c-1 -12 5 -21 16 -23 16 -3 18 0 12 20 -7 22 -6 22 23 -6 26 -24 29 -31
19 -47 -7 -11 -18 -17 -25 -14 -9 3 -10 0 -2 -15 5 -10 14 -21 19 -24 5 -3 2
-24 -5 -47 -13 -36 -13 -43 3 -70 10 -16 23 -29 29 -29 7 0 14 -6 17 -12 6
-19 -11 -48 -28 -48 -8 0 -15 -7 -15 -15 0 -8 -4 -15 -10 -15 -5 0 -10 -7 -10
-15 0 -8 -4 -15 -10 -15 -5 0 -10 5 -10 11 0 6 -9 8 -21 4 l-22 -7 20 22 c13
13 19 30 16 43 -3 13 -1 18 4 12 4 -5 16 -11 26 -13 15 -3 17 1 12 20 -4 13
-12 28 -17 33 -7 7 -8 3 -4 -12 5 -17 3 -22 -11 -21 -10 0 -26 -3 -35 -7 -21
-8 -34 15 -23 43 6 16 7 16 16 -1 11 -20 29 -14 29 10 0 11 -8 14 -30 11 -29
-4 -34 1 -31 29 2 16 -34 34 -53 27 -12 -5 -15 -2 -10 10 8 20 41 39 54 31 6
-3 10 -1 10 6 0 7 -10 9 -29 6 -19 -4 -31 -2 -34 7 -9 22 8 36 36 31 20 -4 27
-1 27 10 0 8 -4 15 -10 15 -5 0 -10 8 -9 18 1 37 34 -32 34 -72 0 -22 5 -41
13 -43 7 -3 10 1 6 11 -4 9 -1 16 6 16 8 0 10 7 5 18 -4 9 -8 26 -11 36 -3 16
-24 46 -54 76 -3 3 -11 13 -19 22 -12 17 -11 17 18 12 26 -5 31 -3 31 12 0 16
3 16 20 -6 10 -14 18 -34 17 -45z"/>
<path d="M4839 8258 c-15 -30 -32 -40 -40 -26 -4 6 -10 -15 -14 -47 -5 -40 -4
-64 5 -78 6 -11 13 -61 15 -111 3 -104 12 -114 70 -74 25 16 33 28 29 41 -3
10 -1 31 4 45 6 15 13 44 17 65 7 44 19 46 51 12 45 -49 56 -84 27 -86 -14 0
-15 -2 -3 -6 8 -4 20 -13 27 -22 10 -14 12 -10 13 20 0 29 5 38 21 42 24 6 20
33 -4 31 -10 -1 -22 14 -31 37 -11 26 -22 39 -35 39 -11 0 -22 6 -24 13 -4 9
-6 8 -6 -2 -1 -8 -10 -3 -22 13 -13 17 -19 36 -16 51 2 14 0 25 -4 25 -5 0 -9
6 -9 14 0 14 -21 26 -45 26 -8 0 -20 -10 -26 -22z"/>
<path d="M2555 4331 c-3 -6 -10 -9 -14 -7 -4 3 -19 -6 -34 -20 -20 -19 -27
-21 -27 -9 0 8 -7 15 -15 15 -8 0 -15 -4 -15 -10 0 -5 -9 -10 -20 -10 -11 0
-20 4 -20 10 0 5 -7 7 -15 4 -8 -4 -12 -10 -9 -15 3 -5 -2 -9 -10 -9 -9 0 -16
-4 -16 -10 0 -5 12 -10 26 -10 23 0 25 -3 19 -27 -5 -23 -4 -25 10 -13 8 7 34
13 58 14 33 1 42 5 41 19 -1 9 2 17 7 17 5 0 9 -7 9 -15 0 -8 7 -15 16 -15 8
0 13 4 9 9 -3 5 -1 12 5 16 5 3 10 1 10 -4 0 -6 11 -11 25 -11 14 0 25 5 25
10 0 6 -7 10 -15 10 -8 0 -15 5 -15 10 0 16 27 12 45 -6 15 -15 17 -15 30 2
15 21 11 34 -10 34 -7 0 -15 4 -17 9 -5 15 -75 24 -83 12z"/>
<path d="M4168 4242 c-10 -2 -18 -8 -18 -13 0 -6 -10 -7 -22 -4 -18 6 -20 5
-11 -5 13 -15 6 -40 -11 -40 -7 0 -12 10 -12 23 1 15 -4 22 -16 21 -10 -1 -18
3 -18 10 -1 6 -10 0 -21 -13 -17 -21 -22 -22 -29 -11 -12 20 -32 0 -33 -34 -2
-19 -6 -24 -19 -20 -9 2 -19 0 -23 -6 -3 -5 1 -10 10 -10 11 0 15 -5 11 -15
-7 -20 4 -19 20 2 20 29 26 8 7 -26 -20 -35 -48 -37 -47 -3 0 12 -2 22 -5 22
-17 -1 -46 -27 -46 -40 0 -8 -6 -14 -12 -12 -18 3 -16 -4 8 -27 14 -13 17 -21
9 -26 -7 -4 -17 -2 -23 4 -15 15 -27 14 -27 -3 0 -8 -6 -16 -14 -18 -25 -5 8
-65 49 -89 25 -15 35 -28 35 -45 0 -13 0 -27 1 -31 0 -4 -4 -9 -10 -11 -6 -2
-11 3 -11 12 0 9 -4 16 -10 16 -5 0 -12 11 -16 25 -5 22 -15 29 -36 26 -3 0
-11 14 -17 31 l-11 32 -22 -21 c-17 -18 -19 -25 -9 -37 18 -21 16 -92 -3 -121
-20 -30 -20 -35 0 -35 8 0 12 5 9 10 -3 6 3 22 15 37 15 19 19 35 15 55 -4 17
-2 28 4 28 6 0 11 -4 11 -10 0 -5 5 -10 11 -10 19 0 40 -30 34 -49 -3 -11 1
-24 11 -32 13 -11 18 -11 21 -1 6 17 23 15 23 -3 0 -8 -5 -15 -10 -15 -12 0
-4 -42 17 -85 15 -31 25 -76 24 -110 0 -11 9 -27 19 -37 14 -14 18 -26 13 -48
-3 -18 0 -36 8 -46 13 -16 28 -41 50 -81 7 -13 18 -23 25 -23 6 0 14 -7 18
-15 3 -8 12 -15 21 -15 8 0 15 -4 15 -10 0 -5 7 -10 15 -10 8 0 14 6 12 13 -1
6 5 11 14 9 9 -1 24 9 33 22 15 24 15 26 -7 37 -29 16 -28 14 -21 33 8 20 34
21 34 2 0 -15 76 -34 87 -22 4 3 -1 6 -9 6 -9 0 -18 7 -22 15 -3 9 0 15 9 15
9 0 12 6 9 15 -9 22 -23 18 -33 -7 -6 -16 -10 -18 -16 -9 -4 8 -2 16 5 21 9 6
9 12 1 29 -7 11 -10 21 -9 22 24 7 45 3 41 -7 -3 -8 5 -16 19 -19 13 -3 28
-16 33 -28 13 -29 63 -53 78 -38 8 8 8 11 -1 11 -7 0 -12 7 -12 16 0 11 6 14
23 10 12 -3 17 -3 10 0 -17 8 -4 34 16 34 27 0 33 12 14 32 -9 10 -17 28 -18
41 -1 14 -8 21 -19 21 -9 -1 -16 2 -16 7 0 12 37 11 45 -1 7 -12 45 -14 45 -2
0 8 -35 24 -92 42 -51 15 -62 35 -16 26 23 -4 40 -1 53 8 19 14 18 15 -10 14
-17 -1 -42 5 -55 12 l-24 13 24 9 25 10 -30 15 c-17 8 -35 26 -42 39 -10 21
-9 24 1 14 10 -8 15 -7 20 5 3 8 14 15 25 15 17 0 18 5 14 40 -4 26 -2 40 6
40 6 0 11 -5 11 -10 0 -7 7 -7 20 0 11 6 18 15 15 20 -3 4 11 18 30 30 20 12
34 27 32 34 -3 6 3 19 11 29 13 15 14 20 3 26 -11 7 -11 9 0 14 18 6 -3 30
-28 32 -27 2 -43 14 -43 32 0 12 3 13 15 3 11 -9 19 -8 37 4 15 10 17 16 8 16
-8 0 -26 14 -40 31 l-26 30 -23 -20 c-32 -28 -34 -27 -15 17 24 56 28 70 16
53 -6 -8 -17 -11 -25 -8 -8 3 -20 0 -26 -6 -9 -9 -13 -6 -17 10 -6 23 -31 36
-74 38 -14 1 -27 3 -30 5 -9 5 -45 6 -62 2z"/>
<path d="M3364 3380 c-54 -24 -109 -108 -101 -156 3 -17 2 -36 -3 -40 -4 -5
-5 -27 -1 -49 5 -31 11 -41 29 -43 12 -2 22 -8 22 -13 0 -6 5 -7 11 -4 7 5 4
14 -7 26 -24 27 -12 33 31 15 76 -32 127 -15 150 52 8 25 15 60 15 77 0 17 5
36 11 42 9 9 9 20 -1 42 -7 17 -16 31 -21 31 -5 0 -9 6 -9 14 0 7 -14 16 -31
20 -42 8 -48 7 -95 -14z"/>
<path d="M3134 2071 c3 -5 -4 -11 -17 -15 -39 -10 -73 -48 -73 -81 1 -37 22
-75 41 -75 8 0 15 -4 15 -9 0 -7 51 -31 66 -31 10 0 2 29 -8 34 -10 3 -9 8 4
18 9 8 19 30 23 49 5 28 2 38 -14 53 -23 21 -19 38 7 30 12 -4 10 1 -7 15 -23
21 -47 29 -37 12z"/>
</g>
</svg>
