<?xml version="1.0" standalone="no"?>
<!DOCTYPE svg PUBLIC "-//W3C//DTD SVG 20010904//EN"
 "http://www.w3.org/TR/2001/REC-SVG-20010904/DTD/svg10.dtd">
<svg version="1.0" xmlns="http://www.w3.org/2000/svg"
 width="480.000000pt" height="640.000000pt" viewBox="0 0 480.000000 640.000000"
 preserveAspectRatio="xMidYMid meet">
<metadata>
Created by potrace 1.16, written by Peter Selinger 2001-2019
</metadata>
<g transform="translate(0.000000,640.000000) scale(0.100000,-0.100000)"
fill="#000000" stroke="none">
<path d="M0 6305 l0 -95 24 6 c13 3 27 1 31 -6 9 -15 4 -20 -27 -22 l-26 -2
-1 -261 -1 -260 39 -32 c22 -18 51 -38 65 -44 14 -7 26 -16 26 -21 0 -10 -30
4 -88 44 l-43 29 2 -80 c2 -69 5 -83 23 -96 53 -37 61 -46 49 -53 -8 -5 -9
-13 -3 -22 7 -12 12 -12 22 -2 17 17 28 15 28 -7 0 -19 -25 -35 -40 -26 -5 3
-12 0 -16 -6 -4 -7 -18 11 -35 47 l-27 59 -1 -82 c-1 -49 3 -83 9 -83 6 0 10
-5 10 -11 0 -5 -4 -7 -10 -4 -5 3 -10 1 -10 -4 0 -10 30 -48 71 -90 27 -28 49
-70 40 -76 -17 -10 -58 13 -85 47 l-26 33 0 -1762 c0 -1164 3 -1764 10 -1768
6 -3 10 -12 10 -18 0 -7 -4 -6 -10 3 -7 10 -10 -7 -10 -56 0 -55 4 -73 15 -78
19 -7 19 -45 0 -52 -13 -5 -15 -84 -15 -629 l0 -623 41 9 c56 13 57 7 4 -20
l-45 -22 0 -85 0 -84 53 0 c54 0 77 12 77 40 0 13 -2 13 -11 0 -8 -11 -9 -7
-4 17 5 26 4 32 -8 27 -8 -3 -17 2 -21 11 -3 9 -2 13 4 10 6 -3 10 4 10 15 0
12 9 33 20 47 l20 26 0 -34 c0 -28 2 -31 13 -16 11 15 14 14 33 -8 12 -13 19
-27 15 -31 -3 -4 0 -4 7 0 9 6 12 22 8 57 -3 26 -1 51 4 54 6 4 10 -6 10 -22
1 -27 1 -27 15 -9 15 20 15 20 16 0 0 -14 4 -12 14 11 l13 30 10 -24 c7 -20 4
-29 -15 -47 -20 -18 -22 -26 -14 -47 7 -17 7 -28 1 -32 -6 -4 -10 -14 -10 -24
0 -23 -23 -44 -36 -32 -5 6 -14 4 -22 -5 -19 -21 284 -21 307 0 14 13 21 13
50 -1 31 -16 34 -16 46 1 12 15 14 15 28 1 9 -8 32 -15 51 -15 38 0 41 6 38
78 -1 14 4 22 11 19 16 -5 40 20 32 33 -3 5 -1 10 5 10 6 0 9 4 5 9 -3 5 6 22
21 38 17 19 27 24 31 16 6 -17 23 -16 23 1 0 8 13 19 30 24 26 10 31 8 42 -11
7 -14 13 -17 16 -9 2 6 9 12 14 12 6 0 8 -3 5 -6 -3 -4 -2 -15 4 -25 6 -13 6
-19 -1 -19 -5 0 -10 5 -10 10 0 6 -9 10 -20 10 -28 0 -25 -19 5 -30 25 -9 25
-11 11 -44 -8 -19 -12 -37 -10 -40 2 -3 1 -4 -3 -1 -3 3 -15 -3 -26 -12 -11
-10 -17 -12 -13 -5 12 20 0 14 -40 -23 l-39 -34 1993 -1 1992 0 0 205 c0 178
-2 204 -15 199 -8 -4 -15 -12 -15 -20 0 -9 -11 -14 -30 -14 -24 0 -31 -5 -36
-27 -10 -47 -12 -51 -38 -68 -31 -21 -76 -9 -92 24 -8 16 -14 19 -19 11 -6 -9
-10 -9 -16 1 -6 9 -3 18 8 26 9 7 21 44 30 95 32 186 38 208 54 208 5 0 9 -7
9 -15 0 -8 3 -15 8 -15 7 0 24 -33 43 -87 13 -40 27 -42 34 -6 4 16 11 36 16
46 13 23 -7 42 -79 77 -28 14 -53 32 -55 40 -3 8 -5 4 -6 -10 -2 -42 -13 -70
-26 -70 -19 0 -51 33 -36 38 16 5 14 32 -3 32 -25 0 -73 -113 -105 -250 -18
-74 -38 -142 -44 -151 -29 -38 -102 -58 -104 -28 -1 12 9 22 31 29 31 10 34
15 38 60 3 28 12 58 20 68 9 9 19 31 23 49 4 19 14 35 26 38 10 4 20 14 21 23
0 9 2 28 3 42 1 14 10 43 19 64 18 44 15 66 -9 66 -8 0 -15 4 -15 10 0 5 -8 7
-17 4 -10 -3 -3 8 16 25 l35 31 -45 19 c-25 11 -53 29 -63 40 -46 51 -161 21
-200 -53 -10 -19 -23 -33 -28 -30 -4 3 -5 11 -1 17 17 29 -31 -20 -64 -65 -55
-75 -253 -447 -253 -475 0 -7 -5 -13 -11 -13 -16 0 -9 256 9 302 7 21 12 43
10 50 -5 14 25 63 87 146 47 62 102 95 237 143 54 19 98 36 98 39 0 3 -20 26
-44 53 -40 42 -48 47 -87 47 -54 0 -270 -26 -322 -39 -20 -5 -37 -7 -37 -4 0
2 12 20 27 40 29 38 46 47 142 74 60 16 69 16 110 2 25 -8 54 -20 64 -25 16
-8 17 -7 8 10 -5 10 -17 24 -25 32 -9 7 -16 21 -16 32 0 11 -4 27 -9 37 -8 15
-2 14 42 -7 74 -35 85 -47 107 -122 11 -36 30 -75 42 -87 23 -20 135 -83 148
-83 19 0 -29 161 -58 193 -17 19 -16 20 43 12 33 -4 62 -9 65 -11 2 -3 -4 -35
-13 -72 -20 -78 -21 -111 -4 -132 25 -32 83 -68 122 -75 46 -8 65 -21 65 -44
0 -21 53 -53 73 -45 10 3 20 -3 26 -15 14 -26 45 -43 65 -35 13 5 16 23 16 89
0 75 -2 84 -20 90 -11 3 -24 3 -30 0 -14 -9 -100 64 -94 80 6 14 -45 55 -68
55 -8 0 -18 4 -23 9 -6 5 -21 11 -34 13 -22 3 -25 8 -25 48 -1 41 1 45 24 45
14 1 44 4 67 9 28 5 49 3 64 -5 17 -9 24 -9 27 0 2 6 12 11 23 11 20 0 19 3
23 -120 1 -19 -3 -38 -7 -41 -4 -3 -1 -12 8 -19 13 -10 15 -9 16 6 1 11 1 22
0 27 -2 12 16 8 29 -8 7 -9 15 -13 18 -10 3 3 -3 14 -14 26 -14 15 -15 20 -4
17 12 -2 16 12 18 75 2 59 0 77 -11 77 -7 0 -17 -4 -22 -9 -18 -16 -72 0 -83
25 -15 32 -1 38 53 19 25 -8 50 -15 56 -15 6 0 9 23 7 58 -2 31 -8 57 -13 57
-6 0 -23 10 -38 22 -27 21 -27 22 -6 28 11 4 26 2 32 -4 23 -23 27 -7 27 109
0 89 -3 120 -12 121 -7 1 -29 3 -48 5 l-35 2 27 -14 c19 -10 28 -23 28 -40 0
-21 -3 -24 -26 -18 -17 4 -34 0 -52 -12 -15 -11 -44 -28 -65 -39 -47 -25 -62
-42 -71 -80 l-7 -29 23 19 c13 11 17 13 11 5 -17 -19 -16 -65 1 -79 8 -7 13
-23 11 -36 -1 -14 4 -30 11 -36 8 -6 12 -15 9 -19 -2 -4 5 -17 16 -28 11 -12
16 -22 11 -22 -5 0 -21 18 -36 40 -15 23 -35 51 -46 63 -67 78 -89 112 -75
115 8 2 15 7 15 12 0 5 12 16 28 24 l27 15 -23 7 c-14 4 -21 12 -18 20 3 8 0
11 -10 7 -7 -3 -14 0 -14 6 0 6 5 11 10 11 6 0 10 8 10 18 0 11 8 26 18 35 30
27 38 19 11 -10 -20 -23 -16 -21 29 10 60 43 66 44 59 17 -8 -31 7 -23 20 10
8 20 17 29 30 28 10 -2 19 1 20 7 1 5 10 12 20 16 12 5 4 8 -24 8 -32 1 -43 5
-43 17 0 19 60 18 102 -3 24 -11 27 -11 22 1 -3 8 -1 23 5 34 9 17 5 25 -21
51 -18 17 -37 31 -42 31 -8 0 -8 -3 0 -8 9 -6 44 -68 44 -79 0 -1 -26 -2 -57
-2 -84 3 -124 -11 -150 -50 -13 -19 -21 -36 -19 -39 3 -2 24 12 47 32 24 20
46 36 50 36 13 0 18 -29 6 -38 -20 -16 -141 -62 -147 -56 -9 10 -9 184 1 190
6 4 5 12 -4 22 -15 18 -22 93 -33 377 -5 146 -17 225 -32 225 -5 0 -14 -6 -20
-12 -10 -10 -15 -10 -22 2 -14 22 -12 33 5 26 21 -8 18 14 -5 44 -26 34 -25
43 5 36 30 -8 32 3 5 34 -14 16 -17 27 -10 35 6 8 5 27 -3 56 l-14 44 -7 -50
c-4 -27 -6 -66 -5 -85 3 -65 -14 -300 -22 -300 -4 0 -33 40 -65 90 -31 49 -60
90 -65 90 -5 0 -12 18 -15 40 -4 24 -12 40 -20 40 -9 0 -14 12 -14 35 0 19 -4
35 -10 35 -5 0 -7 13 -3 30 4 23 2 30 -10 30 -9 0 -19 -5 -22 -10 -9 -14 -22
-12 -28 4 -3 8 3 26 15 41 11 14 17 32 14 40 -3 8 5 23 19 33 13 11 21 22 18
26 -3 3 -1 6 6 6 7 0 19 16 27 35 19 46 18 57 -3 46 -10 -5 -26 -12 -36 -15
-10 -3 -25 -19 -35 -36 -9 -17 -30 -45 -45 -63 -16 -18 -37 -49 -48 -70 -27
-52 -46 -48 -54 13 -4 28 -11 50 -17 50 -6 0 -8 -6 -5 -14 3 -8 -1 -20 -9 -26
-8 -7 -14 -18 -14 -26 0 -28 -83 -125 -112 -131 -21 -4 -28 -11 -28 -29 0 -39
-17 -27 -31 21 -7 25 -17 45 -21 45 -17 0 -90 -133 -112 -204 -4 -10 -9 -17
-11 -14 -10 10 -6 179 4 192 6 7 8 16 5 19 -3 3 15 26 41 51 45 44 46 47 43
98 -3 50 -5 53 -33 58 l-30 6 30 6 c27 6 34 15 54 72 26 73 115 182 129 159
12 -19 46 9 76 63 14 26 26 48 26 49 0 7 -61 26 -72 22 -7 -2 -35 5 -63 15
-27 11 -77 26 -110 34 l-60 14 80 -6 c44 -3 92 -6 108 -7 15 -1 27 -5 27 -8 0
-14 32 -18 44 -6 11 10 11 18 0 50 -7 21 -20 47 -28 58 -13 19 -12 25 6 55
l20 33 23 -22 c12 -12 27 -31 33 -42 11 -19 11 -19 12 2 0 30 23 113 30 113 4
0 3 -30 -2 -67 -5 -46 -14 -72 -25 -82 -12 -8 -14 -15 -7 -18 13 -4 7 -43 -7
-43 -14 0 -10 -33 6 -54 13 -17 18 -18 52 -7 21 7 54 11 72 9 31 -3 38 -9 65
-65 17 -35 42 -68 57 -77 33 -19 39 -20 39 -3 0 6 7 24 14 40 15 27 11 32 -22
28 -14 -2 -28 26 -18 37 4 3 11 0 17 -8 6 -10 12 -11 17 -5 10 15 69 18 77 4
5 -7 1 -16 -9 -21 -11 -6 -16 -23 -16 -53 0 -25 -5 -45 -12 -48 -8 -3 -7 -6 4
-6 9 -1 20 4 23 9 4 6 35 9 75 6 43 -2 70 0 73 7 5 17 40 17 58 1 13 -11 22
-13 36 -6 22 12 138 42 161 42 13 0 11 -4 -6 -16 -18 -12 -20 -19 -12 -29 22
-26 1 -50 -70 -79 -38 -17 -70 -35 -70 -42 0 -43 52 -75 145 -88 69 -11 49 4
-48 35 -60 19 -77 28 -64 34 19 8 93 -3 83 -12 -3 -3 20 -16 51 -29 53 -22 57
-22 69 -6 19 25 19 26 -36 53 -47 22 -50 26 -37 44 10 13 27 19 51 19 l36 0 0
59 0 59 -32 -4 c-28 -5 -29 -4 -13 9 11 7 25 13 32 13 10 0 13 39 13 189 l-1
190 -37 -16 c-20 -8 -46 -20 -57 -26 -19 -10 -19 -10 0 -18 12 -5 14 -8 5 -8
-8 0 -24 4 -35 9 -18 7 -16 10 17 24 20 9 39 20 42 25 3 4 19 11 36 14 29 6
43 36 18 38 -7 0 -31 9 -53 20 l-40 19 37 -4 c26 -3 41 0 52 13 22 25 20 28
-14 23 -39 -6 -39 14 0 23 24 5 30 12 30 34 0 15 -5 32 -12 39 -9 9 -9 12 2
12 7 0 -5 18 -28 40 -29 29 -49 40 -71 40 -17 0 -31 5 -31 10 0 17 56 15 77
-2 7 -5 22 -8 35 -6 l23 3 2 469 3 468 -25 -6 c-14 -3 -36 -9 -50 -12 -24 -6
-25 -5 -25 46 0 46 2 51 15 40 8 -7 15 -21 15 -32 0 -17 3 -18 15 -8 12 10 16
9 21 -4 5 -13 8 -13 20 -1 9 9 14 37 14 82 l0 68 -30 1 c-43 2 -46 9 -16 44
14 17 26 40 26 50 0 10 5 22 10 25 16 10 13 335 -2 335 -10 0 -10 2 -1 8 9 6
12 46 12 141 l-1 133 -19 -28 c-10 -16 -24 -44 -30 -62 -6 -18 -14 -30 -19
-27 -5 3 -10 0 -12 -7 -2 -6 -10 -8 -16 -4 -18 11 -15 24 5 22 14 -1 20 12 28
58 9 52 14 61 38 69 27 9 27 10 27 98 0 49 -2 89 -5 89 -3 0 -23 -11 -45 -25
-44 -28 -59 -31 -61 -12 -5 46 -7 55 -13 65 -4 7 11 20 38 32 35 17 49 19 65
10 20 -10 21 -8 21 35 l0 45 -48 -24 c-55 -28 -125 -96 -99 -96 13 0 14 -5 5
-30 -5 -17 -21 -39 -34 -49 -13 -10 -24 -22 -24 -26 0 -4 7 -1 17 6 14 12 16
12 11 -1 -6 -18 -44 -20 -41 -2 2 6 -1 12 -6 12 -5 0 -11 9 -14 21 l-6 20 -20
-20 c-12 -12 -21 -24 -21 -27 0 -3 -11 -15 -25 -26 -24 -18 -36 -46 -15 -33
14 9 13 -8 -2 -23 -15 -15 -32 -16 -22 -1 4 8 1 8 -14 0 -23 -12 -20 -41 4
-41 8 0 14 -4 14 -10 0 -5 8 -6 17 -3 13 5 15 2 10 -11 -5 -14 -3 -17 8 -13
11 5 14 0 11 -22 -2 -15 -6 -33 -10 -39 -9 -14 -39 -11 -60 7 -9 7 -16 10 -16
6 0 -4 -7 -2 -15 5 -9 7 -18 10 -22 6 -3 -3 -1 -6 5 -6 6 0 16 -9 23 -21 10
-19 8 -20 -10 -14 -15 4 -21 2 -21 -8 0 -9 6 -17 13 -20 9 -3 9 -7 -2 -20 -7
-10 -9 -17 -3 -17 18 0 21 -40 4 -51 -14 -8 -13 -9 6 -4 31 9 62 -3 62 -23 0
-15 2 -15 10 -2 5 8 10 11 10 5 0 -5 10 -21 21 -34 28 -34 38 -15 33 61 -3 51
-1 59 12 54 9 -3 18 -6 20 -6 2 0 4 -7 4 -16 0 -8 -4 -13 -8 -10 -5 3 -8 -10
-8 -29 1 -27 5 -34 17 -30 9 3 27 1 40 -4 22 -9 22 -10 -11 -11 -24 0 -31 -3
-21 -9 11 -7 9 -10 -8 -16 -12 -3 -18 -11 -15 -17 5 -7 0 -9 -14 -6 -23 6 -31
-7 -9 -15 7 -3 5 -6 -5 -6 -10 -1 -18 -6 -18 -12 0 -13 39 -2 61 17 8 7 26 12
39 9 13 -3 27 0 31 6 4 7 9 4 13 -6 4 -12 0 -18 -15 -22 -20 -6 -20 -6 2 -17
44 -22 24 -99 -29 -109 -16 -3 -77 -22 -136 -43 -89 -31 -106 -40 -107 -58 0
-20 -1 -20 -8 -1 -5 11 -7 23 -5 27 3 4 -9 3 -26 -2 -39 -11 -39 1 1 19 16 7
28 16 25 19 -3 2 -12 0 -19 -6 -8 -7 -17 -9 -21 -5 -3 3 6 14 20 24 17 11 22
19 14 24 -13 8 -45 -25 -91 -92 -36 -53 -75 -93 -90 -93 -5 0 -9 -4 -9 -10 0
-5 11 -10 25 -10 14 0 25 -4 25 -10 0 -5 -4 -10 -10 -10 -5 0 -10 -4 -10 -10
0 -5 9 -10 20 -10 29 0 25 -19 -7 -31 l-26 -10 21 -19 c26 -25 41 -25 58 -2
13 16 13 16 14 -2 0 -16 6 -17 49 -12 83 10 95 -42 23 -98 -31 -25 -38 -36
-38 -65 0 -20 -3 -48 -7 -64 -6 -24 -10 -26 -27 -17 -23 12 -28 60 -6 60 8 0
17 7 20 16 5 14 4 15 -8 5 -10 -8 -16 -9 -21 -1 -10 17 -26 0 -20 -21 4 -12 2
-19 -7 -19 -10 0 -11 -2 0 -8 14 -9 6 -42 -10 -42 -5 0 -12 9 -15 20 -3 11 -9
20 -14 20 -5 0 -9 10 -9 23 0 22 -39 82 -40 60 0 -6 -6 -18 -13 -25 -8 -7 -18
-27 -24 -43 -7 -21 -17 -31 -34 -32 -13 -1 -18 0 -12 3 7 3 13 11 13 18 0 13
-27 15 -47 3 -8 -5 -11 0 -10 13 1 11 9 23 19 26 10 3 16 10 13 15 -4 5 3 9
14 9 11 0 22 -4 26 -10 7 -11 35 -2 35 12 0 5 -8 7 -18 4 -10 -4 -27 1 -38 9
-18 16 -18 16 4 10 13 -4 22 -2 22 4 0 6 -7 11 -15 11 -8 0 -22 9 -32 19 -13
14 -23 17 -33 11 -10 -7 -11 -10 -2 -10 6 0 12 -6 12 -14 0 -8 5 -16 12 -18
14 -5 4 -38 -12 -38 -5 0 -10 7 -10 15 0 8 -7 15 -16 15 -8 0 -13 3 -11 8 3 4
-6 15 -19 25 -13 10 -24 13 -24 7 0 -6 -5 -8 -10 -5 -17 11 -11 21 16 23 17 1
23 -2 18 -11 -4 -6 1 -5 11 5 13 12 16 24 11 43 -4 15 -10 25 -13 21 -7 -7
-33 13 -33 26 0 5 4 7 8 4 4 -3 7 8 6 24 -1 16 4 31 11 33 7 3 15 19 18 36 5
21 11 29 21 25 8 -3 17 0 21 5 3 6 11 8 17 5 6 -4 5 3 -2 16 -10 18 -14 20
-22 9 -8 -11 -9 -10 -4 4 4 11 -7 39 -29 73 -19 30 -35 58 -35 63 0 5 -7 11
-15 15 -8 3 -15 1 -15 -4 0 -6 -5 -10 -12 -10 -20 0 -113 -96 -117 -121 -1
-13 -12 -34 -22 -48 -24 -30 -25 -49 -1 -28 16 15 17 12 20 -51 4 -109 -40
-162 -85 -104 -7 9 -13 11 -13 5 0 -5 8 -17 19 -27 18 -16 19 -34 6 -102 -6
-35 -35 -67 -50 -56 -6 4 -18 23 -27 42 l-17 35 0 -31 c-1 -16 5 -36 12 -44 6
-8 0 -4 -14 8 l-26 23 5 -28 c5 -27 4 -27 -14 -11 -10 9 -31 19 -46 23 -17 4
-29 16 -34 33 -6 22 -8 23 -12 9 -2 -13 -10 -17 -23 -14 -14 4 -19 0 -19 -14
0 -10 -9 -23 -19 -29 -27 -14 -34 -13 -27 5 3 9 0 15 -9 15 -21 0 -27 -16 -11
-30 8 -6 14 -19 13 -29 -1 -22 -37 -22 -37 1 0 9 -4 20 -10 23 -6 4 -10 -10
-10 -34 0 -30 -4 -41 -15 -41 -9 0 -15 6 -14 13 1 6 1 30 0 52 -2 37 -3 39
-16 21 -8 -11 -13 -29 -10 -40 5 -18 4 -19 -7 -6 -18 21 -45 23 -45 5 0 -9 6
-14 13 -11 8 3 11 0 7 -10 -3 -7 -9 -14 -14 -14 -4 0 -6 -6 -3 -13 5 -14 -49
-71 -63 -65 -4 1 -9 -7 -11 -19 -2 -14 -8 -20 -18 -16 -9 3 -14 -2 -15 -13 0
-18 -1 -17 -9 1 -22 51 -4 118 29 107 10 -3 12 0 8 12 -9 23 0 20 14 -5 6 -12
7 -19 1 -15 -6 4 -8 -2 -5 -14 7 -25 18 -26 20 -2 0 9 3 28 7 41 4 17 -1 28
-17 41 -20 17 -23 17 -40 2 -17 -15 -17 -15 -11 4 4 10 16 25 26 32 10 7 18
18 18 25 0 8 -3 8 -11 0 -9 -9 -17 -6 -30 12 -11 13 -19 28 -19 34 0 6 -4 11
-10 11 -5 0 -10 -5 -10 -12 0 -19 -14 1 -15 22 -1 13 4 19 14 18 24 -4 15 37
-14 66 -23 23 -25 23 -30 5 -4 -10 -15 -24 -26 -29 -10 -6 -19 -21 -19 -34 0
-25 -19 -46 -45 -50 -8 -1 -30 -19 -49 -39 l-34 -37 25 0 c17 0 23 -4 20 -13
-4 -11 4 -13 34 -10 27 3 39 0 40 -9 0 -7 3 -6 7 4 6 16 9 16 32 -2 l25 -19
-33 -34 c-23 -24 -42 -34 -63 -34 -19 0 -28 5 -25 12 5 15 -26 14 -36 0 -4 -5
-13 -10 -20 -10 -7 0 -13 -6 -13 -13 0 -7 -7 -17 -15 -22 -13 -9 -13 -11 0
-20 8 -5 22 -9 30 -9 30 2 41 -1 35 -11 -4 -6 -10 -8 -15 -5 -5 3 -11 1 -15
-4 -3 -6 -13 -7 -21 -4 -9 3 -20 0 -24 -7 -15 -24 -48 -19 -53 7 -5 27 11 42
24 22 5 -8 9 -12 10 -9 0 3 2 14 4 24 2 10 10 23 17 27 10 7 9 9 -4 9 -9 0
-18 -5 -20 -12 -6 -17 -28 0 -28 23 0 19 35 28 42 10 2 -5 14 -1 27 10 19 15
21 22 11 34 -6 8 -9 18 -6 24 9 14 -4 41 -20 41 -8 0 -19 11 -24 25 -11 29
-30 33 -30 6 0 -10 -7 -22 -16 -25 -13 -5 -15 -15 -10 -46 7 -47 -2 -55 -66
-55 -35 -1 -46 3 -46 15 0 8 -3 35 -6 60 -6 43 -6 44 9 22 9 -12 13 -28 10
-35 -4 -6 0 -4 8 5 8 10 17 15 20 11 4 -3 7 -2 7 3 0 6 -5 15 -11 21 -8 8 -8
17 0 32 13 24 4 28 -13 6 -10 -14 -14 -14 -31 -1 -16 12 -18 17 -7 27 6 7 12
18 12 24 0 5 -5 3 -10 -5 -7 -11 -10 -3 -10 28 0 24 -4 41 -9 38 -4 -3 -7 -17
-6 -31 3 -22 -5 -30 -27 -26 -5 0 -8 -6 -8 -15 0 -9 5 -12 12 -8 8 5 9 2 5
-10 -4 -10 -7 -22 -7 -27 0 -4 -6 -6 -12 -4 -17 7 -22 140 -7 177 12 30 39 38
39 12 0 -8 5 -12 10 -9 7 4 7 11 2 18 -9 12 -23 57 -17 57 2 0 10 -7 19 -15
17 -17 66 -5 66 17 1 7 5 32 9 56 7 35 6 42 -5 38 -16 -6 -26 8 -35 54 -7 30
-8 28 -7 -20 1 -56 -7 -90 -23 -90 -5 0 -6 15 -4 33 3 17 3 25 -1 17 -3 -8
-10 -25 -17 -38 l-11 -23 -13 23 c-17 32 -16 119 2 145 13 18 13 22 0 33 -19
16 -19 41 0 66 13 16 16 17 25 4 6 -10 10 -11 10 -2 0 6 6 11 13 10 7 -2 11 5
9 16 -3 15 1 18 20 12 13 -3 38 -6 56 -6 17 0 32 -4 32 -9 0 -5 -20 -6 -44 -4
-42 5 -44 4 -39 -17 4 -17 8 -19 15 -8 7 9 8 5 4 -12 -5 -22 -2 -26 19 -25 13
0 31 9 39 20 9 11 16 16 16 11 0 -5 7 -3 15 4 9 7 18 10 22 6 3 -3 1 -6 -5 -6
-19 0 -14 -20 11 -40 20 -17 24 -17 46 -3 22 14 25 14 36 -1 7 -8 15 -13 18
-9 4 3 7 2 7 -4 0 -6 -7 -13 -15 -17 -8 -3 -15 -9 -14 -13 4 -22 -3 -31 -26
-37 -14 -4 -22 -11 -19 -19 2 -7 -4 -22 -16 -32 -24 -22 -26 -37 -3 -28 12 5
15 2 10 -10 -3 -9 -2 -19 3 -22 6 -4 10 3 10 15 0 12 4 19 9 15 12 -7 25 31
16 46 -4 5 1 16 11 24 20 14 38 10 29 -6 -4 -5 -1 -9 6 -9 6 0 9 -8 6 -20 -6
-22 8 -28 16 -6 3 7 20 16 37 18 28 4 31 3 25 -16 -3 -12 -7 -26 -8 -32 -2 -7
-9 -19 -16 -28 -18 -22 -8 -31 12 -11 21 20 26 19 20 -4 -6 -23 35 -37 44 -15
4 11 14 13 37 9 45 -9 86 -26 86 -36 0 -5 6 -6 13 -4 6 3 25 -7 41 -22 28 -25
28 -27 9 -34 -16 -6 -19 -14 -16 -34 3 -14 8 -24 10 -21 3 3 15 -6 27 -19 17
-19 26 -22 44 -15 24 10 30 48 10 68 -9 9 -8 12 5 12 10 0 17 8 17 18 0 13 -2
14 -9 3 -13 -20 -31 -4 -31 29 0 16 -4 32 -10 35 -5 3 -10 16 -9 28 0 22 0 21
10 -2 7 -19 12 -21 23 -11 12 9 17 7 25 -9 6 -11 9 -28 6 -38 -3 -10 1 -4 9
12 8 17 17 29 20 28 16 -7 17 -1 3 15 -10 10 -14 22 -10 26 4 4 -1 4 -12 0
-15 -6 -17 -4 -12 11 6 14 5 16 -7 6 -14 -12 -46 -5 -46 10 0 5 10 9 23 9 20
1 20 2 5 11 -20 11 -25 49 -6 49 6 0 9 3 5 6 -3 4 0 13 8 21 21 20 19 33 -5
33 -18 0 -25 -10 -21 -32 1 -11 -17 -10 -23 1 -4 5 0 12 6 14 10 4 10 6 1 6
-15 1 -18 41 -3 41 5 0 7 8 4 18 -5 14 -4 14 5 2 5 -8 13 -11 17 -8 3 4 13 0
21 -8 8 -8 19 -12 24 -8 6 3 18 0 27 -7 9 -7 14 -9 10 -5 -4 5 -3 15 3 23 9 9
8 13 0 13 -6 0 -11 4 -11 10 0 5 12 9 27 8 14 -2 28 3 31 10 2 7 12 21 21 30
29 28 32 51 11 72 -18 18 -18 50 1 50 4 0 6 7 3 15 -4 8 -14 15 -24 15 -11 0
-21 4 -24 9 -3 4 -17 6 -31 3 -15 -2 -25 0 -25 7 0 7 -4 9 -10 6 -14 -9 -12
-25 3 -25 6 0 21 -13 32 -29 11 -17 21 -28 24 -25 5 5 51 -36 51 -45 0 -3 -18
-7 -39 -9 -29 -2 -42 2 -50 15 -9 15 -10 15 -11 2 0 -8 -7 -24 -15 -35 -20
-26 -33 -6 -30 50 2 40 1 42 -21 38 -13 -2 -24 -8 -24 -12 0 -13 -39 -19 -44
-6 -3 7 -5 7 -5 -1 -1 -7 8 -18 18 -25 10 -6 17 -18 14 -25 -3 -8 2 -13 13
-13 42 0 -5 -18 -58 -22 -58 -5 -79 6 -34 18 28 7 38 25 25 45 -7 11 -11 11
-17 1 -5 -7 -16 -10 -25 -6 -10 3 -17 1 -17 -5 0 -7 -6 -11 -12 -10 -7 1 -22
1 -33 0 -17 -1 -18 -3 -5 -11 17 -11 1 -13 -24 -4 -20 8 -20 18 0 38 8 9 11
16 5 16 -5 0 -12 8 -14 18 -4 16 -5 16 -6 -1 -1 -14 -4 -15 -20 -6 -11 7 -16
19 -13 31 5 20 13 23 28 8 14 -14 33 21 23 45 -7 19 -8 19 -8 -2 -1 -24 -15
-31 -26 -13 -10 15 -33 -12 -27 -32 2 -10 0 -18 -6 -18 -14 0 -42 29 -42 43 0
7 4 6 10 -3 9 -13 13 -12 30 9 19 22 19 24 3 36 -14 11 -19 10 -29 -3 -7 -9
-13 -11 -17 -5 -4 6 0 16 8 23 14 11 14 15 -2 32 -13 14 -18 16 -25 6 -6 -10
-8 -8 -8 5 0 11 -8 17 -25 17 -14 0 -25 4 -25 9 0 15 82 111 90 106 5 -3 11 3
15 14 7 22 32 35 41 20 3 -5 3 -16 0 -24 -3 -8 -1 -15 5 -15 6 0 6 -8 -1 -21
-7 -11 -8 -28 -5 -37 6 -14 9 -13 17 8 7 20 11 22 18 10 5 -8 10 -33 11 -55
l1 -40 9 33 c8 27 14 32 29 27 12 -4 20 -2 20 5 0 7 7 10 15 6 8 -3 15 -1 15
3 0 5 7 11 15 15 10 3 23 -10 42 -42 15 -26 38 -57 50 -69 13 -13 20 -23 15
-23 -5 0 -17 9 -28 21 -10 12 -32 31 -49 42 -28 20 -29 20 -15 2 21 -28 73
-75 84 -75 4 0 6 -6 3 -12 -3 -9 6 -13 25 -13 25 0 28 3 22 20 -3 11 -6 30 -6
43 0 17 -3 20 -12 13 -9 -7 -17 -4 -29 9 -19 23 -22 40 -7 40 6 0 10 -4 10
-10 0 -5 7 -10 17 -10 15 0 15 1 0 18 -22 24 -11 59 21 67 l27 7 -30 13 c-25
11 -27 14 -9 14 12 1 24 8 28 16 4 11 -2 15 -22 15 -16 0 -33 -5 -39 -11 -8
-8 -14 -6 -22 9 -6 11 -8 22 -3 25 4 2 1 2 -6 0 -8 -1 -21 -3 -30 -3 -10 0 -4
-8 16 -20 37 -23 38 -43 2 -48 -17 -3 -21 0 -17 11 3 9 0 14 -11 13 -10 0 -24
13 -33 31 -9 18 -18 30 -21 27 -11 -10 -27 22 -18 36 8 13 10 13 10 -1 0 -9
10 -19 21 -22 16 -4 20 -11 15 -23 -6 -16 -5 -16 14 1 21 19 21 19 2 26 -23 9
-37 27 -28 36 3 4 13 -2 21 -13 15 -18 15 -17 10 18 -2 21 -6 43 -7 50 -2 8 5
12 17 10 16 -2 17 -1 5 7 -14 9 -25 61 -14 61 3 0 17 -6 32 -14 15 -7 43 -16
62 -20 27 -5 19 1 -32 25 -38 17 -68 37 -68 43 0 20 31 56 48 56 14 0 15 2 3
9 -12 8 -10 16 13 45 15 20 32 36 37 36 6 0 8 3 5 8 -7 12 19 41 30 34 14 -10
27 -44 25 -64 -2 -16 5 -17 55 -13 56 4 85 14 48 16 -10 1 -30 2 -43 2 -17 1
-34 15 -53 42 -33 49 -35 72 -6 102 12 13 16 23 10 23 -9 0 0 24 25 69 2 2 9
-1 16 -7 9 -8 17 -8 24 -1 7 7 15 6 24 -4 8 -7 20 -12 27 -9 10 3 7 8 -7 19
-29 20 -48 62 -47 102 1 31 5 35 46 48 25 7 57 11 72 9 15 -3 31 0 37 8 18 21
96 39 137 31 31 -5 36 -4 31 9 -3 8 -2 18 3 21 6 4 10 2 10 -3 0 -5 13 -9 30
-9 37 0 50 -11 27 -24 -9 -6 -15 -14 -12 -20 3 -5 -1 -6 -9 -3 -13 5 -13 2 -3
-20 14 -30 22 -33 31 -10 4 10 13 13 25 9 12 -3 21 0 25 10 8 21 -3 45 -22 45
-13 0 -12 3 3 20 16 18 16 20 2 20 -10 0 -17 8 -17 21 0 27 -20 14 -21 -14 0
-14 -3 -17 -6 -7 -12 29 -27 38 -38 24 -5 -8 -19 -16 -30 -18 -11 -2 -32 -7
-46 -11 -23 -6 -27 -3 -33 19 -4 17 -13 26 -26 26 -18 0 -19 -3 -8 -20 15 -24
0 -44 -35 -45 -13 -1 -28 -5 -35 -9 -7 -4 -12 -2 -12 6 0 8 -5 6 -11 -4 -6
-12 -22 -18 -42 -18 l-32 1 29 24 c17 13 34 21 38 19 11 -7 58 23 58 37 0 6
-35 9 -92 7 -89 -3 -92 -4 -98 -28 l-6 -25 -7 28 c-7 24 -12 27 -52 27 -27 0
-45 -5 -45 -11 0 -8 -4 -8 -13 -1 -15 12 -199 13 -191 1 3 -5 12 -9 19 -9 8 0
18 -12 21 -27 7 -28 20 -43 39 -43 6 0 4 4 -3 9 -23 14 -10 46 17 43 13 -1 31
3 39 10 13 10 14 10 8 1 -4 -8 -2 -13 4 -13 7 0 10 -7 6 -15 -3 -8 0 -15 6
-15 6 0 3 -10 -8 -22 -18 -20 -18 -21 -1 -15 11 4 16 3 12 -3 -10 -16 7 -12
26 6 22 19 54 11 45 -11 -3 -9 1 -18 9 -22 22 -8 -1 -33 -31 -33 -12 0 -33 -4
-46 -8 -13 -5 -34 -6 -48 -2 l-25 6 29 27 c16 15 24 27 19 27 -6 0 -16 -7 -23
-15 -7 -8 -19 -15 -26 -15 -8 0 -14 -4 -14 -10 0 -5 -9 -10 -20 -10 -31 0
-114 24 -122 35 -4 5 -11 6 -15 1 -9 -9 26 -38 38 -31 4 3 19 0 34 -7 18 -8
25 -17 22 -30 -3 -10 -1 -16 4 -12 13 8 11 -10 -3 -24 -20 -20 7 -14 36 9 35
28 33 10 -3 -25 -26 -25 -29 -26 -37 -9 -9 20 -11 30 -13 57 -1 12 -6 16 -16
12 -8 -3 -15 -2 -15 3 0 4 -6 8 -12 9 -7 0 -30 3 -51 6 -21 3 -36 2 -33 -2 2
-4 -5 -9 -17 -9 -12 -1 -17 1 -11 5 6 4 13 15 17 25 7 19 27 23 27 5 0 -9 3
-9 12 0 9 9 7 16 -7 32 -10 11 -24 19 -31 16 -8 -3 -11 2 -9 16 3 11 1 26 -3
32 -7 12 -9 18 -11 41 -1 9 -11 15 -27 15 -14 0 -23 -4 -19 -10 4 -6 10 -8 15
-5 4 3 10 -5 14 -18 9 -34 7 -57 -5 -57 -5 0 -7 5 -4 10 3 6 -1 10 -9 10 -9 0
-16 7 -16 15 0 8 -4 15 -9 15 -5 0 -7 10 -4 23 4 17 2 19 -5 8 -8 -11 -14 -12
-24 -3 -10 8 -102 11 -324 9 -258 -2 -309 -4 -306 -16 2 -8 -2 -27 -7 -43 -10
-28 -2 -70 12 -69 4 1 7 -1 7 -4 0 -3 0 -9 0 -15 0 -5 -8 -10 -17 -10 -15 0
-15 -2 -4 -9 12 -8 12 -13 -3 -36 -9 -14 -23 -24 -29 -22 -15 5 -22 37 -10 46
10 7 33 57 33 71 0 16 -22 11 -36 -7 -12 -17 -12 -17 -11 2 1 11 13 25 27 31
24 10 23 11 -15 12 -22 0 -47 1 -55 2 -8 1 -25 -2 -37 -5 -30 -10 -29 6 3 44
l25 30 -220 1 c-122 0 -221 -2 -221 -4 0 -19 14 -34 27 -29 11 5 14 3 9 -6 -5
-7 -10 -34 -13 -59 -3 -26 -7 -49 -9 -52 -8 -7 -39 17 -37 28 4 16 -35 21 -41
6 -3 -8 0 -14 7 -14 7 -1 -4 -9 -23 -19 -26 -13 -39 -15 -49 -7 -12 9 -13 7
-9 -11 3 -12 0 -30 -8 -40 -7 -10 -14 -14 -14 -9 0 5 -7 2 -16 -5 -15 -12 -16
-11 -10 9 4 13 3 22 -3 22 -15 0 -18 -41 -4 -87 11 -40 2 -62 -11 -28 -4 13
-10 14 -26 5 -11 -6 -25 -8 -30 -5 -5 3 -11 1 -15 -5 -4 -6 -10 -8 -15 -5 -15
9 -20 -13 -10 -41 7 -17 7 -31 1 -37 -6 -6 -6 -16 -1 -26 5 -9 12 -29 16 -46
3 -16 9 -24 11 -17 4 10 8 9 18 -5 16 -24 8 -144 -10 -137 -7 3 -15 -4 -18
-15 -3 -12 -2 -19 1 -17 4 2 7 -7 7 -20 0 -18 -4 -22 -17 -18 -28 9 -21 -5 8
-16 14 -6 22 -15 19 -20 -4 -6 -11 -8 -16 -5 -5 4 -9 2 -9 -4 0 -5 -10 -11
-22 -13 -15 -2 -24 -11 -26 -25 -2 -13 -8 -20 -17 -17 -7 3 -16 1 -20 -5 -3
-7 3 -11 15 -11 15 0 20 -5 16 -15 -9 -23 14 -76 32 -73 21 4 28 28 8 28 -9 0
-16 5 -16 10 0 6 6 10 14 10 15 0 29 -27 21 -40 -3 -4 0 -23 7 -41 l11 -33 10
25 c5 13 10 33 11 43 1 10 9 20 20 22 14 2 17 -2 13 -22 -5 -30 10 -31 56 -4
32 19 35 19 49 3 25 -30 31 -43 15 -37 -8 3 -17 -1 -19 -8 -4 -8 3 -14 18 -14
15 -1 24 4 24 12 0 8 4 14 9 14 5 0 17 3 26 7 14 5 16 2 10 -15 -4 -16 -2 -22
9 -22 10 0 13 6 10 15 -4 8 -1 15 4 15 6 0 9 -15 6 -37 -4 -30 -2 -35 8 -25
16 16 28 15 28 -2 0 -7 9 -16 20 -19 11 -3 17 -1 14 4 -3 5 2 23 10 40 14 28
14 34 -1 62 -11 22 -12 32 -4 35 6 2 9 8 6 12 -3 5 -12 7 -20 3 -8 -3 -15 -1
-15 5 0 5 7 12 15 16 21 8 19 36 -2 35 -11 0 -13 -3 -5 -6 16 -6 16 -20 -1
-20 -8 0 -14 14 -15 34 -3 32 11 45 21 21 3 -8 6 -6 6 5 1 19 21 24 21 5 0 -6
2 -9 5 -6 3 3 1 17 -4 32 -7 17 -7 26 -1 26 6 0 10 -7 10 -17 0 -14 2 -15 18
-1 19 17 46 13 35 -5 -4 -7 4 -5 17 3 14 9 35 14 46 12 19 -3 21 -8 16 -50 -5
-45 -4 -46 14 -32 10 8 24 22 30 30 10 12 14 12 30 0 17 -14 18 -14 5 3 -7 9
-11 18 -7 18 3 1 11 3 16 4 6 1 15 3 21 4 6 0 9 8 5 16 -3 8 -1 15 4 15 6 0
10 -4 10 -10 0 -5 8 -6 17 -3 11 4 12 8 5 11 -14 4 -16 42 -2 42 6 0 10 -5 10
-10 0 -6 3 -9 8 -9 4 1 15 1 26 0 16 -1 17 -3 5 -17 -11 -13 -10 -17 4 -25 21
-12 22 -35 2 -43 -8 -3 -15 -10 -15 -16 0 -6 13 -2 30 10 16 12 34 19 39 15 6
-3 21 6 34 21 27 29 81 31 83 4 1 -8 2 -21 3 -29 0 -8 4 -11 8 -8 3 4 14 -10
23 -30 18 -40 12 -69 -17 -86 -9 -6 -10 -13 -3 -27 14 -26 13 -30 -6 -23 -10
4 -22 -1 -30 -11 -7 -10 -17 -15 -23 -11 -18 10 -12 25 9 25 33 0 23 18 -21
38 -38 18 -40 20 -23 30 18 11 18 11 -4 12 -19 0 -22 4 -17 20 5 15 3 18 -9
14 -8 -3 -16 -13 -18 -22 -3 -15 -6 -14 -25 5 -19 19 -24 20 -40 8 -17 -14
-17 -14 0 -15 17 0 17 -2 -3 -30 -16 -23 -19 -34 -11 -47 9 -16 10 -17 11 -1
0 9 5 20 11 24 14 8 30 -16 23 -36 -3 -8 5 -4 17 9 21 23 23 23 36 5 11 -15
13 -16 13 -2 0 22 19 33 32 20 8 -8 7 -18 -4 -34 -17 -27 -13 -49 8 -41 25 10
15 -13 -12 -26 -19 -8 -30 -9 -40 0 -7 6 -18 8 -25 4 -8 -6 -8 -9 0 -15 17
-10 4 -34 -30 -54 -17 -10 -28 -20 -25 -23 3 -3 21 6 40 21 21 16 36 21 38 14
3 -8 10 -8 26 1 14 8 22 8 22 1 0 -5 -6 -10 -13 -10 -7 0 -22 -7 -33 -16 -19
-15 -19 -15 2 -9 18 5 22 2 20 -19 -1 -22 -3 -23 -27 -11 -25 13 -25 13 -23
-21 2 -19 6 -39 9 -43 3 -5 -1 -12 -7 -14 -8 -4 -7 -6 4 -6 9 -1 18 -7 20 -13
6 -16 -23 -66 -40 -73 -7 -3 -10 0 -7 5 3 6 -3 10 -15 10 -14 0 -20 -5 -18
-16 2 -10 -3 -19 -10 -21 -6 -3 -12 1 -12 9 0 10 -3 9 -10 -2 -6 -10 -10 -11
-10 -2 0 6 -7 12 -15 12 -8 0 -15 9 -15 20 0 24 -10 25 -36 4 -14 -12 -15 -14
-3 -11 16 5 39 -9 39 -25 0 -9 -51 -11 -74 -2 -9 3 -16 14 -16 24 0 27 -19 34
-39 16 -10 -9 -35 -16 -57 -16 -21 0 -49 -3 -61 -6 l-21 -6 23 -43 23 -44 -24
-22 c-13 -12 -24 -28 -24 -36 0 -18 -16 -17 -24 2 -3 8 -11 15 -18 15 -9 0 -8
-3 2 -10 8 -5 11 -10 7 -10 -5 0 -1 -7 8 -16 12 -12 13 -19 4 -30 -6 -8 -19
-14 -27 -14 -13 0 -12 3 4 15 18 14 18 14 -8 15 -32 0 -31 0 -18 34 6 16 6 26
0 26 -5 0 -7 8 -3 18 6 16 5 15 -15 -1 -11 -11 -18 -25 -16 -32 3 -8 0 -13 -8
-11 -21 3 -39 17 -33 26 3 5 1 11 -5 15 -6 3 -13 0 -16 -8 -7 -18 -47 -31 -41
-14 2 7 -3 18 -10 26 -12 11 -11 15 3 26 11 7 15 20 12 33 -4 12 0 26 8 33 10
8 14 8 14 0 0 -7 8 -8 26 0 15 5 35 7 45 4 14 -5 19 -1 19 14 0 12 -4 21 -10
21 -5 0 -10 -4 -10 -10 0 -17 -48 -11 -60 8 -11 16 -11 16 -6 0 3 -10 3 -18
-1 -18 -10 0 -73 71 -73 82 0 5 -7 8 -15 4 -8 -3 -15 -2 -16 2 -6 52 -4 59 24
84 16 16 31 28 33 28 1 0 23 14 47 30 53 35 67 38 60 10 -4 -14 -11 -19 -23
-15 -10 3 -21 1 -25 -5 -4 -6 4 -10 19 -10 14 0 26 -5 26 -12 0 -6 3 -9 6 -5
4 3 8 34 11 68 3 43 1 59 -7 54 -6 -4 -9 -13 -6 -20 3 -8 -6 -21 -19 -29 -29
-19 -36 -20 -34 -3 3 25 -1 35 -18 42 -15 5 -16 4 -5 -6 17 -18 15 -27 -7 -34
-11 -3 -23 -15 -26 -26 -4 -10 -12 -19 -20 -19 -8 0 -11 -7 -8 -20 3 -11 0
-20 -6 -20 -6 0 -20 -9 -31 -20 -20 -20 -20 -20 -35 10 -13 25 -20 29 -50 26
-20 -2 -38 -6 -42 -10 -3 -3 -13 -6 -22 -6 -12 0 -12 3 -3 12 19 19 14 34 -14
46 -14 7 -23 8 -19 3 3 -5 -5 -11 -17 -13 -12 -2 -23 -7 -25 -13 -3 -11 51
-45 72 -45 19 0 39 -27 24 -32 -7 -2 -9 -9 -6 -15 11 -17 47 -3 47 18 0 14 7
19 25 19 14 0 25 -4 25 -10 0 -5 -7 -7 -15 -4 -14 6 -19 -10 -16 -56 0 -10 -1
-11 -5 -2 -7 15 -34 16 -34 0 0 -6 7 -19 16 -29 10 -11 12 -19 5 -24 -6 -3
-11 1 -11 9 0 9 -4 16 -8 16 -5 0 -23 20 -41 45 -39 55 -62 78 -69 70 -3 -3 1
-11 10 -18 9 -6 18 -24 22 -39 5 -21 2 -30 -13 -38 -26 -13 -31 -13 -25 4 3 8
-4 33 -16 57 -16 30 -20 52 -16 78 3 19 1 41 -6 48 -7 9 -7 13 1 13 16 0 13
30 -4 36 -8 4 -12 10 -9 15 7 11 -7 11 -24 1 -10 -7 -10 -15 -2 -36 7 -19 7
-33 0 -47 -17 -31 -26 -22 -25 25 1 35 -2 46 -17 49 -10 3 -18 12 -18 20 0 11
-12 14 -52 12 -43 -3 -48 -2 -27 6 21 8 25 15 22 37 -3 15 -1 22 4 16 10 -14
44 -28 61 -25 7 1 29 -8 49 -20 29 -18 35 -20 30 -7 -3 9 -1 19 6 22 7 2 3 5
-8 5 -18 1 -18 2 4 17 18 13 20 18 10 25 -11 7 -11 9 -1 9 7 0 10 5 7 10 -3 6
-2 10 3 10 5 0 12 9 15 20 6 22 27 28 27 8 0 -7 7 -3 15 9 17 25 10 52 -30
110 -29 43 -26 51 9 27 l27 -17 -10 27 c-6 14 -8 26 -5 26 4 0 1 6 -5 14 -9
11 -9 15 1 20 10 5 10 7 1 12 -7 3 -13 10 -13 15 0 6 5 7 12 3 18 -11 1 77
-22 107 -10 15 -16 30 -12 34 4 4 7 16 7 28 0 11 6 22 13 24 7 3 12 -4 12 -19
0 -12 9 -36 21 -53 18 -26 20 -27 14 -6 -4 13 -9 31 -10 40 -2 9 -4 17 -5 19
-2 1 -3 7 -4 13 0 6 -8 16 -16 22 -24 19 -62 78 -55 85 3 4 15 -4 26 -18 16
-21 18 -21 13 -5 -5 17 -3 16 14 -4 11 -14 18 -33 16 -44 -2 -13 1 -17 11 -13
14 5 20 -11 16 -37 -1 -4 6 -10 14 -13 8 -4 15 -15 15 -25 0 -10 5 -19 11 -19
7 0 18 -8 25 -17 13 -17 13 -17 14 0 0 11 -8 21 -18 24 -22 5 -26 41 -6 60 18
19 18 33 -2 33 -9 0 -14 6 -12 12 3 7 -5 20 -16 30 -19 15 -19 17 -3 18 10 0
17 8 17 20 0 13 5 18 15 14 10 -4 15 0 15 15 0 12 5 21 12 21 15 0 0 15 -15
15 -7 1 -11 7 -9 15 3 11 0 11 -14 -1 -15 -12 -16 -12 -10 8 4 13 3 31 -3 40
-10 17 -10 17 -11 -2 -1 -19 -1 -19 -19 3 -25 29 -29 28 -33 -5 -3 -25 -7 -28
-41 -28 -29 0 -37 -4 -37 -18 0 -10 -5 -15 -10 -12 -7 4 -7 12 0 25 6 11 6 36
1 64 -5 26 -5 43 0 40 16 -10 9 13 -12 40 l-20 26 -420 0 c-273 0 -419 -3
-419 -10 0 -5 -5 -10 -11 -10 -5 0 -7 5 -4 10 4 6 -38 10 -119 10 l-126 0 0
-95z m1146 -152 c-3 -14 -11 -30 -18 -34 -8 -5 -4 -11 15 -18 37 -14 47 -58
19 -82 -19 -15 -22 -27 -22 -98 0 -65 -3 -83 -16 -88 -8 -3 -13 -12 -10 -19 3
-8 1 -14 -4 -14 -6 0 -10 6 -10 14 0 8 -11 17 -25 20 -18 5 -25 13 -25 29 0
13 -7 32 -15 43 -17 23 -19 15 -4 -23 8 -23 8 -26 -2 -15 -18 17 -40 15 -33
-3 4 -10 0 -15 -12 -15 -16 0 -15 -4 8 -25 18 -17 25 -31 21 -43 -8 -21 -63
-76 -63 -63 0 6 4 12 10 16 12 8 5 124 -9 138 -6 6 -11 21 -11 33 0 13 -7 30
-16 39 -15 15 -14 15 12 9 25 -6 27 -5 17 7 -18 22 0 43 31 37 31 -6 32 -4 5
33 -32 46 -18 54 24 15 21 -20 36 -40 33 -44 -3 -5 8 -19 24 -30 36 -27 44
-28 31 -4 -7 14 -5 23 9 35 18 15 19 19 4 59 -9 24 -17 56 -19 71 -3 27 -2 27
16 11 18 -16 19 -16 19 3 0 18 8 33 17 33 2 0 1 -12 -1 -27z m2118 -3 c14 -5
26 -16 26 -24 0 -18 -30 -10 -43 11 -12 19 -24 16 -30 -8 -4 -14 -11 -20 -21
-16 -25 10 -27 -9 -3 -22 26 -14 29 -57 6 -72 -10 -6 -10 -9 -1 -9 7 0 11 -9
8 -22 -7 -38 -18 -58 -27 -52 -5 3 -9 -2 -9 -10 0 -8 -8 -21 -17 -28 -10 -7
-18 -20 -18 -28 0 -9 -11 -16 -27 -18 -16 -2 -28 -9 -28 -18 0 -8 -7 -14 -16
-14 -10 0 -14 5 -10 15 3 9 -1 18 -9 21 -8 4 -15 12 -15 20 0 8 -4 14 -10 14
-5 0 -7 7 -3 16 3 8 12 13 19 10 11 -4 13 2 9 24 -6 36 14 85 49 123 15 15 25
27 22 27 -2 0 8 14 22 30 25 29 51 42 36 19 -3 -6 7 -4 22 5 35 18 36 19 68 6z
m-242 -101 c-2 -9 -10 -16 -18 -16 -16 0 -19 14 -4 19 6 2 1 9 -11 16 -19 12
-20 12 -14 -9 5 -14 2 -25 -6 -30 -12 -8 -12 -10 0 -18 8 -5 20 -7 28 -4 11 4
11 0 3 -22 -5 -14 -10 -37 -10 -51 0 -20 -5 -24 -32 -25 -31 -2 -31 -2 -5 -6
26 -4 27 -7 21 -41 -12 -66 -19 -72 -72 -65 -26 4 -59 8 -74 8 -21 0 -27 4
-22 17 3 9 -2 20 -11 25 -25 14 19 57 51 49 17 -5 26 -1 34 14 10 18 9 19 -15
8 -14 -6 -28 -8 -31 -5 -9 8 24 77 36 77 6 0 10 7 10 15 0 8 5 15 11 15 5 0 8
4 4 9 -8 15 15 25 28 12 18 -18 25 -13 20 13 -4 17 -10 23 -22 19 -13 -4 -13
-2 2 10 11 9 26 13 35 10 15 -6 15 -4 -1 14 -9 11 -14 23 -10 26 10 11 79 -66
75 -84z m-312 -279 c0 -5 -11 -17 -25 -26 -14 -9 -25 -21 -25 -27 0 -6 10 -1
23 11 31 29 46 28 20 0 -24 -27 -36 -58 -23 -58 6 0 10 4 10 8 0 19 27 43 53
48 17 3 26 1 23 -5 -4 -5 -2 -12 3 -15 5 -4 13 3 16 15 4 11 16 30 26 40 23
23 54 26 45 4 -4 -11 1 -15 17 -14 12 0 16 3 10 6 -24 9 -13 23 17 23 19 0 33
-6 37 -16 6 -17 -15 -36 -33 -30 -6 2 -11 -2 -11 -10 0 -8 4 -14 9 -14 4 0 8
-7 8 -15 0 -8 4 -15 10 -15 5 0 7 7 4 15 -4 10 0 15 11 15 28 0 10 -65 -38
-137 -47 -73 -74 -82 -96 -32 -7 16 -15 28 -18 26 -2 -3 3 -19 11 -36 20 -38
20 -46 -1 -73 -42 -52 -76 -78 -104 -78 -26 0 -29 -4 -29 -30 0 -16 -3 -30 -7
-31 -5 0 -18 -2 -29 -5 -16 -3 -25 4 -34 26 -6 16 -9 33 -6 39 3 5 1 32 -5 60
-10 46 -8 56 10 94 19 36 19 39 3 18 -11 -13 -24 -21 -30 -17 -5 3 -10 41 -11
84 -1 76 0 80 29 106 17 15 35 24 40 21 6 -3 7 1 4 9 -7 18 16 22 32 6 8 -8
15 -6 24 5 14 17 30 20 30 5z m116 -511 c-3 -18 -1 -29 5 -29 7 0 10 -16 7
-39 -3 -31 -1 -37 9 -29 7 5 11 15 10 21 -3 17 35 8 48 -10 10 -14 14 -13 28
8 16 22 17 22 18 4 1 -11 1 -24 0 -29 -1 -5 4 -13 11 -17 10 -6 8 -12 -7 -24
-11 -9 -14 -14 -7 -10 6 3 12 2 12 -3 0 -5 14 -8 30 -6 20 2 33 -1 36 -11 4
-8 10 -12 15 -9 13 8 39 -15 39 -33 0 -11 -6 -8 -20 8 -10 13 -19 19 -20 12 0
-6 5 -15 10 -18 20 -13 9 -20 -33 -21 -23 -1 -37 0 -31 3 7 2 9 13 6 25 -4 18
-3 19 17 9 12 -7 21 -8 21 -2 0 12 -19 24 -44 28 -14 3 -17 -1 -13 -17 4 -17
0 -20 -28 -20 -19 0 -38 6 -42 14 -4 7 -18 16 -30 20 -18 6 -21 4 -18 -13 2
-12 -3 -25 -13 -31 -9 -5 -13 -10 -9 -10 5 0 1 -7 -8 -16 -9 -9 -19 -14 -22
-11 -3 3 2 13 11 22 20 21 20 41 0 49 -9 3 -14 12 -11 20 3 7 -1 25 -8 39 -7
14 -11 28 -9 30 3 3 -8 7 -25 9 l-30 4 14 -33 c16 -39 12 -41 -18 -10 -12 13
-30 26 -39 30 -10 3 -18 13 -18 21 0 18 60 66 82 66 8 0 23 11 33 24 24 32 49
23 41 -15z m-484 -232 c-3 -12 -9 -28 -15 -34 -6 -8 -6 -13 0 -13 14 0 13 -89
0 -97 -7 -4 -18 -8 -26 -10 -25 -3 -37 -23 -21 -33 11 -7 7 -12 -18 -27 -32
-18 -38 -40 -9 -35 8 1 18 -2 22 -8 4 -6 14 -1 27 15 26 33 41 32 34 -2 -6
-33 -19 -161 -18 -185 1 -21 -25 -31 -46 -18 -14 8 -13 10 8 11 21 1 22 2 5 6
-34 8 -85 35 -85 44 0 5 9 9 19 9 11 0 22 3 24 8 3 4 -21 7 -53 8 -42 1 -61
-3 -64 -13 -4 -10 -11 -11 -24 -4 -12 6 -33 6 -62 0 -27 -6 -47 -6 -53 0 -5 5
-24 7 -42 4 -24 -4 -34 -1 -38 11 -4 9 -3 16 2 16 5 0 11 9 14 20 4 16 11 19
37 14 19 -4 41 -1 56 7 23 12 27 11 45 -11 10 -14 19 -21 19 -16 0 5 7 3 15
-4 9 -7 18 -10 21 -7 3 3 -13 17 -35 31 -23 15 -41 31 -41 36 0 7 -7 7 -20 0
-42 -23 -9 44 57 114 17 18 17 18 -4 12 -25 -8 -32 11 -11 32 15 15 38 -3 38
-29 0 -10 5 -21 10 -24 6 -3 10 -1 10 4 0 6 4 11 10 11 5 0 7 -7 4 -15 -7 -17
21 -21 32 -4 4 7 10 7 16 1 7 -7 19 -7 34 -2 18 7 26 5 33 -8 12 -19 14 -8 5
25 -3 12 -12 24 -19 27 -9 3 -12 0 -8 -10 4 -10 -3 -14 -23 -14 -22 0 -25 3
-14 10 8 5 14 24 15 42 0 28 3 33 23 31 14 -2 22 3 22 13 0 9 6 14 13 11 17
-6 49 12 42 24 -4 5 -11 6 -17 3 -7 -5 -9 0 -6 14 4 15 2 19 -8 15 -9 -3 -12
0 -9 9 4 9 18 12 44 10 34 -3 38 -7 33 -25z m-1100 -81 c-2 -9 4 -19 13 -22 8
-3 15 -12 15 -20 0 -8 5 -14 10 -14 6 0 10 -4 10 -10 0 -14 -22 -8 -38 10 -11
13 -11 11 -1 -9 6 -13 13 -39 14 -58 3 -30 1 -33 -16 -28 -16 5 -18 3 -10 -16
4 -13 4 -39 0 -59 -5 -20 -4 -39 1 -44 7 -7 10 -6 10 2 0 22 20 13 30 -14 9
-22 14 -25 40 -19 26 6 30 4 30 -16 0 -17 -3 -20 -11 -12 -12 12 -49 6 -49 -8
0 -4 8 -13 18 -18 14 -9 14 -10 2 -11 -9 0 -21 5 -28 12 -9 9 -12 9 -12 0 0
-7 -6 -12 -14 -12 -11 0 -12 5 -3 25 7 14 16 25 21 25 5 0 3 7 -4 15 -10 12
-15 13 -20 4 -5 -8 -14 -5 -29 10 -11 11 -18 21 -13 21 4 0 -6 11 -22 25 -29
25 -46 25 -46 0 0 -7 -7 -15 -15 -19 -10 -4 -15 1 -15 16 0 12 -8 30 -17 40
-11 12 -18 38 -19 66 -1 54 3 67 19 54 7 -5 24 -12 40 -16 15 -3 27 -12 27
-18 0 -9 -3 -9 -12 0 -25 25 -43 14 -42 -26 1 -63 3 -69 15 -49 6 10 8 25 5
32 -6 17 10 30 19 15 3 -5 11 -10 16 -10 6 0 7 5 3 12 -4 7 -3 8 4 4 7 -4 12
-14 12 -22 0 -21 21 -17 27 6 3 10 17 23 32 29 15 5 19 10 10 10 -21 1 -31 38
-18 63 5 10 7 23 4 28 -13 21 -14 51 -2 47 7 -2 11 -12 9 -21z m3237 -213 c8
-14 10 -14 11 -3 0 10 3 11 11 3 7 -7 15 -60 19 -120 l7 -108 3 110 c1 61 5
100 7 87 2 -12 10 -22 16 -20 7 1 26 -5 42 -14 17 -8 35 -14 40 -12 10 4 12
-2 16 -61 3 -41 19 -40 19 1 0 21 3 35 6 32 3 -3 5 -25 6 -47 0 -48 -13 -62
-77 -81 -22 -7 -41 -12 -42 -11 -2 0 -11 -7 -22 -18 -10 -10 -25 -21 -32 -23
-11 -4 -11 -9 4 -25 27 -31 21 -44 -12 -25 -16 9 -32 14 -35 11 -15 -15 -40
-143 -40 -206 l0 -72 -36 42 c-19 23 -43 50 -54 61 -17 17 -33 62 -39 106 -1
8 -6 18 -12 22 -6 5 -5 8 2 8 7 0 10 7 6 17 -4 11 -3 14 5 9 8 -5 12 1 12 18
0 15 12 34 32 51 l32 27 -27 20 c-15 11 -27 24 -27 29 0 6 15 -1 33 -14 27
-20 41 -23 95 -19 34 2 62 7 62 11 0 4 -9 16 -20 26 -18 16 -24 36 -33 105 -4
29 -29 85 -53 117 l-16 22 41 -19 c22 -11 45 -28 50 -37z m-658 -120 c1 -39
11 -58 32 -59 13 -2 15 1 7 11 -15 18 6 31 25 15 18 -15 20 -51 3 -47 -16 3
-11 -35 5 -45 8 -5 6 -8 -5 -8 -10 0 -18 -4 -18 -10 0 -5 -5 -10 -11 -10 -13
0 -33 -20 -42 -42 -3 -10 -13 -18 -22 -18 -20 0 -19 -17 3 -30 14 -9 12 -10
-13 -8 -30 3 -32 8 -20 41 5 12 2 17 -9 17 -9 0 -16 5 -16 10 0 6 6 10 13 10
9 0 8 3 -2 9 -11 7 -11 15 1 52 17 51 33 60 42 22 11 -42 25 -8 15 36 -12 49
-11 81 1 81 6 0 10 -12 11 -27z m-3040 -18 c29 -33 69 -47 69 -25 0 13 27 13
35 0 3 -6 -1 -7 -9 -4 -11 4 -16 0 -16 -15 0 -14 6 -21 19 -21 11 0 23 -5 26
-10 4 -6 11 -8 16 -5 5 4 13 -4 18 -17 6 -13 41 -53 79 -90 38 -38 65 -68 59
-68 -6 0 -2 -9 8 -20 19 -21 38 -18 29 5 -3 7 10 -1 30 -18 39 -35 40 -49 2
-23 -33 21 -36 20 -36 -7 0 -15 9 -29 23 -36 21 -11 20 -11 -7 -6 -17 4 -35
12 -40 19 -6 7 -30 24 -54 39 -38 25 -41 29 -28 43 19 18 10 44 -14 44 -11 0
-22 5 -25 11 -4 5 -12 8 -18 6 -7 -2 -21 0 -32 6 -17 8 -17 6 4 -19 14 -16 37
-40 53 -54 19 -19 26 -32 22 -47 -6 -21 -7 -21 -30 -6 -15 10 -23 22 -19 32 3
9 -3 20 -13 26 -72 40 -134 105 -125 131 5 16 53 5 53 -12 0 -8 5 -14 11 -14
6 0 9 6 6 14 -3 8 -1 17 6 19 7 2 -7 7 -30 11 -24 4 -43 11 -43 15 0 3 -15 24
-32 46 -18 22 -33 50 -33 62 -1 13 1 23 2 23 2 0 17 -16 34 -35z m3214 -233
c41 -5 96 -32 102 -51 4 -9 13 -24 21 -33 8 -9 12 -22 10 -29 -5 -14 -58 -20
-58 -7 0 16 -44 26 -59 14 -11 -9 -13 -7 -7 12 9 26 -1 29 -20 5 -12 -15 -13
-16 -8 -2 3 10 1 20 -5 23 -6 4 -8 13 -4 21 7 20 -24 20 -43 0 -9 -8 -24 -15
-35 -15 -10 0 -19 -4 -19 -9 0 -5 -7 -12 -17 -15 -23 -9 49 77 78 91 13 7 26
9 29 5 3 -4 19 -9 35 -10z m-2743 -339 c10 -9 18 -22 18 -29 0 -14 57 -74 70
-74 5 0 18 -12 30 -27 17 -21 21 -37 17 -65 -3 -21 -1 -41 4 -44 15 -9 10 -44
-6 -50 -22 -9 -68 13 -85 39 -37 59 -61 121 -55 144 3 14 1 31 -5 38 -8 9 -6
14 5 19 22 8 19 21 -10 36 -13 7 -22 17 -19 22 8 12 15 10 36 -9z m1771 -273
c10 0 17 -8 17 -20 0 -11 -4 -20 -10 -20 -5 0 -10 5 -10 10 0 12 -57 13 -64 1
-6 -8 48 -36 70 -36 6 0 24 -15 39 -33 15 -17 32 -32 38 -32 6 0 23 -12 38
-26 27 -26 49 -25 49 2 0 26 39 15 55 -16 9 -17 20 -28 26 -24 6 4 4 13 -7 25
-12 13 -13 19 -4 19 7 0 34 -22 61 -50 42 -44 46 -51 31 -60 -16 -9 -16 -11 1
-24 23 -18 22 -23 -8 -30 -14 -4 -72 -36 -131 -71 -58 -36 -103 -59 -100 -53
3 7 9 21 12 30 3 10 14 20 23 23 9 2 22 18 29 35 8 16 19 30 26 30 7 0 25 12
41 26 26 24 26 26 9 39 -24 19 -34 19 -34 0 0 -9 -6 -12 -16 -8 -17 6 -64 -33
-64 -55 0 -8 -6 -26 -14 -40 -8 -15 -24 -52 -36 -82 -12 -30 -26 -59 -31 -64
-9 -10 -26 27 -32 71 -8 59 62 168 124 194 16 6 29 15 29 18 0 10 -49 54 -81
75 -25 15 -27 15 -54 -6 -33 -26 -84 -36 -64 -12 12 14 9 16 -25 18 -31 2 -28
35 5 52 32 16 31 34 -2 34 -10 0 -19 -7 -19 -15 0 -7 -6 -18 -14 -22 -7 -4
-33 -25 -56 -47 -30 -27 -39 -41 -30 -46 8 -5 8 -10 2 -14 -15 -9 -25 23 -23
72 2 23 -2 42 -7 42 -5 0 -43 -31 -83 -69 -41 -38 -75 -68 -77 -66 -2 1 6 18
17 36 12 19 21 41 21 50 0 25 48 63 103 80 29 10 51 22 50 28 -2 6 4 11 12 11
8 0 15 7 15 16 0 9 8 22 17 29 15 11 27 10 68 -6 27 -10 58 -19 68 -19z
m-1576 -87 c12 -27 24 -57 27 -69 8 -27 56 -92 56 -75 0 7 5 9 11 6 7 -5 5
-13 -5 -24 -9 -10 -16 -25 -16 -34 0 -11 -8 -17 -25 -17 -18 0 -32 11 -50 40
-14 22 -25 46 -25 55 0 8 -3 15 -7 15 -5 0 -13 11 -20 25 -6 15 -7 25 -1 25 5
0 6 5 2 12 -4 6 0 17 10 23 13 10 14 18 7 36 -5 13 -10 18 -10 11 -1 -7 -6
-10 -11 -7 -14 9 -2 25 19 25 11 0 25 -17 38 -47z m1995 -236 c20 -15 74 -14
71 2 -4 16 57 14 107 -4 23 -8 56 -15 73 -15 46 0 24 -13 -25 -15 -89 -4 -99
-5 -93 -15 3 -5 25 -15 48 -21 23 -6 37 -14 30 -16 -13 -5 -133 25 -148 37 -5
4 -21 11 -34 15 -20 6 -23 4 -19 -12 3 -11 0 -29 -6 -39 -6 -10 -13 -48 -16
-84 -3 -45 -9 -64 -17 -62 -13 2 -17 -10 -14 -36 1 -7 -5 -15 -13 -18 -9 -3
-13 -10 -10 -15 3 -5 -2 -19 -10 -31 -16 -22 -16 -22 -16 9 0 23 6 33 20 38
21 7 28 25 10 25 -5 0 -9 3 -9 8 5 28 -3 72 -11 67 -6 -4 -7 -11 -4 -17 5 -8
1 -9 -10 -5 -10 4 -21 7 -26 7 -5 0 -2 14 6 30 9 17 20 30 25 30 5 0 9 7 9 16
0 8 -4 12 -10 9 -5 -3 -10 -1 -10 4 0 6 4 11 9 11 5 0 11 13 14 29 4 20 15 32
34 39 27 10 27 11 6 17 -13 4 -23 11 -23 16 0 13 43 10 62 -4z m518 -2 c0 -2
-10 -14 -22 -26 l-23 -22 30 8 c54 13 130 16 145 5 21 -14 2 -25 -74 -40 -61
-13 -109 -37 -53 -28 18 4 26 1 24 -6 -3 -7 -36 -11 -96 -10 -85 1 -92 -1 -88
-18 3 -10 1 -18 -4 -18 -5 0 -9 9 -9 20 0 12 -7 20 -17 20 -10 0 -25 5 -33 11
-11 7 4 9 53 4 62 -6 70 -5 92 17 14 13 25 29 25 37 0 16 29 51 42 51 4 0 8
-2 8 -5z m-771 -1699 c6 -8 32 -17 58 -21 69 -10 77 -15 56 -31 -12 -9 -14
-13 -5 -14 8 0 11 -7 8 -18 -4 -12 3 -27 20 -43 l27 -24 -6 31 c-4 22 -2 31 8
31 10 0 13 -11 12 -36 -2 -34 0 -36 25 -33 15 1 44 -4 64 -13 47 -19 44 -20
44 15 0 19 -5 30 -14 30 -8 0 -18 5 -21 10 -4 7 2 9 19 4 16 -4 35 -1 49 8 24
16 80 9 100 -12 9 -8 8 -14 -5 -21 -9 -5 -24 -17 -33 -25 -13 -13 -18 -14 -31
-3 -12 10 -20 8 -45 -10 -25 -19 -37 -21 -76 -15 -38 5 -44 4 -38 -7 12 -19
-17 3 -73 55 -40 38 -44 40 -57 23 -12 -17 -14 -16 -27 10 -40 77 -54 93 -93
107 l-40 14 31 1 c17 1 37 -5 43 -13z m990 -216 c17 -8 20 -17 15 -33 -4 -12
-10 -23 -14 -25 -3 -1 11 -21 32 -43 59 -62 48 -83 -12 -24 -50 49 -70 53 -27
6 17 -21 18 -23 2 -10 -11 9 -49 30 -85 47 -36 17 -74 38 -85 47 -20 16 -20
16 5 35 19 15 38 18 86 15 34 -1 71 -8 83 -15z m-721 -8 c9 -7 10 -16 1 -41
-6 -17 -9 -44 -6 -58 9 -46 -19 -115 -64 -158 -27 -26 -43 -36 -46 -27 -4 10
-8 10 -20 1 -22 -19 -30 1 -31 86 -2 64 1 78 21 102 13 15 26 36 30 45 7 20
64 58 87 58 8 0 21 -4 28 -8z m-84 -566 c190 -43 294 -213 256 -419 -7 -40
-14 -73 -14 -74 -2 -3 -100 32 -113 40 -7 5 -13 17 -13 28 0 21 -7 23 -29 10
-12 -8 -13 -12 -1 -25 7 -9 10 -20 6 -23 -4 -4 -11 -1 -16 7 -8 13 -11 13 -22
-2 -26 -33 -150 -89 -205 -92 -61 -3 -66 -1 -80 39 -6 17 -14 37 -18 46 -5 13
6 18 57 29 35 6 66 14 70 17 10 6 -34 71 -61 90 -12 8 -46 17 -77 20 -30 3
-57 10 -60 14 -3 5 -21 9 -41 9 -27 0 -46 -9 -80 -40 -25 -22 -49 -37 -54 -34
-14 8 -10 50 5 63 8 7 22 33 30 59 16 46 15 51 -19 66 -6 3 -3 9 5 15 13 9 12
11 -3 11 -11 0 -15 4 -11 12 5 7 15 2 31 -17 13 -15 27 -24 30 -21 27 26 162
146 192 168 33 26 42 28 101 24 36 -2 96 -11 134 -20z"/>
<path d="M1212 6369 c40 -56 81 -99 93 -99 7 0 27 13 44 28 27 23 32 34 29 65
l-2 37 -93 0 -94 0 23 -31z"/>
<path d="M4280 6396 c0 -3 4 -16 10 -30 11 -30 -3 -36 -19 -8 -7 12 -13 14
-18 6 -5 -7 -17 -14 -28 -16 -11 -2 -19 -10 -17 -16 1 -7 -2 -12 -8 -12 -9 0
-13 14 -13 52 0 13 -4 15 -16 8 -30 -15 -154 -153 -195 -213 -34 -53 -37 -61
-23 -74 22 -22 44 1 39 39 -4 29 3 34 28 18 12 -8 13 -11 1 -19 -20 -13 5 -24
26 -12 10 6 13 11 6 11 -6 0 -15 9 -18 20 -4 11 -11 18 -16 15 -5 -4 -9 1 -9
9 0 9 6 15 13 14 6 -2 11 3 10 10 -3 10 9 16 28 14 4 -1 6 6 5 15 0 9 5 18 12
20 11 4 16 -16 13 -57 0 -10 1 -11 5 -2 8 17 27 15 20 -3 -3 -9 0 -15 7 -15 7
0 22 -7 33 -15 12 -9 13 -13 4 -10 -11 4 -16 -1 -17 -15 -1 -11 -8 -27 -16
-35 -13 -13 -16 -12 -21 2 -6 14 -9 13 -23 -6 -12 -18 -13 -28 -4 -48 10 -21
9 -29 -4 -43 -8 -9 -15 -25 -15 -36 0 -25 -18 -44 -42 -44 -11 0 -15 -5 -12
-15 5 -13 9 -13 22 -3 13 11 15 10 9 -4 -3 -10 -5 -18 -3 -18 4 0 31 56 55
114 8 20 17 27 30 23 15 -4 17 1 15 25 -3 25 -1 27 14 19 14 -8 19 -6 19 5 0
7 -4 14 -9 14 -21 0 -5 32 22 41 26 10 29 14 23 42 -3 18 -15 40 -25 51 -11
10 -17 24 -14 31 3 8 0 16 -7 18 -7 2 -10 7 -7 10 3 3 16 -3 30 -14 18 -13 19
-17 6 -13 -18 7 -18 6 -1 -19 20 -31 41 -25 70 20 10 15 12 22 4 16 -7 -7 -17
-13 -22 -13 -13 0 -3 55 11 56 6 1 15 2 20 3 4 0 22 15 41 31 18 17 37 28 42
25 5 -4 9 -2 9 2 0 5 12 14 28 20 24 10 19 11 -40 12 -38 1 -68 -1 -68 -3z"/>
<path d="M3819 6085 c-5 -54 -21 -74 -44 -55 -8 7 -18 10 -22 6 -3 -3 -1 -6 6
-6 8 0 11 -8 8 -20 -4 -15 1 -22 19 -26 13 -3 24 -13 24 -21 0 -11 4 -13 13
-6 20 16 56 22 60 10 2 -6 -3 -19 -12 -28 -14 -17 -15 -17 -28 -1 -7 9 -12 12
-11 6 2 -7 0 -12 -4 -13 -29 -4 -48 -24 -42 -44 6 -21 6 -21 -19 -4 -15 9 -30
17 -34 17 -4 0 -2 -4 6 -9 11 -7 11 -14 -3 -41 -22 -45 -20 -48 10 -19 21 19
24 20 18 5 -8 -21 5 -17 38 12 10 8 28 12 43 10 21 -5 25 -2 20 13 -4 11 -2
19 5 19 6 0 9 -4 5 -9 -3 -5 -1 -12 5 -16 5 -3 10 3 10 14 0 26 48 60 59 42
12 -19 43 -2 36 20 -7 21 10 27 18 7 5 -12 11 25 8 45 0 4 3 7 9 7 6 0 10 -7
10 -16 0 -8 4 -12 10 -9 5 3 9 16 9 28 0 12 2 34 4 50 3 22 2 25 -9 16 -11 -9
-14 -8 -14 5 0 11 -4 14 -12 9 -7 -4 -17 -8 -23 -9 -5 0 -16 -2 -22 -2 -7 -1
-13 -9 -13 -17 0 -23 -21 -18 -27 6 -4 15 -8 17 -13 8 -6 -9 -12 -8 -25 4 -18
19 -35 22 -35 7 0 -12 -22 -9 -32 5 -5 7 -8 7 -9 0z"/>
<path d="M4729 6012 c-1 -4 0 -17 1 -29 1 -13 -4 -23 -10 -23 -6 0 -9 -4 -5
-9 3 -6 -18 -10 -50 -10 -30 0 -64 -2 -75 -6 -14 -4 -20 -2 -20 8 0 10 -7 13
-20 10 -11 -3 -20 -14 -20 -25 0 -11 -5 -18 -12 -16 -6 2 -21 -5 -33 -16 -12
-12 -38 -35 -57 -52 -35 -30 -35 -31 -51 -10 -10 11 -17 15 -17 9 0 -6 -3 -19
-7 -29 -4 -11 -3 -15 4 -11 6 4 14 0 17 -9 9 -22 0 -30 -17 -16 -18 15 -30 3
-15 -15 9 -11 6 -19 -15 -39 -15 -14 -27 -31 -27 -38 0 -8 -7 -19 -15 -26 -13
-10 -17 -7 -28 18 l-12 30 -12 -24 c-9 -20 -9 -24 5 -24 15 -1 14 -3 -2 -15
-19 -15 -19 -15 1 -15 29 0 35 -13 18 -36 -14 -18 -14 -18 -10 4 4 25 -1 28
-19 10 -7 -8 -10 -24 -6 -38 4 -17 8 -21 14 -12 11 18 28 15 25 -5 -1 -10 2
-27 6 -37 6 -14 1 -32 -15 -60 -15 -26 -19 -41 -11 -44 6 -2 11 -11 12 -20 0
-10 3 -12 5 -5 4 8 16 10 33 7 36 -7 78 13 62 29 -15 15 -15 50 0 41 6 -3 15
-1 19 7 7 10 11 10 23 0 11 -8 17 -9 22 -1 4 6 2 9 -3 8 -12 -4 -12 10 -1 40
5 12 13 22 19 22 5 0 10 7 10 15 0 8 -4 15 -10 15 -5 0 -10 7 -10 16 0 8 4 13
9 10 10 -7 9 13 -1 29 -4 6 5 26 19 43 18 24 30 31 44 27 14 -5 19 -1 19 14 0
12 4 21 9 21 5 0 58 43 118 96 59 52 120 103 136 112 36 21 34 34 -3 28 -29
-4 -40 6 -20 19 6 3 10 10 10 15 0 10 -30 22 -31 12z"/>
<path d="M4034 5835 c-21 -25 -45 -45 -55 -45 -9 0 -22 -14 -29 -30 -7 -17
-18 -29 -24 -27 -13 5 -46 -41 -46 -63 1 -8 8 -3 16 13 10 18 23 27 40 27 14
0 23 -4 19 -10 -3 -5 -12 -7 -20 -3 -21 7 -19 -7 3 -23 16 -13 16 -14 0 -8
-23 8 -24 -21 -3 -43 8 -8 12 -19 9 -25 -4 -7 -2 -8 4 -4 6 4 9 13 5 21 -3 9
1 15 11 15 15 0 21 16 18 53 -1 9 3 17 8 17 6 0 10 7 10 15 0 8 5 15 10 15 13
0 13 -6 0 -31 -6 -11 -7 -19 -2 -19 6 0 12 9 15 20 3 11 13 20 23 20 14 0 11
6 -13 28 -26 22 -29 31 -21 46 8 15 12 16 19 5 6 -10 12 -6 21 19 7 17 16 32
20 32 4 0 5 -6 2 -14 -3 -8 -1 -16 3 -19 5 -3 10 7 11 23 3 45 -12 43 -54 -5z"/>
<path d="M1885 5470 c-14 -27 -14 -30 3 -39 11 -7 13 -13 6 -18 -6 -5 -13 -16
-17 -25 -3 -10 -15 -18 -26 -18 -11 0 -22 -4 -25 -9 -4 -5 3 -7 14 -4 11 3 20
0 20 -6 0 -6 -6 -11 -12 -11 -7 0 -5 -5 4 -11 17 -9 17 -12 1 -35 l-16 -25 36
21 c32 19 37 20 37 6 0 -9 -5 -16 -12 -16 -9 0 -9 -3 0 -12 20 -20 42 -18 43
5 0 12 3 16 6 10 2 -7 13 -13 23 -13 21 0 36 16 20 22 -6 2 -4 12 5 25 9 13
22 20 30 17 9 -4 15 0 15 10 0 9 0 19 1 23 0 4 -4 9 -10 11 -6 2 -8 -3 -5 -12
4 -12 0 -16 -15 -16 -12 0 -21 5 -21 12 0 21 -18 -5 -22 -31 -3 -24 -4 -24
-21 -7 -12 13 -15 22 -7 30 5 7 7 15 4 19 -3 3 2 16 10 29 19 29 12 40 -20 32
-25 -6 -28 -1 -24 44 2 30 -7 28 -25 -8z"/>
<path d="M3669 5263 c-1 -13 -2 -29 -3 -35 0 -7 -17 -23 -36 -35 -25 -17 -36
-19 -42 -10 -5 8 -8 5 -8 -9 0 -19 -24 -43 -103 -105 -33 -25 -80 -96 -75
-111 2 -6 14 -1 26 12 18 20 27 22 48 14 33 -11 42 -58 16 -74 -14 -8 -15 -11
-3 -19 7 -5 10 -14 7 -20 -10 -16 -29 -14 -23 2 3 8 1 20 -4 28 -6 11 -11 11
-21 1 -9 -9 -9 -12 0 -12 9 0 8 -8 -3 -30 -9 -17 -11 -30 -5 -30 5 0 10 -4 10
-10 0 -5 -12 -10 -27 -10 -23 0 -25 -2 -13 -11 11 -7 12 -12 3 -15 -7 -3 -9
-12 -6 -20 3 -7 9 -11 14 -8 5 3 12 -2 15 -10 3 -9 10 -13 15 -10 13 7 23 -22
13 -38 -10 -15 -13 -49 -4 -43 3 2 12 0 20 -5 9 -6 18 -3 27 8 12 16 15 14 38
-13 14 -16 23 -36 20 -42 -3 -8 5 -13 22 -13 20 0 23 3 14 13 -6 8 -8 17 -4
20 3 4 -1 7 -10 7 -18 0 -19 2 -21 50 -1 35 -2 34 17 15 13 -13 17 -9 34 30
21 52 28 55 38 18 4 -19 0 -35 -16 -56 l-22 -30 32 19 c17 10 31 21 31 24 -1
3 -5 24 -9 47 -6 29 -4 48 4 60 7 10 9 27 5 38 -6 17 -8 15 -14 -12 -9 -40
-23 -42 -32 -5 -4 15 -11 32 -16 39 -5 7 -7 17 -3 23 3 5 1 10 -4 10 -6 0 -11
11 -11 25 0 14 -9 35 -20 47 -10 12 -17 25 -14 30 3 4 1 8 -4 8 -15 0 -22 -13
-13 -24 14 -17 25 -86 13 -86 -15 0 -21 -35 -9 -56 6 -11 -1 -7 -16 8 -23 25
-25 32 -18 76 8 54 5 73 -12 67 -17 -7 -41 11 -33 24 4 6 14 11 23 11 9 0 14
3 11 6 -7 7 48 64 62 64 5 0 10 -4 10 -10 0 -5 -4 -10 -9 -10 -11 0 -20 -35
-12 -48 3 -5 15 -6 26 -1 11 4 15 8 8 8 -8 1 -11 17 -9 49 2 30 7 46 15 44 7
-1 10 1 7 6 -8 14 29 40 58 40 15 0 33 5 39 11 9 9 8 11 -6 5 -15 -5 -17 -2
-14 17 2 13 1 35 -4 49 -7 24 -7 24 -10 3z"/>
<path d="M3866 2805 c-3 -9 -4 -21 0 -26 3 -5 1 -9 -5 -9 -13 0 -33 -63 -26
-82 4 -9 0 -18 -9 -21 -9 -4 -16 -18 -16 -32 0 -14 -4 -33 -10 -43 -12 -22
-40 -141 -40 -170 0 -19 3 -21 18 -13 18 10 24 19 60 101 19 44 62 90 82 90 6
0 10 5 10 10 0 6 -9 10 -19 10 -11 0 -26 3 -35 6 -14 5 -14 9 1 37 17 33 19
118 4 145 -7 12 -9 11 -15 -3z"/>
<path d="M4567 2598 c5 -63 -16 -181 -36 -201 -9 -9 36 -117 49 -117 10 0 60
95 60 112 0 20 34 50 51 46 9 -2 15 7 17 25 4 29 -14 37 -36 15 -9 -9 -12 -8
-12 5 0 9 6 16 13 15 6 -2 12 4 12 12 0 8 -10 16 -23 18 -25 4 -41 30 -25 41
11 7 36 51 31 55 -7 6 -89 36 -97 36 -5 0 -7 -28 -4 -62z"/>
<path d="M4761 2103 c-7 -32 -12 -71 -13 -88 -1 -56 14 -160 33 -215 l18 -55
1 208 c0 168 -3 207 -14 207 -8 0 -18 -21 -25 -57z"/>
</g>
</svg>
