<?xml version="1.0" standalone="no"?>
<!DOCTYPE svg PUBLIC "-//W3C//DTD SVG 20010904//EN"
 "http://www.w3.org/TR/2001/REC-SVG-20010904/DTD/svg10.dtd">
<svg version="1.0" xmlns="http://www.w3.org/2000/svg"
 width="640.000000pt" height="480.000000pt" viewBox="0 0 640.000000 480.000000"
 preserveAspectRatio="xMidYMid meet">
<metadata>
Created by potrace 1.16, written by Peter Selinger 2001-2019
</metadata>
<g transform="translate(0.000000,480.000000) scale(0.100000,-0.100000)"
fill="#000000" stroke="none">
<path d="M1730 4793 c0 -5 9 -19 20 -33 11 -14 20 -35 20 -48 0 -12 6 -25 14
-28 8 -3 18 -18 21 -34 5 -22 0 -34 -22 -56 -24 -24 -25 -28 -10 -33 17 -6 35
-31 57 -80 15 -33 9 -34 -24 -5 -17 16 -35 24 -47 21 -22 -6 -26 11 -4 19 22
9 18 31 -7 37 -28 8 -34 2 -18 -18 8 -9 8 -15 2 -15 -6 0 -14 5 -17 10 -4 6
-10 8 -15 5 -14 -9 -41 7 -36 21 3 8 1 14 -4 14 -6 0 -10 7 -10 15 0 8 -5 15
-10 15 -6 0 -8 -15 -6 -35 3 -21 1 -33 -5 -29 -5 3 -7 9 -4 13 2 5 -2 17 -10
27 -8 10 -15 15 -15 9 -1 -5 -3 -24 -4 -42 -2 -18 2 -40 10 -50 8 -11 13 -13
14 -5 0 6 5 12 11 12 6 0 9 -7 5 -15 -4 -10 1 -15 14 -15 22 0 28 -26 8 -32
-9 -3 -8 -9 4 -22 17 -17 15 -46 -4 -46 -6 0 -8 7 -5 15 8 19 -10 30 -26 16
-15 -12 -42 22 -42 53 0 26 -19 31 -39 11 -14 -14 -17 -12 -16 10 1 3 -6 13
-15 21 -8 9 -15 21 -15 29 0 17 -26 66 -31 60 -3 -2 -6 14 -6 37 -1 23 -7 46
-13 52 -8 8 -9 6 -5 -6 4 -11 2 -18 -4 -18 -6 0 -11 5 -11 10 0 6 -5 10 -11
10 -8 0 -7 -5 1 -15 7 -9 9 -19 5 -23 -4 -4 -10 -2 -12 5 -2 6 -15 9 -29 7
-15 -3 -24 0 -24 8 -1 8 -7 5 -15 -6 -19 -25 -19 -36 1 -36 14 0 14 -2 0 -15
-19 -20 -23 -19 -37 7 -10 18 -8 24 7 35 18 13 18 14 -4 19 -14 4 -22 14 -22
28 0 20 -1 20 -20 -4 -22 -28 -26 -45 -9 -34 9 5 10 -4 5 -31 -4 -22 -4 -35 2
-31 5 3 10 -6 10 -19 0 -14 -5 -28 -10 -31 -5 -3 -4 -12 3 -20 12 -15 6 -44
-11 -44 -5 0 -10 10 -11 23 -1 12 -5 3 -11 -20 -6 -30 -13 -40 -23 -36 -18 6
-20 -19 -4 -48 7 -13 16 -18 28 -14 18 6 30 -9 37 -47 3 -15 -23 -34 -34 -23
-3 3 0 5 6 5 7 0 12 5 12 11 0 6 -9 9 -20 6 -13 -3 -20 0 -20 9 0 8 -9 24 -20
36 -14 15 -18 31 -15 54 3 26 0 34 -16 39 -10 4 -19 12 -19 20 0 7 -8 15 -17
19 -10 3 -24 9 -32 12 -10 5 -12 2 -8 -10 4 -9 2 -16 -3 -16 -10 0 -14 27 -11
60 2 12 0 13 -7 1 -14 -19 -88 14 -96 43 -5 21 -5 21 -21 1 -16 -20 -16 -20
-10 2 3 12 1 24 -5 28 -6 4 -10 -4 -10 -19 0 -30 -13 -39 -60 -42 -19 -1 -38
-3 -41 -3 -12 -2 -17 -40 -5 -45 6 -2 3 -5 -8 -5 -15 -1 -17 -6 -12 -31 3 -17
1 -30 -4 -30 -6 0 -10 15 -11 33 -1 40 -10 63 -26 61 -7 -1 -19 -2 -27 -3 -15
-1 -17 -51 -3 -51 5 0 5 -5 1 -11 -4 -8 -9 -8 -17 0 -6 6 -16 11 -21 11 -6 0
-5 -5 2 -12 15 -15 16 -32 1 -22 -8 4 -9 0 -4 -15 9 -29 -10 -27 -39 4 -21 23
-25 24 -37 9 -11 -14 -10 -19 10 -35 25 -20 46 -26 36 -9 -3 6 -1 10 5 10 6 0
10 -8 8 -17 -2 -10 2 -17 8 -16 6 1 11 -5 11 -12 0 -17 -23 -26 -52 -20 -11 2
-28 4 -38 4 -10 1 -16 5 -12 10 3 5 0 11 -7 14 -18 6 18 -2 42 -9 12 -4 20 -2
20 5 0 6 -7 11 -15 11 -8 0 -15 6 -15 13 0 6 -13 12 -30 13 -16 1 -27 -2 -25
-6 3 -5 -8 -13 -24 -18 -31 -11 -51 -1 -51 26 0 12 3 12 15 2 27 -23 37 1 11
27 -23 22 -28 24 -43 12 -13 -11 -17 -11 -21 -1 -2 7 -22 21 -43 32 -31 14
-41 16 -45 6 -8 -20 -62 -16 -67 6 -3 10 -13 17 -24 17 -16 -1 -16 -2 0 -6 13
-3 16 -11 11 -31 -9 -35 -13 -39 -24 -22 -5 8 -15 15 -21 15 -27 0 -17 24 26
64 40 37 44 44 33 61 -17 26 -25 25 -41 -6 -14 -26 -67 -44 -67 -23 0 5 5 9
10 9 19 0 10 18 -12 24 -21 5 -22 6 -5 18 17 13 17 15 -2 37 l-21 24 -40 -27
c-22 -14 -40 -22 -40 -18 0 11 30 37 52 45 22 8 24 97 2 97 -8 0 -14 -8 -14
-18 0 -27 -30 -50 -76 -60 -29 -6 -40 -13 -42 -30 -4 -24 7 -29 26 -10 7 7 12
8 12 2 0 -6 -10 -16 -22 -22 -23 -11 -23 -11 3 -11 32 -1 38 -7 32 -32 -6 -21
-39 -26 -46 -7 -2 7 -4 -3 -4 -22 0 -19 2 -30 4 -24 2 7 13 10 23 7 12 -3 22
1 26 10 4 11 17 14 51 11 39 -4 44 -3 34 10 -8 10 -9 16 -1 21 17 11 31 -5 28
-33 -2 -15 2 -26 7 -25 6 0 16 -5 23 -13 16 -17 14 -17 -38 1 -56 20 -70 19
-41 -4 18 -14 21 -20 10 -24 -8 -3 1 -6 20 -6 46 -1 32 -13 -19 -15 -27 -2
-40 2 -40 11 0 7 5 13 10 13 6 0 10 5 10 10 0 11 -33 14 -43 3 -4 -3 -2 -12 3
-18 7 -9 7 -21 0 -40 -6 -15 -8 -36 -5 -46 6 -17 3 -18 -20 -9 -14 5 -29 10
-33 10 -4 0 -8 -30 -9 -67 -2 -47 0 -63 7 -53 8 13 10 12 10 -2 0 -10 -4 -18
-10 -18 -5 0 -10 -18 -10 -41 0 -36 2 -39 15 -25 8 8 15 18 15 23 0 5 12 26
27 48 23 34 27 37 34 19 3 -10 3 -23 -2 -29 -13 -13 -11 -27 3 -19 8 5 9 0 5
-15 -3 -14 0 -24 8 -27 17 -7 8 -34 -11 -34 -7 0 -11 -6 -9 -12 8 -19 -42 -68
-64 -63 -18 3 -19 -8 -20 -291 -2 -228 1 -294 11 -294 9 0 9 -3 0 -12 -8 -8
-12 -54 -11 -148 1 -123 2 -131 13 -95 l13 40 13 -39 c11 -33 10 -40 -4 -55
-15 -14 -18 -14 -26 -1 -5 9 -9 -98 -10 -278 l0 -292 42 -46 43 -46 -38 15
c-20 9 -37 14 -37 11 0 -14 30 -33 59 -37 18 -3 50 -22 74 -44 23 -21 77 -63
119 -92 80 -55 92 -67 58 -58 -10 3 -24 -1 -30 -8 -9 -11 -4 -13 29 -10 39 3
46 -2 42 -28 -1 -4 6 -10 16 -14 9 -4 25 -15 35 -25 17 -17 17 -18 -7 -24 -17
-4 -25 -13 -25 -28 1 -20 1 -20 14 -3 10 13 15 15 19 5 3 -9 9 -8 20 7 8 11
13 23 11 27 -22 35 89 -39 181 -122 103 -92 136 -128 125 -135 -6 -4 -19 3
-29 16 -16 21 -20 21 -69 10 -28 -7 -60 -10 -70 -7 -12 4 -26 0 -36 -10 -11
-10 -27 -15 -46 -12 -16 2 -27 1 -24 -4 3 -4 0 -8 -5 -8 -6 0 -11 4 -11 9 0 5
-10 12 -23 16 -31 10 -87 13 -82 4 7 -10 -62 -21 -86 -14 -11 4 -27 1 -36 -6
-13 -11 -18 -10 -32 8 -10 11 -26 23 -37 25 -23 4 -21 37 3 55 14 11 14 15 2
29 -11 14 -11 18 6 30 10 8 23 14 27 14 4 0 3 9 -4 19 -8 14 -17 17 -28 11
-10 -5 -23 -2 -39 11 -22 18 -22 21 -8 32 12 8 14 16 7 27 -9 13 -10 13 -10 0
0 -11 -2 -12 -8 -3 -8 13 -28 15 -84 10 l-28 -2 0 -1122 0 -1123 3200 0 3200
0 0 1135 c0 1133 0 1136 -20 1125 -11 -6 -20 -8 -20 -4 0 3 9 17 20 31 16 21
20 41 20 107 0 72 -2 83 -21 94 -29 18 -49 0 -31 -28 19 -31 16 -33 -43 -25
-52 6 -55 5 -64 -18 -7 -17 -20 -26 -43 -31 -18 -3 -45 -12 -60 -20 -39 -20
-90 -24 -96 -7 -3 10 2 12 20 8 19 -5 32 0 52 18 30 28 27 45 -8 45 -32 0 -39
10 -20 31 14 16 14 18 -4 28 -16 9 -50 9 -134 2 -14 -2 -8 -34 9 -53 9 -10 11
-18 5 -18 -6 0 -12 4 -14 10 -2 6 -18 3 -40 -8 -28 -13 -39 -25 -43 -48 -5
-24 -16 -35 -46 -48 -29 -13 -39 -23 -39 -41 0 -16 -6 -25 -21 -27 -12 -2 -26
-11 -30 -20 -5 -10 -13 -26 -18 -35 -4 -10 -16 -19 -25 -21 -12 -3 -16 4 -16
27 0 17 -2 31 -5 31 -3 0 -23 -11 -44 -25 -24 -16 -44 -23 -56 -19 -14 6 -16
3 -10 -14 5 -17 2 -22 -12 -22 -32 0 -43 -18 -31 -52 8 -21 8 -32 0 -37 -10
-6 13 -49 23 -43 16 8 25 -1 19 -22 -7 -27 23 -51 50 -40 9 3 16 1 16 -4 0
-11 37 -8 48 3 3 3 11 -9 16 -27 13 -39 49 -47 54 -12 2 16 8 20 26 17 13 -3
34 0 46 7 21 11 21 12 4 31 -20 22 -18 23 24 8 16 -5 32 -19 35 -30 7 -27 39
-24 67 6 13 14 26 23 28 20 3 -3 -5 -17 -19 -31 -21 -22 -22 -27 -8 -34 9 -6
16 -24 17 -46 2 -50 10 -54 36 -20 11 16 31 40 43 53 l21 24 7 -32 c9 -41 -10
-76 -47 -84 -16 -4 -40 -22 -55 -41 -23 -31 -27 -33 -43 -19 -26 24 -32 18
-28 -24 2 -28 0 -37 -8 -30 -7 5 -18 0 -32 -16 -27 -31 -28 -38 -2 -30 15 5
20 2 20 -14 0 -11 -4 -23 -10 -26 -5 -3 -10 -2 -10 4 0 9 -30 8 -70 -1 -8 -2
-23 -11 -34 -20 -11 -10 -27 -18 -37 -18 -23 0 -41 -24 -33 -44 7 -17 34 -22
34 -6 0 6 5 10 12 10 6 0 8 -3 5 -7 -4 -3 2 -12 13 -20 23 -16 27 -35 6 -27
-8 3 -17 1 -21 -5 -3 -6 2 -11 12 -11 14 -1 13 -4 -7 -15 -22 -12 -23 -14 -7
-20 9 -4 17 -14 17 -23 0 -12 5 -11 21 7 16 17 24 20 29 11 6 -9 9 -9 11 -1 9
25 38 -13 32 -41 -5 -24 -7 -26 -29 -16 -21 10 -29 7 -62 -19 -35 -28 -63 -41
-101 -48 -19 -3 -79 31 -103 60 -17 20 -17 20 -19 -5 -1 -17 -3 -20 -6 -7 -6
21 -23 23 -23 2 0 -11 -7 -14 -25 -9 -20 5 -25 2 -26 -12 0 -16 -2 -15 -9 4
-10 24 -25 29 -34 10 -4 -7 -4 -3 -2 10 6 30 -19 40 -44 17 -18 -16 -20 -16
-26 -2 -3 9 -3 20 0 25 3 6 -1 15 -9 22 -20 17 -19 34 1 26 11 -4 15 -2 11 8
-3 8 -1 17 6 20 9 3 8 8 -3 15 -19 14 -50 14 -50 0 0 -5 -5 -7 -11 -4 -6 4 -8
13 -5 21 3 8 1 14 -4 14 -6 0 -10 4 -10 9 0 5 18 1 40 -10 21 -10 44 -19 50
-19 5 0 10 -4 10 -9 0 -5 8 -12 18 -16 28 -12 92 -15 92 -5 0 17 -21 65 -32
71 -10 7 -14 44 -7 68 2 8 -5 14 -18 16 -13 1 -23 -2 -23 -6 0 -9 -58 -39 -76
-39 -8 0 -19 9 -26 20 -7 11 -18 20 -25 20 -19 0 -16 14 6 34 15 14 20 14 25
4 5 -10 7 -10 12 0 3 6 11 10 17 6 7 -3 4 1 -5 9 -23 18 -24 41 -2 33 14 -5
15 -4 5 8 -9 11 -10 20 -1 36 6 11 9 24 6 29 -5 7 30 39 68 63 8 5 7 11 -2 20
-14 14 -16 48 -2 48 6 0 10 5 10 10 0 6 -8 10 -17 10 -15 0 -16 2 -3 10 8 5
10 10 5 10 -6 0 -16 -5 -23 -12 -10 -9 -16 -8 -29 5 -10 9 -12 17 -6 17 13 0
5 37 -10 47 -5 3 -7 1 -4 -4 4 -6 0 -16 -8 -23 -13 -11 -20 -9 -38 9 -31 28
-35 27 -39 -11 -2 -28 -7 -33 -30 -35 -15 -1 -30 2 -33 8 -4 5 1 9 10 9 9 0
13 5 10 10 -4 6 -1 18 6 26 10 12 8 19 -12 40 -17 18 -19 23 -6 18 12 -4 17
-1 17 10 0 9 -7 16 -15 16 -9 0 -26 7 -40 16 -19 12 -28 13 -46 3 -20 -10 -25
-9 -41 11 -10 13 -22 19 -26 15 -4 -4 -1 -10 6 -12 18 -7 14 -31 -8 -45 -23
-15 -27 -40 -5 -32 18 7 47 -14 39 -28 -3 -5 -11 -5 -19 2 -21 18 -26 -5 -10
-44 9 -20 13 -41 10 -47 -4 -5 1 -16 10 -25 19 -19 15 -27 -9 -18 -12 5 -16
14 -13 30 2 13 -2 29 -9 35 -8 6 -11 15 -9 20 6 8 -34 35 -47 31 -5 -1 -8 6
-8 17 0 10 -7 24 -15 31 -12 10 -15 10 -15 -3 0 -17 -26 -47 -41 -47 -6 0 -6
7 -1 17 12 25 10 36 -13 67 -21 28 -41 35 -31 11 4 -11 -1 -15 -17 -15 -18 0
-19 2 -7 10 8 5 11 10 6 10 -12 0 -90 -52 -94 -63 -2 -4 -10 -3 -18 4 -11 9
-12 15 -3 25 9 12 15 12 27 2 13 -11 14 -10 10 2 -2 8 -15 17 -29 21 -13 4
-18 7 -10 8 9 1 10 5 3 14 -13 15 -13 67 0 67 6 0 7 8 4 17 -4 9 -1 20 6 25
10 8 10 11 0 15 -6 2 -10 8 -8 12 3 4 -11 6 -30 5 -25 -2 -40 3 -59 22 -27 26
-32 44 -14 44 7 0 8 7 4 18 -4 9 -8 23 -8 30 0 8 -8 10 -21 6 -27 -9 -36 -22
-36 -56 0 -15 -5 -30 -10 -33 -6 -4 -7 -11 -4 -17 4 -6 -2 -6 -15 1 -21 11
-29 50 -14 65 5 4 8 11 8 15 0 4 8 16 18 25 10 10 21 31 24 47 3 16 10 32 15
35 5 3 1 12 -8 19 -16 11 -16 13 6 25 17 9 25 10 28 2 2 -6 10 -8 18 -5 13 5
15 0 19 -48 1 -23 24 -49 39 -43 6 2 21 -4 33 -15 11 -11 24 -17 28 -13 4 4
13 -2 21 -12 14 -20 14 -20 14 0 0 11 -6 26 -12 33 -10 11 -10 13 0 7 7 -4 12
-2 13 6 0 7 4 3 10 -10 7 -19 11 -21 23 -10 12 11 12 16 -2 31 -10 11 -25 17
-39 14 -12 -2 -20 0 -17 4 3 5 -6 13 -19 18 -27 10 -45 31 -28 31 6 0 11 7 11
15 0 9 -9 15 -25 15 -15 0 -36 11 -49 25 -13 14 -30 25 -39 25 -19 0 -31 31
-15 41 7 5 17 0 26 -12 7 -10 18 -19 24 -19 6 0 5 7 -3 17 -12 15 -12 16 4 10
10 -4 17 -2 17 5 0 6 2 9 5 6 3 -3 1 -16 -4 -30 -9 -23 -7 -25 20 -26 16 0 29
3 29 8 0 5 3 16 7 26 5 14 2 16 -15 12 -15 -4 -20 -1 -19 11 1 12 12 16 47 18
37 1 48 -3 63 -23 10 -13 13 -24 7 -24 -6 0 -13 7 -16 15 -5 11 -10 13 -19 5
-6 -5 -15 -6 -20 -2 -4 4 -6 0 -3 -8 3 -10 19 -15 46 -16 35 -1 42 2 42 18 0
11 -4 17 -8 14 -5 -3 -9 1 -9 9 0 8 4 15 9 15 4 0 8 -5 8 -11 0 -6 7 -8 16 -5
15 6 15 4 3 -10 -13 -16 -12 -16 9 -5 18 9 22 9 20 -1 -2 -6 4 -12 12 -13 10
0 14 -10 13 -28 -1 -18 3 -27 13 -27 10 0 14 12 14 38 0 31 -5 41 -25 52 -13
7 -22 17 -19 22 4 6 10 6 16 0 13 -13 60 7 55 22 -3 6 -9 10 -14 9 -5 -1 -9
12 -8 28 1 16 -3 33 -9 36 -16 10 -46 11 -40 2 3 -5 -14 -6 -37 -3 -29 4 -39
3 -35 -5 4 -6 11 -9 16 -6 5 3 11 1 15 -5 4 -6 10 -8 15 -5 5 3 8 -4 7 -15 -1
-15 -7 -20 -22 -18 -11 2 -19 -2 -18 -8 1 -7 -7 -14 -17 -17 -13 -3 -20 0 -20
9 0 8 5 14 10 14 6 0 10 7 10 15 0 18 -12 19 -29 3 -11 -11 -12 -9 -7 8 4 13
0 30 -12 44 -16 20 -21 21 -40 9 -12 -8 -20 -19 -18 -26 3 -8 -1 -10 -11 -6
-9 4 -14 2 -10 -3 3 -6 2 -16 -4 -24 -7 -13 -9 -12 -9 2 0 9 -5 20 -12 24 -8
5 -9 2 -5 -9 3 -10 2 -17 -3 -17 -6 0 -10 5 -10 10 0 6 -15 10 -34 10 -19 0
-38 5 -41 11 -11 18 2 22 34 11 40 -14 40 2 1 20 -16 7 -30 19 -30 27 0 7 -6
11 -15 8 -8 -4 -17 -2 -20 3 -4 6 -1 11 4 11 6 1 15 2 20 3 6 0 16 7 22 14 10
10 8 12 -12 12 -20 0 -21 2 -9 11 11 8 12 12 3 16 -7 2 -13 10 -13 16 0 5 3 7
7 4 3 -4 13 3 21 14 12 18 13 23 1 30 -11 7 -10 9 4 9 23 0 22 27 -2 40 -26
14 -31 13 -31 -6 0 -8 -4 -12 -10 -9 -5 3 -10 -1 -10 -9 0 -9 -5 -16 -11 -16
-5 0 -7 4 -4 10 3 6 -1 7 -9 4 -10 -4 -16 -1 -16 9 0 19 -17 25 -62 22 -28 -1
-38 2 -41 17 -3 10 -1 18 4 18 15 0 10 20 -7 27 -10 4 -22 -1 -30 -11 -14 -20
-34 -14 -34 10 0 8 5 12 10 9 6 -3 11 4 11 17 1 17 3 18 6 6 7 -27 91 -28 106
-2 4 8 13 14 20 14 9 0 8 -3 -1 -8 -9 -6 -10 -15 -3 -33 5 -13 10 -20 10 -15
1 5 7 4 14 -2 9 -8 20 -7 37 2 19 9 24 19 22 40 -2 16 4 36 14 47 15 16 19 17
37 4 24 -17 33 -55 15 -66 -7 -4 -10 -10 -7 -14 3 -3 15 3 27 13 12 11 19 21
17 24 -3 3 1 11 10 18 12 10 15 10 15 -2 0 -21 29 -18 36 4 4 13 10 16 22 9 9
-4 22 -6 29 -4 7 3 10 -3 7 -14 -6 -23 31 -29 40 -7 3 9 1 12 -4 9 -6 -4 -9 3
-7 14 4 26 17 40 17 19 0 -19 22 -29 39 -18 10 6 9 14 -5 36 -14 22 -15 26 -3
17 12 -10 18 -10 28 0 10 9 11 8 6 -5 -4 -10 -3 -18 3 -18 13 0 23 27 16 45
-4 8 -1 22 6 30 10 13 9 19 -6 37 -18 20 -18 21 -1 15 13 -5 17 -3 15 5 -3 7
-18 14 -34 16 -16 2 -33 8 -38 12 -6 6 -14 3 -21 -7 -12 -16 -35 -11 -35 8 0
6 4 8 9 5 5 -3 14 1 21 9 10 12 9 16 -3 21 -14 5 -41 11 -59 13 -3 1 -10 12
-15 26 l-8 25 -36 -24 c-24 -17 -40 -21 -50 -15 -11 7 -10 9 6 9 15 0 17 2 6
9 -9 6 -10 11 -2 15 8 5 8 13 1 25 -9 17 -6 18 25 11 29 -7 37 -5 45 11 6 10
16 18 23 16 7 -1 11 4 9 12 -2 9 3 11 13 7 9 -3 13 -2 10 4 -3 6 4 10 17 10
19 0 20 2 8 11 -11 8 -12 12 -2 16 17 7 15 32 -3 39 -8 4 -15 15 -15 26 0 14
-5 18 -19 13 -13 -4 -20 0 -24 15 -3 13 0 20 10 20 8 0 22 8 31 17 16 16 17
16 20 0 2 -9 10 -17 19 -17 10 0 13 6 9 16 -3 8 -2 12 4 9 6 -3 10 -2 10 3 0
6 10 8 23 5 21 -4 22 -4 3 11 -11 9 -23 16 -28 16 -4 0 -8 5 -8 10 0 7 6 7 20
0 16 -9 20 -8 20 5 0 8 6 15 14 15 7 0 19 7 26 15 9 10 17 12 23 6 5 -5 16 -7
23 -4 10 3 12 0 8 -10 -3 -8 0 -18 5 -22 6 -3 8 -12 5 -18 -5 -9 -4 -9 6 0 16
15 -15 83 -46 98 -12 6 -29 17 -37 24 -9 7 -21 10 -27 6 -5 -3 -10 1 -10 9 0
13 -8 15 -36 10 -33 -5 -36 -4 -31 15 3 14 -1 22 -15 26 -15 5 -17 10 -7 21 9
11 8 14 -2 14 -8 0 -6 5 6 12 11 6 21 12 23 13 2 2 -11 18 -29 36 -20 22 -33
30 -36 21 -3 -6 -9 -10 -13 -7 -5 3 -6 13 -3 23 6 16 6 16 -11 0 -9 -10 -22
-18 -29 -18 -6 0 -2 7 9 15 14 11 15 14 2 9 -10 -3 -20 2 -28 15 -6 12 -18 21
-27 21 -10 0 -14 6 -10 19 6 23 -20 38 -37 21 -13 -13 -46 -13 -46 -1 0 6 5
13 10 16 8 5 7 12 -2 23 -11 14 -10 15 6 9 14 -6 17 -4 12 9 -3 9 3 28 14 44
26 37 25 51 -3 46 -14 -2 -34 6 -52 21 -17 14 -24 22 -17 19 6 -4 12 -3 12 3
0 11 56 41 76 41 7 0 15 -6 18 -12 3 -7 5 -4 3 7 -1 11 2 26 7 34 5 8 4 16 -4
21 -7 4 -9 13 -6 19 4 6 0 14 -8 17 -19 7 -21 30 -3 38 8 4 7 5 -3 5 -31 -2
-40 1 -40 15 0 14 27 31 44 27 4 -1 14 3 22 10 10 8 11 15 1 30 -9 15 -19 18
-42 14 -21 -4 -26 -3 -16 3 11 8 8 13 -15 26 -16 8 -23 15 -16 16 6 0 12 4 12
9 0 4 -11 6 -25 3 -19 -3 -23 -7 -15 -17 19 -23 22 -65 5 -65 -9 0 -13 5 -10
10 3 6 1 10 -5 10 -7 0 -9 7 -6 16 4 10 2 13 -6 8 -7 -5 -9 -2 -5 8 4 11 -1
18 -14 21 -11 3 -16 1 -13 -4 9 -15 -38 -78 -53 -72 -7 3 -13 0 -13 -6 0 -6 6
-11 13 -11 8 0 9 -2 1 -8 -6 -4 -14 -18 -18 -32 -6 -19 -5 -21 3 -10 9 13 11
13 11 -2 0 -9 3 -18 8 -21 4 -2 2 -3 -4 -1 -7 1 -21 -4 -32 -12 -12 -8 -25
-14 -29 -13 -23 4 -35 -2 -30 -16 4 -8 2 -17 -3 -20 -4 -3 -10 0 -12 7 -3 9
-6 9 -12 0 -4 -7 -2 -12 3 -12 6 0 11 -7 11 -15 0 -8 -4 -15 -10 -15 -5 0 -10
-7 -10 -15 0 -8 -4 -15 -10 -15 -5 0 -10 7 -10 15 0 8 -5 15 -11 15 -6 0 -9
-7 -5 -15 3 -8 -5 -25 -17 -38 -54 -57 -60 -69 -47 -90 10 -17 9 -22 -4 -29
-20 -11 -21 -42 0 -59 12 -10 17 -10 23 0 6 9 10 7 14 -9 5 -20 3 -21 -41 -14
-26 4 -50 12 -54 18 -6 8 -8 8 -8 0 0 -7 -11 -14 -25 -16 -30 -6 -34 8 -5 17
11 4 17 11 14 17 -4 6 0 14 7 19 16 9 12 14 -20 24 -16 5 -21 4 -17 -4 4 -6 3
-11 -3 -11 -9 0 -9 27 -1 65 5 23 -1 36 -12 29 -7 -4 -3 3 10 15 12 12 22 29
23 39 0 14 2 14 9 -3 8 -18 9 -17 9 7 1 14 7 28 14 31 8 3 7 10 -7 23 -18 19
-19 19 -12 0 4 -13 -3 -9 -26 13 -18 18 -39 29 -47 26 -7 -3 -22 1 -31 10 -15
14 -19 13 -36 -10 -23 -31 -34 -32 -27 -2 l5 22 -16 -22 c-10 -13 -22 -23 -28
-23 -7 0 -6 6 2 15 9 10 9 15 1 15 -11 0 -14 -11 -12 -45 2 -21 -50 -60 -63
-48 -3 3 -6 1 -6 -5 0 -7 5 -12 10 -12 6 0 10 -4 10 -10 0 -5 -5 -10 -11 -10
-6 0 -17 -6 -25 -14 -11 -11 -11 -16 -1 -20 7 -3 3 -7 -10 -11 -13 -4 -23 -11
-23 -16 0 -5 -12 -14 -26 -19 -14 -6 -23 -14 -20 -19 3 -5 -2 -8 -11 -7 -9 0
-18 -5 -20 -11 -3 -7 3 -13 12 -13 14 0 15 -3 6 -13 -6 -8 -8 -17 -4 -20 3 -4
-1 -7 -10 -7 -9 0 -17 -4 -17 -10 0 -22 -2 -26 -22 -47 -20 -21 -22 -21 -34
-5 -8 10 -14 12 -14 5 0 -7 -16 -15 -35 -19 -28 -5 -35 -11 -35 -30 0 -13 5
-24 11 -24 5 0 7 -6 3 -12 -6 -10 -4 -10 8 0 13 10 17 10 21 0 4 -10 6 -10 6
0 1 6 5 12 11 12 11 0 1 -32 -14 -42 -7 -5 -7 -8 2 -8 6 0 12 -10 12 -21 0
-17 3 -19 14 -10 18 15 32 -4 17 -23 -14 -16 -4 -26 17 -19 14 5 15 3 5 -7
-10 -11 -9 -16 5 -26 16 -12 16 -14 -4 -32 -11 -11 -32 -19 -47 -19 -14 0 -39
-11 -56 -24 -32 -25 -41 -59 -16 -59 8 0 15 -4 15 -10 0 -5 -5 -10 -12 -10 -6
0 -8 -3 -5 -7 4 -3 16 2 28 12 34 32 129 13 129 -25 0 -9 5 -21 12 -28 16 -16
2 -28 -16 -13 -8 7 -20 10 -26 6 -7 -4 -7 2 0 19 6 17 6 27 -2 32 -7 4 -8 3
-4 -4 9 -14 1 -15 -22 -3 -11 6 -21 4 -29 -5 -14 -14 0 -30 16 -19 8 5 24 -25
26 -48 0 -5 8 -15 19 -22 10 -8 15 -18 11 -24 -3 -6 -2 -11 4 -11 19 0 22 -39
5 -65 -15 -24 -29 -26 -29 -4 0 5 -4 9 -8 8 -5 0 -14 7 -21 16 -7 9 -19 16
-27 15 -26 -4 -40 0 -34 9 6 10 -11 24 -32 27 -7 1 -15 -1 -18 -6 -5 -8 -40
-6 -67 5 -11 4 -21 -1 -29 -17 -7 -13 -12 -26 -11 -30 1 -4 -5 -5 -13 -2 -9 4
-15 0 -15 -9 0 -22 20 -32 32 -16 8 11 9 10 4 -3 -3 -10 0 -20 6 -24 7 -5 9 3
6 23 -4 26 -1 29 16 25 14 -4 17 -2 11 9 -5 8 1 6 13 -5 12 -10 21 -21 20 -25
-2 -21 4 -31 21 -31 19 0 36 -25 32 -48 -1 -7 2 -12 6 -11 4 1 18 -2 31 -6 15
-5 19 -11 13 -19 -12 -14 -12 -28 1 -43 11 -13 1 -36 -12 -28 -14 9 -39 -6
-34 -20 8 -20 -75 -41 -88 -21 -11 16 -30 -14 -24 -37 3 -13 0 -17 -11 -13 -9
4 -17 -1 -20 -14 -3 -11 -12 -20 -19 -20 -8 0 -14 -4 -14 -10 0 -9 28 -14 57
-11 23 3 24 -20 1 -38 -23 -20 -58 -13 -58 11 0 7 5 6 15 -2 13 -11 14 -10 9
3 -8 21 -44 33 -54 17 -12 -19 -23 6 -16 35 5 20 0 25 -37 41 -23 10 -45 18
-49 18 -12 1 -41 47 -34 53 3 4 6 1 6 -5 0 -7 5 -12 10 -12 6 0 10 7 10 15 0
8 -6 15 -12 15 -10 0 -10 2 0 9 10 6 10 10 -2 20 -8 7 -21 9 -27 5 -9 -5 -10
-2 -6 9 11 30 -18 40 -60 19 -21 -11 -44 -17 -50 -15 -8 3 -13 -4 -13 -17 0
-14 -5 -20 -17 -18 -11 2 -22 -6 -28 -19 -16 -36 -35 -28 -35 15 0 27 3 33 10
22 17 -27 20 -4 4 29 -11 22 -13 36 -6 43 6 6 12 1 16 -16 8 -31 30 -34 50 -5
8 12 19 18 24 15 12 -7 35 18 25 27 -3 4 -15 7 -25 7 -11 0 -17 4 -13 9 3 6
-1 16 -9 23 -12 11 -12 16 4 33 14 16 16 25 8 45 -6 14 -12 20 -15 13 -3 -10
-10 -10 -25 -2 -11 6 -17 17 -14 24 3 8 0 15 -6 17 -7 3 -5 10 5 19 18 18 8
42 -12 30 -8 -5 -10 -14 -6 -21 5 -9 4 -11 -3 -6 -19 12 -13 30 13 43 20 9 25
8 25 -3 0 -8 5 -14 11 -14 5 0 8 4 4 9 -3 5 -1 12 4 16 15 9 1 37 -15 31 -9
-3 -14 2 -14 14 0 11 -6 29 -12 40 -10 16 -10 24 0 41 8 12 9 18 4 15 -6 -3
-17 1 -25 9 -12 11 -17 12 -20 2 -3 -7 -6 -5 -6 6 -1 9 2 17 7 17 4 0 20 12
36 27 26 23 27 28 12 38 -8 7 -13 15 -10 18 3 3 -4 3 -16 0 -17 -5 -21 -2 -18
13 2 11 -3 19 -9 18 -37 -3 -43 -5 -43 -14 0 -5 6 -10 14 -10 17 0 31 -18 22
-27 -3 -3 -12 0 -21 7 -11 9 -15 9 -15 1 0 -7 -4 -10 -10 -6 -5 3 -7 12 -3 20
3 10 -2 15 -16 16 -31 2 -33 3 -68 24 -18 11 -33 23 -33 28 0 4 -16 6 -35 3
-28 -5 -37 -2 -42 12 -12 33 -25 43 -39 31 -9 -7 -14 -8 -14 -1 0 5 -7 12 -14
15 -11 4 -13 1 -9 -11 5 -14 4 -15 -8 -4 -12 11 -10 16 10 33 13 11 31 17 39
14 12 -4 13 1 9 25 -4 19 -2 30 4 30 6 0 8 7 5 15 -3 9 1 18 9 21 8 4 15 13
15 21 0 8 5 11 11 8 6 -4 9 0 7 11 -2 13 3 19 14 18 14 -1 16 4 11 28 -5 28
-4 29 14 19 17 -9 20 -8 19 7 0 9 -5 20 -11 24 -6 5 -5 12 2 19 10 10 14 7 21
-10 l8 -23 31 31 c17 17 36 31 41 31 5 0 13 7 16 15 7 18 -17 31 -36 19 -28
-18 -43 -13 -43 11 0 14 6 25 13 25 7 0 11 -4 7 -9 -11 -18 16 -23 35 -6 18
16 19 15 35 -14 18 -35 30 -41 22 -11 -4 15 0 20 13 20 10 0 27 3 37 7 16 6
16 5 5 -10 -8 -8 -20 -13 -28 -10 -8 3 -14 0 -14 -6 0 -6 3 -10 8 -9 4 0 15
-2 25 -7 13 -5 24 0 40 19 13 14 29 26 37 27 8 1 4 4 -10 8 -14 4 -30 18 -37
31 -8 15 -20 24 -29 22 -9 -2 -21 2 -25 10 -7 10 -9 9 -9 -4 0 -19 -8 -22 -35
-12 -12 5 -13 9 -5 14 8 5 5 9 -9 13 -11 3 -20 2 -19 -2 3 -24 -4 -30 -31 -25
-19 4 -30 1 -34 -9 -4 -10 -14 -13 -31 -10 -21 4 -24 8 -15 19 21 26 -38 16
-67 -11 -15 -14 -31 -25 -35 -25 -5 0 -9 -7 -9 -15 0 -8 -4 -15 -10 -15 -14 0
-12 12 7 40 l16 25 -24 -22 c-14 -13 -28 -23 -30 -23 -3 0 -5 10 -4 23 1 15
10 24 27 27 24 5 25 6 12 40 l-14 35 6 -32 c5 -27 2 -33 -12 -33 -10 0 -28
-10 -41 -22 -20 -18 -23 -19 -23 -5 0 9 -4 17 -9 17 -21 0 -41 -13 -41 -27 0
-10 -7 -13 -22 -9 -13 3 -17 3 -10 0 16 -7 16 -24 -1 -24 -7 0 -20 -9 -30 -20
-9 -11 -13 -20 -8 -20 5 0 12 -10 14 -22 4 -21 4 -20 6 3 1 34 33 44 55 17 9
-10 15 -22 12 -26 -2 -4 11 -7 30 -6 19 1 34 -3 34 -8 0 -6 -6 -8 -14 -5 -9 4
-20 -6 -30 -26 -10 -20 -16 -25 -16 -14 0 14 -6 16 -30 12 -22 -4 -30 -1 -30
10 0 8 -9 15 -21 15 -11 0 -17 4 -14 10 4 7 -3 9 -22 5 -21 -5 -24 -4 -13 4 8
5 11 13 7 17 -4 4 -12 3 -19 -4 -8 -8 -8 -15 1 -26 9 -11 9 -15 -1 -19 -10 -3
-10 -7 -1 -17 6 -7 9 -18 7 -25 -4 -9 4 -12 25 -11 23 2 31 -2 31 -15 0 -9 -8
-20 -17 -24 -17 -7 -16 -8 2 -15 19 -8 19 -9 -2 -9 -12 -1 -25 3 -28 9 -8 12
-45 -10 -45 -27 0 -19 17 -16 24 4 6 15 8 15 16 3 7 -11 2 -18 -18 -26 -23
-10 -24 -13 -7 -13 18 -1 18 -3 3 -11 -9 -6 -27 -8 -40 -6 -13 3 -29 5 -35 5
-7 1 -13 8 -13 17 0 11 -5 14 -16 10 -8 -3 -25 -1 -36 5 -12 6 -23 7 -27 2 -3
-5 -19 -10 -35 -11 -38 -3 -45 -11 -24 -26 11 -8 14 -17 7 -27 -7 -12 -9 -11
-9 2 0 9 -7 20 -16 23 -28 11 -30 -4 -4 -24 21 -16 27 -17 39 -5 12 12 17 11
37 -2 22 -14 36 -41 14 -28 -6 4 -7 -1 -3 -11 5 -14 8 -13 19 7 7 13 14 20 14
14 0 -5 4 -4 8 2 5 9 17 -1 35 -29 26 -40 26 -43 9 -49 -10 -4 -25 -21 -32
-38 -7 -17 -19 -31 -27 -31 -9 0 -13 -6 -10 -14 4 -10 1 -13 -9 -9 -8 3 -12 8
-10 11 3 3 1 11 -5 19 -9 10 -7 13 7 14 11 1 22 1 26 1 3 -1 12 5 18 13 9 11
9 15 1 15 -9 0 -9 5 -1 20 16 29 1 46 -17 21 -17 -26 -34 -27 -28 -3 3 9 -2 2
-10 -15 -8 -18 -18 -33 -21 -33 -3 0 -2 5 1 10 3 6 -1 10 -10 10 -11 0 -15 -5
-11 -15 3 -8 1 -15 -5 -15 -6 0 -8 11 -4 29 6 29 5 30 -26 26 -40 -5 -45 -11
-30 -29 13 -16 7 -36 -11 -36 -6 0 -16 -7 -23 -16 -9 -14 -16 -14 -33 -5 -13
7 -27 9 -32 6 -6 -4 -9 -2 -8 3 2 6 -1 10 -6 10 -5 0 -13 7 -18 16 -5 9 -16
16 -25 16 -9 0 -13 6 -9 15 3 9 11 45 18 80 6 36 15 65 19 65 4 0 20 -16 35
-35 15 -20 29 -33 32 -30 3 3 -2 13 -11 23 -19 20 -23 37 -7 27 6 -3 10 -4 10
-1 0 11 -25 62 -35 69 -6 5 0 7 13 4 12 -3 22 -1 22 4 0 5 -5 9 -11 9 -6 0 -9
6 -6 13 2 6 12 12 23 12 14 0 19 7 17 28 -1 15 2 25 8 22 5 -4 9 1 9 11 0 12
3 14 13 5 10 -8 17 -7 27 2 10 10 12 9 7 -5 -5 -15 -1 -16 23 -12 22 5 29 2
32 -12 3 -16 9 -14 41 18 23 22 35 42 31 51 -3 10 3 18 18 22 27 9 38 23 38
49 0 15 -5 12 -29 -13 -34 -36 -49 -38 -81 -11 -27 24 -41 27 -19 4 22 -21 13
-63 -11 -57 -11 3 -16 11 -13 19 7 20 -7 17 -23 -3 -12 -17 -13 -16 -14 5 0
24 27 31 48 10 8 -8 12 -8 12 -1 0 6 -7 16 -15 23 -9 8 -13 20 -9 29 4 9 6 26
5 38 -1 27 53 61 65 41 5 -7 10 -4 15 10 9 23 52 31 64 12 4 -6 11 -8 16 -4 6
3 17 -3 25 -15 8 -12 24 -21 35 -21 25 0 24 8 -5 35 l-24 22 29 -1 c16 -1 29
-4 29 -8 0 -5 5 -8 11 -8 6 0 9 9 6 19 -3 11 1 22 8 25 7 2 15 -5 19 -17 l6
-22 16 23 c13 19 19 21 30 11 12 -10 17 -9 27 1 9 9 9 11 0 6 -6 -3 -14 -2
-17 3 -3 5 2 12 11 16 10 3 19 1 21 -4 2 -6 8 -9 13 -5 5 3 5 13 -1 25 -9 15
-7 19 6 19 15 0 15 2 -2 22 -18 20 -18 21 -1 15 13 -5 17 -3 15 5 -3 7 -14 14
-26 16 -23 4 -28 18 -12 42 8 13 11 12 24 -5 12 -15 15 -16 16 -5 0 8 -11 27
-25 42 -14 15 -25 29 -25 31 0 2 18 10 40 17 21 7 37 17 34 21 -8 13 -42 11
-47 -3 -4 -10 -6 -10 -6 0 -1 7 -14 12 -31 12 -17 0 -30 -5 -30 -12 0 -10 -2
-10 -9 0 -6 10 -31 12 -93 10 -72 -2 -85 -5 -80 -18 5 -13 4 -13 -10 1 -11 11
-38 16 -87 17 l-71 2 6 -25 c3 -14 2 -31 -4 -38 -6 -8 -4 -18 9 -31 13 -14 19
-15 19 -6 0 10 3 11 11 3 13 -13 2 -73 -13 -73 -6 0 -8 10 -4 25 8 30 1 32
-14 4 -10 -17 -8 -24 11 -40 12 -10 16 -19 9 -19 -6 0 -10 -6 -7 -13 3 -7 -4
-24 -14 -38 -10 -13 -19 -19 -19 -13 0 5 6 16 13 23 10 10 8 14 -6 22 -9 6
-15 14 -12 19 3 4 -4 6 -15 3 -21 -5 -21 -6 -1 -19 17 -12 18 -18 8 -49 -7
-24 -16 -35 -26 -33 -9 2 -15 11 -13 20 1 9 -2 19 -8 23 -10 6 -14 -6 -11 -37
1 -10 -4 -18 -13 -18 -14 0 -21 -18 -17 -43 1 -9 -53 -67 -63 -67 -4 0 -5 4
-2 9 3 5 -2 8 -11 7 -23 -2 -32 40 -35 163 -2 92 1 111 19 146 28 54 60 88 72
80 6 -3 11 -1 11 4 0 6 -13 11 -30 11 -24 0 -34 -7 -52 -40 -13 -22 -28 -40
-35 -40 -6 0 -14 -14 -18 -30 -4 -17 -11 -27 -16 -24 -6 3 -8 12 -5 20 3 8 0
13 -7 11 -8 -1 -13 16 -15 51 -3 53 -22 74 -22 25 l-1 -28 -22 28 c-22 26 -37
35 -37 20z m-1130 -514 c3 -1 14 -2 25 -3 11 -1 21 -9 23 -20 3 -11 0 -16 -7
-12 -6 4 -20 2 -31 -4 -17 -9 -20 -8 -20 10 0 11 -4 20 -10 20 -5 0 -10 -7
-10 -15 0 -8 -4 -15 -10 -15 -5 0 -10 -9 -10 -20 0 -18 -2 -19 -21 -8 -17 11
-22 10 -35 -6 -8 -11 -14 -27 -14 -35 1 -14 3 -14 14 1 15 20 38 5 29 -18 -3
-8 0 -14 6 -14 6 0 11 5 11 10 0 6 5 10 10 10 6 0 3 -11 -7 -24 -12 -16 -20
-20 -25 -12 -4 6 -8 7 -9 1 0 -5 -2 -18 -4 -28 -3 -15 1 -18 16 -14 16 4 19 2
13 -16 -10 -33 -24 -44 -24 -19 0 12 -4 22 -10 22 -15 0 -12 -46 4 -62 15 -15
31 -58 28 -72 -2 -4 3 -15 10 -24 10 -12 10 -16 1 -19 -23 -8 -14 -19 14 -18
25 0 27 -3 29 -47 2 -38 0 -46 -13 -41 -13 5 -12 1 3 -23 10 -16 14 -26 9 -21
-5 4 -14 -6 -21 -23 -9 -21 -20 -30 -35 -30 -22 0 -22 1 -4 14 17 12 16 13
-10 20 -25 6 -26 8 -10 20 10 7 15 18 11 24 -4 7 -2 12 3 12 13 0 14 10 1 30
-8 13 -11 12 -24 -5 -9 -11 -16 -26 -16 -34 0 -8 -7 -23 -16 -33 -16 -16 -16
-18 0 -24 9 -3 23 -3 32 0 14 5 15 4 4 -9 -7 -8 -16 -13 -20 -10 -5 3 -12 0
-15 -5 -12 -19 -13 -65 -3 -71 12 -7 -27 -69 -42 -69 -5 0 -45 -35 -90 -77
-46 -43 -86 -79 -90 -81 -16 -6 -21 33 -6 44 23 16 20 22 -21 39 -20 8 -33 18
-29 22 3 4 12 1 18 -5 18 -18 32 -14 17 4 -10 13 -10 17 0 24 10 6 10 9 1 15
-7 4 -17 1 -22 -6 -7 -11 -11 -11 -15 -1 -7 18 -75 44 -86 33 -15 -15 2 -34
19 -20 10 8 14 8 14 0 0 -6 6 -11 14 -11 19 0 28 -28 15 -51 -9 -18 -7 -19 14
-14 19 5 25 2 30 -16 4 -14 0 -27 -10 -34 -12 -9 -13 -16 -5 -31 8 -16 1 -27
-54 -77 -61 -56 -84 -64 -84 -30 0 9 6 13 14 10 20 -8 28 4 14 20 -8 11 -7 12
6 7 9 -3 16 -1 16 5 0 6 -4 11 -10 11 -5 0 -10 5 -10 10 0 6 -13 29 -30 51
-30 42 -31 65 -3 55 11 -5 14 -1 10 13 -3 11 1 28 9 38 13 16 14 16 8 -9 -4
-18 -2 -28 5 -28 19 0 24 27 9 52 -7 13 -13 30 -14 38 -3 28 -9 45 -19 52 -18
13 17 37 40 28 19 -8 19 -9 -2 -9 -25 -1 -26 -2 -17 -25 4 -11 13 -14 30 -10
15 4 24 2 24 -6 0 -6 4 -9 9 -6 5 4 22 1 38 -5 49 -20 81 -17 88 8 4 19 10 22
36 16 29 -5 30 -5 23 22 -5 21 -2 31 10 40 15 11 14 14 -9 29 -14 9 -23 21
-20 26 3 5 1 11 -4 14 -5 4 -12 -3 -16 -14 -11 -34 -28 -23 -21 13 4 24 3 28
-5 17 -8 -11 -12 -12 -16 -2 -2 6 -9 10 -14 6 -5 -3 -9 0 -9 5 0 6 8 11 17 11
13 0 14 3 5 12 -7 7 -12 16 -12 22 0 5 10 -2 21 -15 12 -13 23 -19 26 -14 12
32 21 37 42 26 12 -7 21 -8 21 -2 0 5 -10 13 -21 16 -17 6 -18 9 -8 16 7 4 10
11 6 16 -4 4 -16 2 -25 -3 -12 -8 -22 -8 -35 0 -14 8 -20 8 -27 -4 -8 -12 -10
-12 -16 3 -7 20 -26 23 -23 5 3 -26 -1 -39 -11 -33 -5 3 -7 12 -3 20 4 11 -2
15 -20 15 -19 0 -26 6 -30 27 -5 24 -4 26 8 10 14 -19 40 -14 50 10 13 34 -50
40 -82 8 -8 -8 -19 -15 -24 -15 -13 0 15 29 49 52 16 11 36 15 54 11 21 -4 28
-2 28 10 0 14 52 40 135 68 22 7 44 17 49 21 6 4 15 8 20 8 6 0 4 -5 -4 -11
-11 -7 -12 -12 -3 -15 7 -3 9 -12 6 -21 -4 -11 -2 -14 5 -9 7 4 12 1 12 -7 0
-10 8 -13 25 -9 25 4 34 26 15 37 -12 8 -3 47 14 57 22 14 -2 18 -29 4 -31
-16 -55 -11 -55 11 0 8 -4 11 -10 8 -5 -3 -10 -14 -10 -24 0 -11 -14 -25 -34
-35 -43 -20 -63 -21 -47 -2 9 11 7 15 -11 19 -21 6 -21 7 -3 27 10 11 16 21
14 23 -43 25 -52 28 -62 18 -8 -8 -6 -11 7 -11 15 0 17 -5 11 -27 -14 -52 -12
-68 10 -65 20 2 20 2 1 -12 -10 -9 -42 -23 -70 -32 -28 -9 -68 -27 -89 -41
-22 -13 -41 -22 -45 -19 -3 3 0 6 6 6 22 0 12 18 -13 24 -24 6 -36 26 -15 26
5 0 12 16 16 35 3 19 10 38 15 41 5 3 9 13 9 23 0 9 6 23 13 30 6 6 12 15 12
19 1 4 8 21 18 39 13 24 21 30 38 26 18 -5 21 -3 16 10 -3 9 -2 19 3 22 6 4
10 1 10 -5 0 -7 7 -7 23 1 20 11 21 11 8 -4 -10 -12 -10 -21 -3 -30 13 -15 72
-21 72 -7 0 5 -3 9 -7 9 -21 -3 -33 3 -33 17 0 14 5 13 34 -4 32 -19 46 -19
46 0 0 4 -6 8 -13 8 -18 0 -59 39 -55 52 2 5 6 8 8 7 3 -1 16 3 30 11 21 10
23 10 12 -1 -16 -17 -15 -29 1 -29 8 0 19 10 25 23 10 21 11 20 13 -13 1 -19
1 -41 0 -49 -2 -7 2 -10 8 -7 5 4 12 -2 16 -13 6 -20 45 -18 45 3 0 6 5 4 10
-4 9 -13 12 -13 21 3 6 9 14 15 20 12 5 -4 9 0 9 9 0 8 -6 17 -12 19 -7 3 -1
6 15 6 15 1 27 6 27 11 0 6 7 10 15 10 8 0 19 9 25 19 8 16 28 20 50 10z m350
-99 c-12 -23 -21 -25 -38 -8 -9 9 -12 8 -12 -5 0 -9 -4 -17 -10 -17 -19 0 -10
-38 10 -43 13 -3 20 0 20 9 0 11 4 12 18 3 20 -13 24 -60 5 -67 -7 -2 -13 -9
-13 -15 0 -14 -39 -41 -47 -33 -11 11 -42 -14 -37 -29 4 -8 11 -12 18 -8 6 3
-5 -10 -23 -30 -22 -23 -44 -37 -59 -37 -17 0 -23 -4 -18 -15 7 -20 -31 -44
-75 -48 -21 -1 -34 -8 -34 -16 0 -16 -42 -34 -49 -22 -3 4 3 17 14 28 14 15
16 23 7 32 -8 8 -8 11 2 11 7 0 9 5 6 11 -4 6 -13 8 -21 5 -25 -9 -42 5 -48
39 -4 19 -14 39 -24 44 -21 12 -11 24 12 15 9 -3 16 -14 16 -24 0 -11 5 -22
10 -25 6 -3 10 -2 10 4 0 11 39 9 59 -3 10 -7 11 -4 1 14 -8 15 -18 20 -31 17
-22 -6 -41 24 -21 31 7 2 12 13 12 25 0 16 -3 18 -12 9 -19 -19 -26 -14 -20
13 3 20 7 23 18 14 11 -9 15 -7 21 7 3 11 11 22 15 25 5 3 11 14 12 24 3 23
26 32 26 11 0 -9 5 -16 10 -16 6 0 10 5 10 11 0 13 43 1 49 -13 2 -6 8 -4 13
3 7 10 8 4 4 -18 -6 -37 1 -66 15 -57 5 3 9 14 9 25 0 23 17 25 42 2 23 -21
36 -9 16 14 -15 19 -13 53 3 53 6 0 7 9 4 22 -6 16 -4 20 8 15 8 -3 18 0 21 8
3 8 22 16 43 18 21 2 39 4 41 5 1 1 -2 -7 -8 -18z m-505 -729 c5 -24 10 -28
28 -23 12 3 26 11 30 19 4 7 14 13 21 13 8 0 19 7 26 15 7 9 15 14 17 11 6 -6
-42 -52 -62 -59 -10 -4 -15 -15 -13 -29 2 -13 -2 -22 -8 -21 -14 3 -36 -23
-52 -60 -11 -26 -11 -28 8 -22 12 4 20 2 20 -5 0 -8 8 -7 25 4 14 9 25 12 25
7 0 -5 -4 -13 -10 -16 -15 -9 -12 -25 5 -25 18 0 20 -21 3 -39 -7 -8 -8 -11
-3 -8 17 9 39 -9 32 -27 -5 -14 -10 -14 -26 -4 -15 9 -25 9 -45 0 -25 -11 -36
-32 -17 -32 12 0 8 -27 -7 -42 -18 -18 -15 -22 33 -43 45 -20 58 -35 30 -35
-8 0 -15 -6 -16 -12 0 -10 -2 -10 -6 0 -6 17 -23 15 -23 -2 0 -19 -21 -26 -44
-14 -15 8 -16 12 -5 20 11 7 11 11 1 15 -7 2 -19 11 -27 20 -8 8 -15 11 -15 7
0 -3 -7 -1 -15 6 -8 7 -24 10 -35 7 -12 -3 -20 -1 -19 6 5 46 -9 45 -59 -1
-24 -22 -38 -29 -43 -21 -4 7 -14 9 -22 6 -11 -4 -13 0 -9 15 4 18 2 20 -19
14 -40 -12 -89 -15 -89 -5 0 5 5 9 10 9 6 0 5 8 -2 20 -15 23 -18 20 122 158
72 71 110 102 122 98 10 -2 21 0 24 6 4 6 10 5 15 -3 13 -22 23 -1 11 26 -10
22 -8 27 25 54 41 34 49 33 58 -8z m1980 -328 c-6 -18 30 -53 54 -53 17 0 20
-7 19 -42 -1 -27 -9 -51 -20 -64 -10 -12 -18 -28 -16 -35 2 -9 -7 -15 -24 -17
-16 -2 -28 -8 -28 -13 0 -5 -7 -9 -16 -9 -13 0 -14 3 -5 14 8 10 9 16 1 21
-14 9 -13 21 7 41 16 15 16 17 0 29 -9 7 -17 20 -17 29 0 19 -17 22 -22 3 -2
-10 -8 -10 -25 -2 -15 8 -19 15 -13 25 7 11 12 12 20 4 6 -6 22 -9 36 -6 19 3
24 9 21 23 -3 13 0 19 10 19 14 0 14 3 0 23 -13 21 -13 23 4 23 12 0 18 -5 14
-13z m-2246 -124 c16 -34 19 -37 24 -20 7 27 37 28 37 2 0 -11 10 -27 22 -35
12 -9 16 -16 9 -16 -8 0 -11 -6 -7 -16 3 -8 -1 -28 -9 -44 -17 -33 -19 -44 -6
-36 5 4 11 0 14 -6 3 -10 9 -10 23 -2 24 14 45 7 37 -13 -5 -12 -1 -14 16 -8
14 4 21 3 19 -6 -5 -19 -47 -63 -55 -56 -3 4 -13 1 -21 -5 -8 -7 -22 -13 -31
-13 -9 0 -15 -7 -15 -16 2 -28 -44 -19 -72 14 -51 61 -130 259 -114 286 8 14
11 13 16 -7 4 -13 12 -21 19 -18 8 3 11 -2 8 -15 -3 -10 -1 -19 5 -19 5 0 13
16 16 35 6 28 25 53 44 55 2 0 11 -18 21 -41z m1494 -108 c6 -24 37 -23 37 1
0 15 5 18 23 12 29 -8 35 -16 20 -21 -7 -3 -13 -11 -13 -19 0 -8 6 -14 13 -13
32 4 47 -2 47 -20 0 -11 5 -23 10 -26 22 -14 8 -23 -30 -21 -22 2 -40 -1 -40
-5 0 -5 7 -9 16 -9 20 0 15 -51 -5 -58 -10 -3 -12 1 -9 16 4 14 -1 23 -16 31
-30 15 -61 18 -59 5 1 -6 -5 -11 -13 -11 -12 0 -14 8 -10 33 5 23 2 33 -9 37
-8 4 -12 13 -9 20 3 8 -2 17 -11 21 -9 3 -13 2 -10 -4 3 -6 -3 -10 -14 -10
-23 0 -24 1 -15 24 3 9 10 13 15 10 5 -3 9 1 9 10 0 29 65 27 73 -3z m-439
-82 c14 -7 33 -28 42 -48 20 -43 44 -72 54 -66 4 3 14 -3 21 -13 13 -15 12
-16 -3 -3 -22 16 -23 3 -3 -24 10 -13 13 -30 9 -55 -4 -19 -3 -32 1 -28 12 11
35 -11 35 -34 0 -11 9 -32 21 -46 l21 -27 -23 -3 c-25 -4 -74 42 -64 59 4 5 1
9 -5 9 -7 0 -9 -7 -6 -16 7 -19 -19 -12 -86 23 -44 24 -58 44 -58 87 0 18 1
18 18 3 29 -27 59 -21 76 14 16 32 14 49 -7 49 -7 0 -6 -4 3 -11 11 -8 12 -12
3 -16 -7 -2 -13 -11 -13 -18 0 -8 -5 -17 -11 -20 -13 -9 -79 36 -79 54 0 22
22 141 26 141 1 0 14 -5 28 -11z m1921 -149 c27 -33 51 -58 54 -55 3 4 -1 10
-9 15 -12 7 -12 11 -2 20 6 5 10 7 7 4 -3 -4 0 -13 7 -21 8 -10 6 -19 -12 -38
-13 -14 -19 -25 -13 -25 6 0 14 8 17 17 6 14 11 12 36 -16 29 -31 41 -59 20
-46 -5 3 -7 0 -4 -9 3 -8 12 -12 20 -9 8 3 17 -5 24 -21 5 -14 15 -26 21 -26
8 0 7 -5 -2 -16 -10 -13 -10 -17 2 -24 10 -7 16 -4 20 7 5 14 7 14 11 -4 6
-23 -8 -43 -29 -43 -7 0 -13 -4 -13 -10 0 -5 4 -10 9 -10 5 0 17 -3 27 -7 10
-4 15 -2 11 3 -8 14 36 12 51 -2 8 -9 9 -15 1 -19 -6 -4 -8 -14 -5 -24 4 -9
-3 -5 -14 9 -19 24 -20 24 -17 3 2 -12 6 -26 10 -29 16 -16 5 -24 -15 -12 -13
7 -26 12 -29 13 -3 0 -14 8 -23 18 -10 10 -21 15 -25 11 -3 -4 0 -9 7 -11 6
-3 12 -11 12 -18 0 -7 5 -15 11 -17 14 -5 3 -78 -11 -78 -6 0 -10 5 -10 10 0
7 -7 7 -21 0 -16 -9 -18 -14 -8 -26 14 -17 5 -18 -21 -1 -17 10 -22 9 -28 -1
-6 -9 -17 -4 -42 18 -35 31 -50 37 -50 20 0 -5 5 -10 12 -10 6 0 8 -3 5 -7 -4
-3 -1 -13 6 -21 9 -13 9 -14 0 -8 -7 4 -13 2 -13 -3 0 -6 -7 -11 -16 -11 -8 0
-12 5 -9 10 3 6 2 10 -4 10 -5 0 -15 -8 -20 -17 -6 -10 -11 -13 -11 -8 0 6 -9
-3 -20 -20 -11 -16 -20 -24 -20 -16 0 8 -3 12 -6 9 -3 -4 -1 -15 5 -26 8 -16
7 -21 -5 -26 -11 -4 -13 -13 -8 -28 6 -20 5 -21 -10 -9 -9 8 -16 9 -16 3 0 -6
-3 -19 -6 -29 -3 -10 -2 -14 3 -8 14 17 53 36 63 30 4 -3 10 0 12 5 2 6 23 12
48 14 46 4 112 -21 124 -46 4 -7 4 -3 2 9 -2 12 -1 24 3 26 3 2 0 2 -6 1 -18
-5 -16 3 8 27 21 21 21 40 0 47 -9 3 -11 -2 -6 -17 5 -16 3 -20 -9 -15 -12 5
-13 10 -5 25 5 10 16 19 24 19 7 0 20 3 28 6 9 3 16 -3 20 -15 3 -12 15 -25
28 -29 15 -6 18 -11 11 -16 -7 -4 -12 -15 -12 -24 0 -12 6 -9 18 11 9 15 20
27 25 27 4 0 5 4 2 10 -8 13 24 60 41 60 8 0 14 -10 14 -26 0 -20 -4 -24 -18
-19 -16 4 -19 0 -20 -26 0 -18 -6 -35 -13 -40 -6 -4 -9 -14 -6 -23 3 -8 2 -18
-3 -21 -6 -4 -10 -1 -10 4 0 6 -5 11 -10 11 -7 0 -8 -18 -4 -50 7 -52 0 -62
-22 -32 -8 10 -13 12 -14 5 0 -7 -7 -13 -15 -13 -8 0 -15 -4 -15 -10 0 -5 -7
-7 -15 -4 -8 4 -15 1 -15 -5 0 -6 -5 -11 -11 -11 -6 0 -9 7 -5 15 3 8 1 15 -4
15 -6 0 -10 -4 -10 -10 0 -5 -5 -10 -11 -10 -5 0 -7 5 -4 10 3 6 0 10 -9 10
-8 0 -23 3 -33 7 -16 6 -16 5 -4 -10 9 -12 10 -17 2 -17 -7 0 -9 -4 -6 -10 3
-5 1 -10 -4 -10 -6 0 -11 5 -11 10 0 6 -7 10 -16 10 -13 0 -13 -2 2 -17 16
-16 15 -18 -12 -28 -43 -15 -72 -44 -67 -66 3 -11 0 -19 -6 -19 -7 0 -11 -24
-11 -65 0 -36 -4 -65 -10 -65 -19 0 -106 98 -134 152 l-30 55 29 64 c29 63 29
68 32 252 l2 187 -38 0 c-33 0 -40 4 -51 30 -7 18 -11 55 -8 90 3 49 9 65 33
90 16 17 36 29 44 28 9 -2 15 3 13 10 -3 18 28 28 38 12 7 -11 11 -11 24 -1
17 14 19 11 10 -13 -3 -9 -11 -13 -17 -9 -6 3 -7 1 -3 -6 4 -7 13 -10 19 -8 7
2 20 0 29 -4 15 -8 16 -7 3 17 -14 27 -10 54 7 54 5 0 6 -9 3 -20 -8 -26 7
-26 23 1 11 16 16 18 28 9 16 -14 17 -5 4 25 -5 11 -9 14 -9 8 -1 -18 -21 -16
-21 2 0 8 7 15 15 15 8 0 20 9 27 20 7 11 13 20 14 20 0 0 23 -27 49 -60z
m376 -3 c-17 -17 -13 -34 9 -40 14 -4 18 -11 14 -24 -5 -15 -4 -16 5 -3 10 13
12 13 21 0 15 -23 12 -32 -9 -25 -10 3 -23 -1 -30 -9 -7 -8 -19 -12 -27 -9
-10 4 -14 -2 -14 -21 0 -20 -5 -26 -21 -26 -11 0 -17 -4 -14 -10 9 -15 -1 -12
-18 5 -13 12 -17 11 -33 -7 -11 -12 -13 -18 -5 -13 11 6 12 2 7 -21 -10 -40
-21 -48 -43 -34 -16 10 -16 11 5 7 15 -4 22 0 22 9 0 10 -9 14 -26 12 -15 -2
-29 2 -31 9 -3 7 4 10 19 7 18 -3 17 -2 -4 7 -18 7 -28 18 -29 32 0 20 -1 20
-8 4 -6 -16 -9 -17 -18 -5 -14 16 -2 40 18 36 8 -2 20 -11 27 -20 20 -27 30
-22 26 12 -2 16 1 32 8 36 6 4 9 1 6 -7 -6 -17 9 -49 23 -49 6 0 7 6 2 13 -14
23 -11 82 6 94 15 10 14 12 -2 18 -14 6 -15 10 -6 21 14 17 29 9 29 -17 0 -13
7 -19 21 -19 12 0 17 4 13 11 -4 8 0 9 15 4 19 -6 31 8 14 18 -5 2 -2 2 6 0 8
-2 11 2 8 11 -3 8 -1 17 6 19 16 5 22 -12 8 -26z m-2920 -66 c21 -22 33 -41
27 -43 -7 -3 -8 -10 -4 -17 6 -9 11 -9 21 -1 10 8 17 6 27 -9 16 -23 58 -24
58 -1 0 13 1 13 10 0 8 -13 10 -13 10 1 0 11 15 20 46 28 48 12 69 7 60 -14
-3 -8 2 -11 15 -8 13 4 19 0 19 -11 0 -9 4 -16 10 -16 5 0 7 7 3 16 -5 14 -2
16 23 10 16 -4 36 -15 45 -26 11 -12 24 -17 38 -13 14 4 27 -1 40 -16 18 -21
37 -30 26 -12 -9 15 8 19 34 10 19 -7 22 -12 13 -21 -18 -18 -14 -30 7 -23 22
7 40 -14 21 -25 -7 -4 -9 -13 -6 -19 4 -6 11 -9 16 -6 4 3 10 -1 13 -8 4 -10
-2 -13 -20 -9 -14 3 -23 1 -20 -4 3 -5 -8 -9 -23 -9 -15 0 -26 3 -23 8 2 4 11
7 18 7 8 0 12 6 9 14 -3 9 -12 12 -21 9 -11 -4 -14 -2 -9 5 5 8 2 10 -8 6 -9
-3 -15 -9 -14 -12 2 -19 -3 -32 -13 -32 -6 0 -9 6 -6 13 6 16 -23 18 -39 3
-17 -18 -5 -35 22 -30 20 4 27 0 31 -16 3 -11 9 -20 14 -20 5 0 9 -7 9 -16 0
-8 5 -12 11 -9 6 4 8 14 5 22 -4 8 -1 11 5 8 6 -4 16 0 22 9 11 15 15 13 40
-15 15 -17 20 -29 12 -25 -10 3 -15 -1 -15 -13 0 -27 -11 -33 -30 -16 -15 14
-19 14 -31 -1 -13 -16 -12 -17 9 -12 26 7 29 -7 5 -21 -17 -9 -17 -10 1 -17
12 -5 21 -3 24 4 6 19 36 14 50 -8 11 -19 10 -22 -18 -31 -19 -7 -30 -18 -30
-30 0 -15 -7 -18 -35 -15 -19 1 -38 5 -41 9 -4 3 -13 0 -21 -8 -13 -13 -16
-13 -29 0 -14 13 -18 13 -37 0 -25 -17 -41 -20 -32 -5 3 6 2 10 -3 10 -5 0
-12 -9 -15 -19 -4 -15 -11 -18 -28 -14 -36 9 -70 44 -63 65 5 17 -4 22 -32 19
-6 -1 -19 8 -30 20 -18 20 -18 22 -1 34 21 15 22 22 2 22 -8 0 -15 -6 -15 -14
0 -28 -30 -10 -91 55 -35 37 -84 83 -108 103 -24 20 -42 42 -40 48 3 8 11 5
25 -7 16 -15 22 -16 32 -6 16 18 15 29 -4 45 -14 12 -14 14 3 20 16 7 16 8 -4
15 -13 3 -23 14 -23 25 0 22 -17 34 -23 17 -7 -22 -19 -1 -12 21 8 27 33 27
43 0 7 -19 9 -19 22 -4 8 10 10 19 4 23 -16 12 -37 42 -29 42 4 0 25 -18 46
-39z m1782 -39 l28 -29 -39 -72 -39 -71 -31 39 c-35 43 -40 75 -17 107 8 12
11 24 8 28 -3 3 2 15 12 26 20 22 35 17 78 -28z m152 -143 c87 -74 109 -99 87
-99 -9 0 25 -141 47 -193 14 -35 14 -47 1 -47 -5 0 -10 7 -10 15 0 13 -2 14
-14 3 -12 -11 -12 -13 0 -16 8 -2 14 -8 14 -13 0 -5 6 -9 14 -9 8 0 13 -9 12
-24 0 -14 -6 -22 -14 -19 -13 6 -12 -22 1 -44 6 -9 3 -11 -8 -7 -9 4 -14 12
-11 19 2 7 -5 21 -16 32 -15 13 -22 15 -25 6 -3 -7 -9 -13 -14 -13 -4 0 -5 8
-2 18 6 16 6 16 -10 0 -20 -19 -23 -43 -4 -32 9 5 9 4 1 -5 -7 -7 -9 -21 -7
-32 5 -18 7 -18 17 -3 11 15 14 15 28 0 9 -9 24 -16 32 -16 10 0 13 -6 10 -15
-9 -22 5 -18 27 8 20 24 25 42 9 32 -12 -8 -13 25 -1 44 14 22 25 -24 23 -98
-2 -68 -30 -170 -65 -233 -21 -39 -31 -46 -42 -28 -3 6 1 10 9 10 9 0 16 5 16
10 0 6 -9 10 -21 10 -13 0 -18 4 -13 12 5 8 2 9 -10 5 -21 -8 -59 10 -51 24 4
5 1 9 -4 9 -6 0 -11 7 -11 15 0 8 -5 15 -10 15 -7 0 -7 7 0 20 12 23 6 40 -16
40 -8 0 -14 7 -14 15 0 12 -9 15 -41 11 -36 -4 -39 -3 -34 14 5 16 0 19 -32
22 -37 3 -38 4 -36 38 1 19 4 137 6 262 4 224 4 227 31 272 15 25 34 46 42 46
8 0 57 -36 109 -81z m-290 -19 l48 -70 4 -127 c2 -79 -2 -157 -10 -203 -13
-73 -14 -74 -43 -76 -29 -1 -94 -29 -104 -44 -3 -4 -25 -4 -50 0 -25 4 -39 8
-32 9 7 0 20 7 27 15 20 20 -6 52 -49 60 -42 8 -46 18 -46 116 0 69 2 79 19
85 11 3 23 15 26 26 4 10 11 19 16 19 6 0 6 -7 -1 -19 -5 -11 -10 -26 -10 -34
0 -19 41 -62 61 -63 14 -1 15 4 6 32 -11 37 -4 55 15 36 9 -9 9 -12 -1 -12 -8
0 -1 -10 13 -21 22 -17 25 -24 14 -31 -8 -5 -4 -6 14 -2 17 4 36 -1 55 -12
l28 -18 -19 22 c-11 12 -30 22 -44 22 -21 0 -24 4 -20 28 3 15 9 35 13 45 6
14 3 16 -11 11 -18 -5 -18 -5 -1 6 9 6 17 20 17 30 0 11 4 20 9 20 5 0 7 -10
5 -22 -2 -14 -1 -17 3 -8 3 8 13 20 20 25 8 6 16 19 17 30 2 11 9 19 16 17 6
-1 10 2 8 8 -2 7 -7 11 -11 11 -4 -1 -13 -1 -20 -1 -9 0 -13 -11 -11 -32 2
-18 1 -25 -2 -15 -3 9 -9 15 -13 13 -4 -3 -8 8 -8 24 0 28 7 34 34 31 6 -1 14
3 18 9 3 5 -2 10 -12 10 -11 0 -25 6 -32 13 -10 8 -12 8 -7 0 3 -6 2 -14 -3
-17 -5 -3 -11 3 -14 14 -3 11 0 23 5 27 7 4 4 11 -7 20 -18 12 -18 13 2 13 16
0 20 6 18 25 -2 14 -2 25 -1 25 2 0 24 -31 51 -70z m-848 -13 c15 -12 44 -33
63 -46 41 -28 110 -107 110 -126 0 -16 -33 -30 -38 -16 -5 15 -75 14 -90 -1
-17 -17 -31 0 -37 41 -2 18 -12 39 -22 46 -10 7 -15 17 -11 20 4 4 -3 16 -15
26 -12 10 -16 18 -9 19 6 0 12 -4 12 -10 0 -5 5 -10 10 -10 17 0 -21 50 -39
51 -13 1 -13 2 2 6 9 2 15 9 12 14 -12 18 24 9 52 -14z m1355 -147 c84 -75 94
-117 50 -214 l-18 -40 -23 65 c-12 35 -23 72 -24 82 -1 9 -4 17 -8 17 -4 0
-10 10 -13 23 -3 12 -12 43 -20 70 -8 26 -12 47 -8 47 5 0 33 -22 64 -50z
m103 -420 c14 -43 86 -137 128 -164 34 -23 48 -42 65 -85 23 -60 30 -134 17
-165 -6 -14 -5 -17 3 -12 20 12 13 -7 -19 -54 -18 -27 -29 -37 -27 -25 2 16
-2 19 -20 17 -12 -2 -30 4 -39 13 -9 9 -24 14 -35 12 -10 -3 -16 -1 -13 4 3 4
-2 13 -12 20 -14 8 -18 20 -15 45 4 28 1 33 -12 28 -9 -3 -16 -13 -16 -22 0
-13 -3 -12 -15 4 -12 15 -12 21 -1 28 21 15 -8 60 -48 76 -19 7 -33 17 -30 22
3 4 1 8 -5 8 -6 0 -9 12 -6 28 7 42 78 242 86 242 4 0 10 -9 14 -20z m497 -56
c-9 -13 -20 -24 -24 -24 -5 0 -8 -5 -8 -11 0 -5 4 -8 9 -5 5 4 7 -4 4 -16 l-6
-23 22 22 c11 12 21 29 21 37 0 8 5 18 10 21 6 3 10 -4 10 -17 0 -13 -24 -56
-54 -96 -56 -76 -201 -232 -216 -232 -5 0 -12 30 -15 68 -4 37 -14 80 -22 95
-8 16 -13 30 -11 31 10 7 115 27 127 24 10 -2 17 8 21 27 4 25 10 30 33 30 27
-1 37 10 16 17 -7 2 -7 12 0 31 6 16 15 25 21 22 5 -3 10 -1 10 6 0 8 5 7 17
-2 15 -12 16 -12 10 3 -6 18 9 28 30 21 9 -4 8 -11 -5 -29z m368 10 c0 -8 5
-12 11 -8 8 4 9 0 4 -15 -4 -12 -2 -21 4 -21 6 0 11 -4 11 -10 0 -5 -7 -10
-15 -10 -20 0 -19 -19 2 -42 13 -14 14 -19 4 -16 -21 5 -22 -69 -2 -93 18 -22
51 -17 51 7 0 15 -15 19 -23 7 -2 -5 -2 -2 0 6 2 8 -2 18 -9 22 -7 4 -10 11
-6 14 3 4 20 -7 37 -24 31 -30 59 -42 45 -19 -5 7 -2 9 9 5 10 -4 17 0 19 11
3 14 12 9 41 -21 24 -25 34 -43 30 -54 -4 -11 -3 -14 5 -9 23 14 12 -25 -13
-48 -19 -18 -22 -25 -12 -35 9 -10 8 -11 -5 -6 -10 4 -18 11 -18 15 0 5 -10
10 -22 12 -13 2 -23 10 -23 18 0 8 -8 16 -17 18 -14 3 -18 -3 -18 -22 0 -14 5
-26 10 -26 6 0 10 -5 10 -11 0 -12 31 -54 43 -57 4 -1 12 -2 18 -2 5 0 8 -4 4
-9 -3 -6 4 -15 15 -21 32 -17 25 -38 -12 -36 -22 1 -34 7 -36 19 -4 21 -32 23
-32 2 0 -8 -4 -15 -9 -15 -5 0 -7 -8 -4 -18 3 -13 13 -17 36 -16 l32 2 -24
-19 c-13 -10 -36 -19 -52 -19 -31 0 -39 -19 -15 -39 14 -12 46 -5 57 12 8 11
31 -1 24 -13 -3 -4 4 -10 15 -13 34 -9 25 -45 -12 -55 -19 -5 -37 -5 -43 -1
-14 14 -57 11 -49 -3 5 -7 2 -9 -8 -5 -9 3 -21 0 -27 -6 -8 -8 -11 -6 -11 7 0
15 -3 16 -15 6 -13 -11 -18 -10 -28 2 -13 17 -77 33 -77 19 0 -17 -40 -19 -50
-3 -5 10 -10 13 -10 8 0 -5 -7 -3 -15 4 -13 10 -15 9 -15 -10 0 -22 -1 -22
-19 -6 -11 10 -24 15 -30 12 -5 -4 -12 -2 -15 3 -5 7 -41 8 -41 1 0 -1 -11 -4
-25 -6 -13 -2 -28 -10 -32 -17 -6 -9 -17 -3 -38 21 -33 35 -40 39 -40 19 0
-20 -106 -15 -127 5 -14 15 -14 19 2 46 11 17 24 28 32 25 9 -4 12 2 8 23 -8
42 26 91 78 114 24 11 52 29 63 41 10 12 32 30 47 41 l28 20 -7 -25 c-8 -35 3
-52 23 -35 11 9 14 24 9 58 l-6 45 52 13 c41 9 53 9 60 -1 5 -7 8 -2 8 16 0
24 3 27 24 21 17 -4 27 0 35 13 6 10 11 12 11 6 0 -19 37 -16 44 3 3 8 10 13
14 10 5 -3 8 14 7 37 -1 23 3 45 9 50 8 5 8 9 0 15 -12 8 -15 42 -3 42 4 0 6
9 4 20 -2 11 0 20 6 20 5 0 9 -7 9 -16z"/>
<path d="M1590 4744 c0 -20 -22 -42 -38 -36 -6 2 -12 0 -12 -6 0 -5 -13 -8
-30 -7 -34 2 -41 -14 -9 -22 16 -4 17 -8 7 -14 -15 -9 -20 -49 -7 -49 5 0 8
-3 8 -7 -3 -20 2 -27 10 -14 7 11 12 9 22 -10 7 -13 14 -27 15 -31 1 -5 2 -11
3 -14 0 -4 7 -1 15 6 8 6 13 17 10 25 -3 7 7 25 23 39 l28 26 -28 0 c-16 0
-26 4 -22 10 3 6 -1 10 -9 10 -9 0 -16 8 -16 17 0 9 3 13 7 10 3 -4 12 1 19
11 11 16 13 16 33 -2 12 -11 21 -15 22 -10 0 5 3 21 5 37 4 22 0 29 -21 37
-34 13 -35 13 -35 -6z"/>
</g>
</svg>
